<?xml version="1.0" encoding="UTF-8"?>
<svg xmlns="http://www.w3.org/2000/svg" version="1.1" xmlns:xlink="http://www.w3.org/1999/xlink" viewBox="0 0 246.26 18.17">
  <defs>
    <style>
      .cls-1 {
        fill: #f5b335;
      }

      .cls-2 {
        fill: #002134;
      }

      .cls-3 {
        fill: #7a6e66;
      }

      .cls-4 {
        fill: none;
      }

      .cls-5 {
        fill: #221afb;
      }

      .cls-6 {
        fill: #006a56;
      }

      .cls-7 {
        fill: #ce0e2d;
      }

      .cls-8 {
        fill: #8ac63f;
      }

      .cls-9 {
        fill: url(#linear-gradient);
      }

      .cls-10 {
        clip-path: url(#clippath);
      }
    </style>
    <clipPath id="clippath">
      <path class="cls-4" d="M168.35,1.4c1.09.61,2.05,1.44,2.8,2.46.86-1.02,1.93-1.84,3.05-2.46h-5.86ZM171.45,4.29c.52.81.91,1.73,1.14,2.75.41-1.26,1.25-2.27,2.49-3.02l.27-.16.27.16c1.25.75,2.08,1.76,2.49,3.02.23-1.03.61-1.94,1.14-2.75-1.3-1.58-3.01-2.49-3.9-2.89-.89.4-2.6,1.32-3.9,2.89M176.5,1.4c1.12.62,2.19,1.44,3.05,2.46.76-1.02,1.73-1.85,2.8-2.46h-5.86ZM179.86,4.25c-.11.15-.2.3-.3.45-.75,1.25-1.15,2.72-1.15,4.35v5.75s-.03.06-.06.06h-6.01s-.06-.03-.06-.06v-5.75c0-1.63-.4-3.11-1.15-4.35-.1-.16-.19-.31-.3-.45-.86-1.21-2.08-2.18-3.65-2.85v2.78c1.13.75,1.88,1.74,2.27,2.93,0,0,.28.75.28,1.88v3.09c0,1.38-.58,2.62-1.53,3.33h14.29c-.95-.71-1.53-1.96-1.53-3.33v-3.09c0-1.13.29-1.88.29-1.88.38-1.19,1.14-2.17,2.27-2.93V1.4c-1.57.67-2.79,1.63-3.65,2.85Z"/>
    </clipPath>
    <linearGradient id="linear-gradient" x1="-250.13" y1="-400.14" x2="-249.77" y2="-400.14" gradientTransform="translate(15796.73 -9750.45) rotate(-90) scale(39.04)" gradientUnits="userSpaceOnUse">
      <stop offset="0" stop-color="#8ac640"/>
      <stop offset=".15" stop-color="#8ac640"/>
      <stop offset=".21" stop-color="#78ba42"/>
      <stop offset=".47" stop-color="#378f4d"/>
      <stop offset=".65" stop-color="#0f7453"/>
      <stop offset=".75" stop-color="#006a56"/>
      <stop offset="1" stop-color="#006a56"/>
    </linearGradient>
  </defs>
  <!-- Generator: Adobe Illustrator 28.6.0, SVG Export Plug-In . SVG Version: 1.2.0 Build 709)  -->
  <g>
    <g id="Layer_1">
      <g id="_x39_u7Tlw">
        <g>
          <path class="cls-5" d="M241.56,7.58c.52.3,1.03.6,1.54.89.38.22.75.43,1.13.65.68.4,1.08,1,1.21,1.78.01.09.01.17.01.26,0,.87,0,1.74,0,2.61,0,.59-.23,1.1-.6,1.54-.2.24-.45.41-.72.57-.66.38-1.32.76-1.98,1.14-.43.25-.9.37-1.4.34-.37-.02-.71-.11-1.03-.3-.85-.49-1.7-.98-2.54-1.47-.12-.07-.22-.09-.35,0-.83.49-1.66.96-2.49,1.44-.43.25-.89.36-1.39.33-.43-.02-.82-.17-1.19-.38-.67-.39-1.35-.77-2.01-1.17-.79-.47-1.21-1.17-1.22-2.1-.01-.83,0-1.66,0-2.49,0-.59.21-1.11.58-1.57.2-.24.44-.42.7-.57.83-.48,1.66-.96,2.49-1.44.09-.05.11-.11.11-.21,0-.99-.02-1.97,0-2.96.02-.89.4-1.59,1.16-2.06.61-.38,1.23-.72,1.85-1.07.16-.09.33-.19.49-.27.26-.14.55-.2.84-.23.55-.05,1.05.08,1.52.35.66.38,1.32.77,1.98,1.14.54.31.93.75,1.15,1.33.1.25.15.52.15.79,0,.99,0,1.97,0,2.96,0,.05,0,.11,0,.17ZM236.98,13.95s.02,0,.03,0c.84-.48,1.68-.95,2.5-1.45.46-.27.7-.69.7-1.24,0-.92,0-1.84,0-2.77,0-.09-.03-.15-.11-.19-.8-.46-1.59-.93-2.39-1.38-.48-.27-.98-.26-1.46.01-.79.45-1.57.91-2.36,1.35-.09.05-.13.11-.13.21,0,.91,0,1.82,0,2.72,0,.58.27,1.01.76,1.31.22.13.44.26.66.38.6.34,1.19.69,1.79,1.03ZM232.41,9.13c-.06.03-.1.05-.14.07-.6.35-1.2.7-1.8,1.04-.4.23-.61.57-.61,1.03,0,.8,0,1.59,0,2.39,0,.44.2.78.58,1,.7.41,1.4.82,2.11,1.21.35.2.71.2,1.06.01.65-.36,1.29-.74,1.93-1.11.03-.02.05-.04.08-.06-.04-.03-.07-.05-.09-.06-.55-.32-1.09-.63-1.64-.94-.44-.25-.8-.59-1.06-1.02-.28-.46-.4-.95-.41-1.49,0-.63,0-1.26,0-1.88,0-.05,0-.1,0-.18ZM238.35,14.72c.05.03.09.06.13.09.61.35,1.23.71,1.84,1.06.37.21.75.22,1.13,0,.71-.4,1.41-.81,2.12-1.22.37-.21.55-.55.56-.97,0-.81,0-1.61,0-2.42,0-.44-.2-.77-.59-.99-.54-.31-1.08-.63-1.63-.94-.11-.06-.22-.12-.34-.19v.18c0,.65,0,1.29,0,1.94,0,.13,0,.26-.03.39-.15.88-.59,1.56-1.36,2.02-.33.2-.68.39-1.01.59-.27.15-.53.31-.81.47ZM233.76,6.8c.06-.03.1-.05.13-.07.56-.32,1.12-.65,1.68-.96.93-.52,1.88-.51,2.81,0,.57.31,1.13.65,1.69.97.04.02.07.04.12.06,0-.04,0-.06,0-.09,0-.76,0-1.53,0-2.29,0-.05,0-.11-.02-.16-.07-.33-.27-.57-.56-.74-.69-.4-1.38-.79-2.07-1.19-.38-.22-.77-.21-1.16,0-.21.12-.41.24-.61.35-.5.29-1,.57-1.49.86-.35.21-.54.53-.54.95,0,.71,0,1.42,0,2.13,0,.05,0,.1,0,.17Z"/>
          <path class="cls-5" d="M207.19,8.38c0-.19,0-.38-.01-.57,0-.09-.02-.17-.04-.25-.11-.34-.48-.45-.78-.25-.03.02-.06.05-.1.08-.13-.11-.26-.22-.41-.34.16-.17.35-.26.56-.31.25-.05.5-.03.73.08.35.16.54.44.59.82.02.17.02.34.02.5,0,.21.03.24.24.25.02,0,.04,0,.07,0,0,.08,0,.15,0,.23,0,.08,0,.15,0,.23-.11.04-5.39.05-5.65.01v-1.64c-.43-.13-.78.12-.79.55,0,.31,0,.63,0,.94,0,.05,0,.09,0,.15-.06,0-.1,0-.15,0-.46,0-.92,0-1.38,0-.58,0-1.02-.45-1.04-1.04,0-.27.06-.52.23-.73.01-.02.02-.03.04-.04,0,0,.02,0,.04-.02.13.1.26.21.39.32-.04.1-.09.19-.11.28-.05.24-.01.46.18.62.06.06.16.11.24.11.32.01.65,0,.99,0,0-.06,0-.11,0-.16,0-.22,0-.44.02-.65.07-.47.44-.81.91-.85.31-.02.62-.02.93-.02.02,0,.04,0,.07.01v1.66h1.93c-.01-.24-.01-.47-.04-.7-.02-.22-.17-.43-.44-.47-.13-.02-.25.01-.36.09-.03.02-.06.05-.1.09-.13-.11-.27-.22-.41-.34.15-.17.33-.26.53-.3.33-.07.65-.03.94.18.28.2.41.48.43.82,0,.15,0,.3,0,.45,0,.13.07.2.19.21.49,0,.99,0,1.48,0,.02,0,.04,0,.04,0Z"/>
          <path class="cls-5" d="M222.46,8.35c.11.04.59.05.77.02-.02-.04-.04-.08-.05-.12-.15-.39-.12-.76.12-1.11.11-.16.26-.27.44-.34.28-.11.57-.12.85-.02.35.13.58.37.66.74.08.36.03.69-.21.98-.19.24-.45.37-.75.37-.56,0-1.11,0-1.67,0-.14,0-.25-.06-.34-.16-.02-.02-.04-.04-.07-.08-.23.24-.52.24-.82.24-.74,0-1.48,0-2.22,0-.11,0-.21,0-.3-.07-.11.66-.43.95-1.1,1.01v-.47s.05-.02.08-.03c.26-.06.42-.25.43-.53,0-.17,0-.34,0-.51v-1.37h.58v.16c0,.37,0,.73,0,1.1,0,.03,0,.07,0,.1,0,.06.04.11.11.11.2,0,.39,0,.61,0v-1.41c.18-.01.34,0,.52,0v.49c.09-.04.13-.1.18-.15.16-.17.34-.3.56-.38.37-.15.75-.19,1.12-.02.34.15.53.43.59.8.03.19,0,.37-.07.55-.01.03-.02.05-.03.09ZM220.23,8.37s.02.02.03.02c.43,0,.87,0,1.3,0,.21,0,.37-.15.42-.36.04-.19,0-.36-.1-.52-.11-.16-.27-.22-.45-.21-.2.01-.39.09-.56.21-.29.21-.48.5-.63.81,0,.02,0,.04,0,.05ZM223.68,7.79c0,.16.03.26.08.36.16.31.66.31.83.04.15-.23.17-.48.04-.72-.16-.31-.56-.36-.8-.12-.12.12-.16.27-.15.44Z"/>
          <path class="cls-5" d="M214.13,7.03c.15.12.28.23.41.34-.03.07-.06.12-.08.19-.09.26-.06.51.14.71.06.06.16.11.24.12.26.01.53,0,.81,0-.02-.05-.04-.08-.05-.12-.16-.44-.13-.85.19-1.22.14-.16.31-.25.52-.3.38-.08.74-.03,1.04.23.16.14.27.32.31.52.08.36.04.7-.2,1-.19.24-.45.37-.75.38-.63,0-1.26,0-1.88,0-.51,0-.95-.44-.98-.95-.02-.27.01-.52.17-.75.03-.05.07-.09.12-.15ZM216.08,7.8c-.01.12.03.24.09.36.15.26.54.32.76.11.21-.2.25-.59.08-.84-.12-.18-.33-.26-.54-.21-.25.06-.4.27-.4.58Z"/>
          <path class="cls-5" d="M215.02,13.86s-.02.07-.03.1h-.56v-3.29h.57v1.2s.06-.03.08-.04c.35-.24.85-.17,1.17.07.32.25.5.57.49.98,0,.61-.45,1.04-.92,1.13-.25.05-.49.04-.71-.11-.03-.02-.06-.03-.09-.05ZM216.17,12.8c-.02-.06-.04-.18-.09-.28-.18-.37-.69-.4-.91-.13-.19.23-.22.49-.12.77.16.43.68.44.92.21.14-.14.19-.32.2-.57Z"/>
          <path class="cls-5" d="M210.71,8.39c.19,0,.37,0,.55,0,.11,0,.19-.05.21-.16.02-.07.03-.15.03-.23,0-.64,0-1.28,0-1.91v-.16h.54s.01.07.01.11c0,.69,0,1.37,0,2.06,0,.14-.02.28-.07.41-.11.24-.31.37-.57.38-.19,0-.38,0-.56,0-.06,0-.13-.03-.2-.05-.04.29-.15.56-.39.76-.2.16-.44.23-.71.23v-.47s.07-.02.11-.03c.19-.04.31-.16.36-.34.03-.1.05-.22.05-.33,0-.52,0-1.04,0-1.56v-.17h.55c0,.05,0,.1,0,.15,0,.36,0,.72,0,1.09,0,.08,0,.16.07.23Z"/>
          <path class="cls-5" d="M218.76,11.88s.02-.07.03-.11h.54c.03.11.04,1.85.02,2.19-.09,0-.19,0-.28,0-.09,0-.18,0-.28,0,0-.04-.02-.07-.03-.1-.02,0-.03,0-.04,0-.67.47-1.69-.08-1.69-.98,0-.47.19-.82.59-1.05.36-.2.72-.22,1.08.01.01,0,.03.02.05.03ZM217.6,12.87s0,0,.01,0c0,.03,0,.07,0,.1.02.26.19.47.44.53.25.06.5-.03.63-.26.12-.2.12-.41.06-.63-.07-.23-.29-.4-.53-.4-.26,0-.47.13-.56.37-.03.09-.04.19-.06.28Z"/>
          <path class="cls-5" d="M201.44,11.89s.02-.07.02-.11h.55v2.18h-.54s-.02-.06-.04-.11c-.3.23-.64.25-.98.12-.34-.12-.58-.37-.69-.72-.15-.47-.06-.9.3-1.25.18-.18.41-.28.67-.31.26-.03.48.04.7.19ZM201.47,12.87c-.03-.11-.04-.22-.08-.32-.08-.21-.25-.32-.46-.34-.21-.02-.39.05-.52.23-.15.22-.17.46-.08.7.08.22.23.34.46.37.25.03.45-.05.57-.28.06-.11.09-.23.1-.36Z"/>
          <path class="cls-5" d="M206.89,11.86s.01-.05.02-.09h.54c.03.1.04,1.96.01,2.18h-.55s-.02-.06-.03-.09c-.01,0-.03,0-.04,0-.57.41-1.51.05-1.66-.78-.08-.42.02-.8.34-1.09.28-.26.62-.37,1-.29.12.03.23.09.36.14ZM206.33,13.52c.26,0,.45-.14.54-.38.06-.18.06-.36,0-.54-.08-.22-.23-.36-.46-.38-.23-.03-.43.05-.56.26-.09.14-.12.31-.1.47.04.41.31.58.59.57Z"/>
          <path class="cls-5" d="M209.25,10.67h.55c0,.2,0,.39,0,.59,0,.19,0,.39,0,.59.04-.02.07-.03.09-.05.41-.28,1.15-.05,1.29.53.03.13.05.27.06.4,0,.38,0,.75,0,1.13,0,.03,0,.06,0,.1h-.56s0-.1,0-.15c0-.35,0-.71,0-1.06,0-.09-.01-.17-.03-.26-.03-.16-.14-.25-.29-.28-.25-.05-.46.09-.5.34-.02.1-.03.2-.03.3,0,.32,0,.64,0,.96v.15h-.55c0-1.1,0-2.18,0-3.29Z"/>
          <path class="cls-5" d="M222.5,10.67h.55c0,.2,0,.4,0,.6,0,.21,0,.42,0,.62v.63s.08-.05.1-.07c.19-.19.39-.38.57-.57.08-.08.16-.12.28-.12.19,0,.37,0,.58.03-.3.3-.61.59-.92.9.33.42.66.83,1.01,1.28-.15,0-.26,0-.37,0-.11,0-.24.02-.33-.02-.09-.04-.14-.15-.2-.24-.16-.21-.33-.42-.5-.64-.06.06-.13.12-.18.18-.02.03-.03.08-.03.12,0,.14,0,.29,0,.43v.15h-.55v-3.29Z"/>
          <path class="cls-5" d="M219.93,11.77c.17,0,.33,0,.5,0,.03,0,.06.04.08.06.11-.04.22-.09.34-.12.39-.09.95.15,1.04.73,0,.07.02.13.02.2,0,.43,0,.86,0,1.29,0,0,0,.02-.01.04h-.56c0-.05,0-.1,0-.15,0-.36,0-.71,0-1.07,0-.09-.01-.18-.03-.27-.03-.13-.12-.2-.25-.24-.27-.07-.48.06-.54.33-.02.09-.03.18-.03.27,0,.32,0,.65,0,.97v.16h-.56c0-.72,0-1.44,0-2.19Z"/>
          <path class="cls-5" d="M207.57,15.13v-.45c.11-.06.23-.09.32-.16.17-.13.21-.31.21-.52,0-.68,0-1.37,0-2.05v-.17h.56s0,.09,0,.13c0,.73,0,1.46,0,2.18,0,.52-.41.98-.98,1.04-.03,0-.07,0-.12,0Z"/>
          <path class="cls-5" d="M202.59,10.67h.56v3.29h-.56v-3.29Z"/>
          <path class="cls-5" d="M212.56,5.92h.54c.03.1.04,2.75,0,2.96h-.55c0-.99,0-1.97,0-2.96Z"/>
          <path class="cls-5" d="M209.33,8.87h-.53c-.03-.1-.04-2.73-.01-2.95h.54c0,.98,0,1.96,0,2.95Z"/>
          <path class="cls-5" d="M204.26,13.97h-.57s0-.09,0-.13c0-.39,0-.77,0-1.16,0-.13.02-.27.06-.4.08-.28.27-.45.55-.52.22-.05.44-.07.68-.02v.48c-.07,0-.13,0-.2,0-.06,0-.13,0-.19,0-.22.03-.32.14-.32.37,0,.37,0,.74,0,1.11v.25Z"/>
          <path class="cls-5" d="M211.82,11.78h.55v2.18h-.54c-.03-.1-.04-1.96-.01-2.18Z"/>
          <path class="cls-5" d="M212.09,11.37c-.21,0-.36-.14-.35-.35,0-.19.15-.34.35-.35.18,0,.36.15.36.35,0,.18-.16.38-.36.35Z"/>
          <path class="cls-5" d="M208.38,11.37c-.2.03-.37-.18-.36-.35.01-.2.15-.35.35-.35.21,0,.36.14.36.35,0,.22-.13.35-.35.35Z"/>
          <path class="cls-5" d="M200.16,10.01c-.19,0-.33-.14-.33-.33,0-.19.14-.32.33-.32.18,0,.32.14.32.32,0,.18-.15.33-.33.33Z"/>
          <path class="cls-5" d="M201.41,9.68c0,.19-.14.33-.33.33-.18,0-.33-.14-.33-.33,0-.18.14-.32.32-.32.19,0,.33.13.34.32Z"/>
          <path class="cls-5" d="M215.68,6.32c0,.19-.14.31-.34.3-.18,0-.31-.15-.3-.33,0-.18.15-.31.33-.32.18,0,.34.15.32.35Z"/>
          <path class="cls-5" d="M207.1,9.68c.03.17-.16.34-.32.33-.18-.01-.33-.15-.33-.33,0-.18.14-.31.32-.32.18-.01.35.17.32.32Z"/>
        </g>
      </g>
      <g id="Layer_1-2" data-name="Layer_1">
        <path class="cls-8" d="M177.9,14.28s-.03.06-.06.06h-4.96s-.06-.03-.06-.06v-5.23c0-2.25,1.04-3.67,2.55-4.59,1.5.91,2.55,2.34,2.55,4.59,0,0,0,5.23,0,5.23ZM183.97.88h-17.23s-.06.03-.06.06v3.48s.01.04.03.05c1.49.92,2.51,2.33,2.51,4.57v3.03c0,1.33-.61,2.48-1.49,3.04-.02,0-.03.03-.03.05v.7s.03.06.06.06h15.19s.06-.03.06-.06v-.7s-.01-.04-.03-.05c-.89-.56-1.49-1.71-1.49-3.04v-3.03c0-2.22,1.02-3.64,2.51-4.57.02-.01.03-.03.03-.05V.95s-.03-.06-.06-.06"/>
        <g class="cls-10">
          <rect class="cls-9" x="167.19" y="1.4" width="16.33" height="14.02"/>
        </g>
        <polygon class="cls-6" points="130.24 15.94 127.16 10.64 127.16 15.94 126.55 15.94 126.55 9.43 127.15 9.43 130.26 14.78 130.26 9.43 130.87 9.43 130.87 15.94 130.24 15.94"/>
        <g>
          <path class="cls-6" d="M132.16,11.46c0-1.46.92-2.19,2.26-2.19.93,0,1.58.39,1.91,1.02l-.46.23c-.27-.45-.77-.7-1.41-.7-.99,0-1.69.53-1.69,1.64v2.39c0,1.11.7,1.64,1.69,1.64.64,0,1.15-.25,1.41-.7l.46.23c-.32.63-.98,1.02-1.91,1.02-1.32,0-2.26-.73-2.26-2.19v-2.39Z"/>
          <path class="cls-6" d="M139.7,12.4c.78,0,1.21-.43,1.21-1.26,0-.64-.42-1.17-1.2-1.17h-1.73v2.43s1.72,0,1.72,0ZM137.98,15.39h1.89c.78,0,1.21-.43,1.21-1.26,0-.64-.42-1.17-1.2-1.17h-1.9s0,2.43,0,2.43ZM139.83,9.43c1.09,0,1.7.76,1.7,1.65,0,.8-.3,1.33-.86,1.58.67.23,1.03.83,1.03,1.53,0,1.14-.61,1.76-1.71,1.76h-2.62v-6.51h2.46Z"/>
        </g>
        <polygon class="cls-6" points="163.49 15.94 163.49 9.42 164.12 9.16 164.12 15.94 163.49 15.94"/>
        <g>
          <path class="cls-6" d="M147.68,17.04c0,.2-.13.39-.38.39-.23,0-.39-.16-.39-.39s.17-.38.39-.38c.23,0,.38.15.38.38"/>
          <path class="cls-6" d="M146.46,17.04c0,.2-.14.39-.38.39s-.39-.16-.39-.39.17-.38.39-.38c.23,0,.38.15.38.38"/>
          <path class="cls-6" d="M159.54,10l-.14-.33c-.06-.17,0-.33.17-.4,0,0,.17-.1.35.03l.05-.2c-.16-.12-.37-.14-.55-.05-.33.14-.45.42-.32.74l.14.33-.19.08-.13.32,1.32-.55v-.27l-.71.29h0Z"/>
          <path class="cls-6" d="M161.55,9.42v5.16c0,.46-.38.84-.84.84h-.46v-4.85l-.63.26v4.58h-.48l-.2.52h1.82c.8,0,1.44-.64,1.44-1.44v-5.33l-.63.26h0Z"/>
          <path class="cls-6" d="M155.69,15.42h-.35c-.69-.05-1.22-.37-1.22-1.17,0-.28.05-.55.15-.72.23-.38.6-.56,1.06-.56.11,0,.2.01.31.03.02,0,.03.01.05.01v2.41ZM155.61,10.58c-.96,0-1.63.4-1.97,1.05l.47.24c.27-.46.8-.72,1.45-.72,1.02,0,1.73.55,1.73,1.71v1.96c0,.33-.27.6-.6.6h-.41v-2.72c-.18-.1-.39-.17-.61-.2-.12-.02-.23-.03-.35-.03-.27,0-.53.04-.75.13-.09.03-.17.06-.25.11l-.06.03h0c-.43.28-.72.78-.72,1.48v.04c0,.54.16.91.43,1.17h-1c-.46,0-.84-.38-.84-.84v-5.43l-.63.26v5.16c0,.46-.21.84-.68.84-.28,0-.46-.32-.63-.61l-1.86-3.72-.26-.52s-.3.18-.62.63c-.23.32-.43.76-.47,1.04-.05.35-.17.84.37,1.86l.75,1.3h-2.56c-.77-.01-1.03-.57-1.03-1.29,0-.48.14-.91.38-1.31l-.35-.25c-.32.5-.5,1.09-.5,1.71,0,.95.48,1.65,1.57,1.65h3.44l-1.06-1.82s-.26-.54-.35-.84c-.06-.2-.12-.44-.11-.68.02-.6.4-1.02.4-1.02l1.48,2.91c.45.87.64,1.43,1.44,1.43.4,0,.76-.21,1-.54.27.32.66.54,1.12.54h3.95c.57,0,1.04-.46,1.04-1.04v-2.04c0-1.53-.96-2.28-2.32-2.28"/>
        </g>
      </g>
      <g id="Layer_1-3" data-name="Layer_1">
        <g id="Layer_1-2">
          <g>
            <g>
              <path class="cls-3" d="M81.18,7.11c.07-.12.28-.51.28-.65-.22-.21-.52-.25-.62-.38-.03-.04.39-.31.4-.37l.07-.34s-.86.59-.86,1.07v.04c0,.22.64.42.64.42-.13.16-1.31.66-1.57.73h0c.63.04,1.31.01,1.67-.53"/>
              <path class="cls-3" d="M64.66,7.17c-.39-.53-1.21-1.13-2.29-2.33,0,0-.53-.53-.85-.88l-.12.79c.61.83,1.75,1.98,3.11,3.12.05.04-.04.1-.08.12h0c-.85.42-3.02,1.35-3.84,1.36-1.27.02-.79-1.67-.68-1.95,0,0,.04-.12-.02-.15-.24.56-1.27,2.98.61,2.96,1.07-.01,3.34-1.1,4.12-1.49.26-.13.26-.52.27-.7-.01-.35-.05-.58-.22-.85"/>
              <path class="cls-3" d="M90.27,7.08l-.04-.05c-.07.26-.15.51-.23.77.26.37.55.77.59,1.23-.03.29-.78.4-1.37.41h0c-1.47,0-1.32-.88-1.31-1.26,0,.01-.69,1.22-1.73,1.22-1.2-.06-1.57-.81-1.59-1.33-.01-1.72-1.49-2.38-2.76-4.28l-.04-.06s-.42-.66-.46-.71c.21-.2,5.33-1.31,6.23-1.49h0c.19-.02.36,0,.22.49-.16.53-.73,1.96-1,2.63.55-.88,1.93-3.86,1.3-3.81-1.05.19-6.21,1.37-6.94,1.67-.07.13-.19,1.06-.13,1.1,1.08,1.76,2.64,3.11,3.07,3.85.08.15.12.3.1.34-.41.96-3.79,1.7-4.88,1.7-.18,0-.41,0-.65-.03,1.43-2.25-2.07-6.68-2.86-7.98-.25-.38-.35-.55-.35-.55l-.3.65c.14.74.48,5.79.48,6.14,0,.43.01.43.01.93,0,.65-1.22.62-1.37.6-.43-.07-.63-.96-.65-1.56-1.44,1.86-3.08,1.73-3.09,1.73-1.57-.18-1.62-2.25-1.68-3.49-.01-.41,0-3.93-.08-5.06,0,0-.48.69-.51.8,0,.34.13,3.67.18,4.63.06,1.01-.2,1.94-1.08,2.73.04-.05.17-.39.18-.51.17-1.77-1.96-3.53-3.33-5.57l-.04-.06s-.59-1-.71-1.15c-.07.17-.17.59-.21.83,1.78,2.98,4.07,4.68,3.94,6.16-.02.29-.06.41-.24.59-.83.71-1.72,1.16-2.73,1.58h.15c.75.03,2.1-.28,2.69-.72.85-.62,1.46-1.76,1.6-2.46v-.04.03c.08.94.08,2.09,1.44,2.43,1.01.25,1.93-.19,2.55-.63.51-.36.81-.72.81-.7,0,.53.12.95.38,1.1.44.27,1.07.15,1.07.15,1.46-.25,1.24-1.99,1.24-2.8,0-1.01-.34-4.3-.38-4.78.72,1.15,3.69,5.09,2.52,6.92-.37-.06-.72-.18-.92-.39,0-.01-.43-.32-.43-.87,0-.74.55-1.46.55-1.46-.58.49-.89,1.52-.89,1.88,0,.85.53,1.32,1.22,1.53-.34.39-.39.47-.61.69.37-.19.67-.4.92-.62.21.04.43.05.64.05,2.82,0,5.23-1.09,5.6-1.98-.02,2.23,2.17,1.84,2.17,1.84.78-.13,1.06-.51,1.3-.83h0c.36,1.39,2.49.78,2.52.78.48-.12.65-1.15.65-1.54-.01-.53-.32-1.02-.65-1.43"/>
              <path class="cls-3" d="M88.37,6.55l-.64-.47-.38.49s-.04.04,0,.07l.65.46.36-.47s.02-.07,0-.09"/>
              <path class="cls-3" d="M89.68,11.25l-.64-.48-.38.49s-.04.04,0,.07l.65.46.36-.47s.02-.06,0-.08"/>
              <path class="cls-3" d="M74.23,11.25l-.64-.47-.38.49s-.04.04,0,.07l.65.46.36-.47s.03-.07,0-.09"/>
              <path class="cls-3" d="M60.79,16.7c.12,0,.23,0,.37-.02.13-.01.24-.04.35-.09s.19-.13.26-.22c.06-.09.1-.23.1-.4s-.03-.29-.09-.39-.15-.18-.25-.23c-.1-.06-.21-.09-.34-.12s-.24-.03-.36-.03h-.83v1.51h.79ZM60.81,14.63c.09,0,.2-.01.29-.04s.19-.06.27-.12c.08-.05.15-.13.2-.21s.07-.19.07-.31c0-.14-.02-.24-.07-.32-.05-.08-.12-.15-.2-.2s-.17-.07-.27-.09c-.09-.01-.2-.03-.29-.03h-.81v1.31h.81s0,.02,0,.02ZM59.37,12.75h1.52c.23,0,.44.03.61.09s.31.15.43.25.2.22.25.37c.06.14.08.28.08.44,0,.15-.02.27-.07.39s-.12.22-.19.3c-.07.07-.16.15-.24.2-.09.05-.17.07-.24.09.09.01.2.04.31.08s.22.1.32.19.18.2.25.34.09.3.09.51c0,.24-.04.44-.13.61-.08.16-.21.28-.36.39s-.32.17-.53.21-.43.06-.66.06h-1.47v-4.52h.01Z"/>
              <path class="cls-3" d="M64.99,15.78s-.05-.01-.1-.02c-.05,0-.12-.01-.18-.02-.07,0-.15,0-.22-.01h-.22c-.17,0-.31.02-.42.06s-.19.09-.25.15c-.06.06-.1.13-.13.2s-.03.15-.03.21c0,.17.06.3.18.39.12.08.28.13.48.13.12,0,.23-.02.34-.06s.2-.09.28-.17c.07-.06.15-.15.2-.23.05-.09.07-.18.07-.27,0,0,0-.35,0-.35ZM65,16.88c-.12.16-.27.27-.46.36-.19.07-.39.12-.59.12-.13,0-.26-.02-.39-.05-.13-.03-.25-.09-.36-.17s-.19-.18-.25-.3c-.06-.13-.09-.27-.09-.46,0-.34.12-.61.36-.81.23-.2.58-.3,1.02-.3h.23c.08,0,.16,0,.23.01.07,0,.14,0,.19.01.05,0,.09,0,.12.01v-.12c0-.23-.07-.4-.22-.5-.15-.1-.34-.15-.58-.15s-.43.03-.57.09-.25.13-.36.2l-.28-.41s.12-.09.2-.14c.07-.04.17-.08.27-.13s.22-.07.36-.09c.13-.02.28-.04.45-.04.41,0,.72.09.95.29s.35.47.35.83v2.11h-.57v-.36h-.01Z"/>
              <path class="cls-3" d="M66.17,14.8v-.68h.59l.02.47s.09-.12.15-.18c.06-.06.13-.13.22-.18.08-.05.18-.09.3-.13.12-.04.24-.05.39-.05.41,0,.71.12.91.36.2.24.29.57.29.97v1.89h-.61v-1.83c0-.29-.06-.51-.19-.65s-.3-.2-.53-.21c-.18,0-.32.04-.44.12s-.21.17-.28.28c-.07.12-.13.25-.15.39-.03.15-.04.29-.04.44v1.46h-.61v-2.46s-.02,0-.02,0Z"/>
            </g>
            <polygon class="cls-3" points="69.61 12.75 70.2 12.75 70.2 15.41 71.53 14.11 72.26 14.12 71.07 15.27 72.44 17.25 71.71 17.25 70.64 15.68 70.2 16.1 70.2 17.25 69.61 17.25 69.61 12.75"/>
            <path class="cls-3" d="M76.12,15.45l-.72-1.98-.74,1.98h1.47ZM75.08,12.75h.66l1.77,4.51h-.72l-.46-1.26h-1.86l-.46,1.26h-.68s1.75-4.51,1.75-4.51Z"/>
            <polygon class="cls-3" points="77.76 12.75 78.37 12.75 78.37 17.25 77.76 17.25 77.76 12.75"/>
            <path class="cls-3" d="M79.57,16.74c.06.02.15.04.23.06s.23.03.41.03.34-.03.47-.08c.15-.05.26-.14.37-.23.09-.1.18-.22.23-.37s.07-.29.08-.46c0-.15-.02-.28-.05-.41s-.08-.25-.17-.36c-.07-.09-.17-.18-.28-.24s-.25-.09-.41-.09c-.15,0-.28.03-.39.07-.12.05-.2.12-.27.2s-.13.18-.17.28c-.04.12-.05.22-.05.34v1.25h-.01.01ZM78.97,12.75h.61v1.71s.07-.08.13-.14c.06-.05.13-.09.21-.14s.18-.07.28-.1c.1-.03.22-.04.36-.04.23,0,.44.04.62.13s.32.2.45.35.22.32.27.51c.06.2.09.41.09.64,0,.25-.04.48-.13.68-.08.21-.21.39-.36.53-.16.15-.34.27-.56.35-.22.08-.46.13-.72.13s-.49-.02-.71-.06c-.22-.04-.4-.09-.53-.15v-4.4h-.01Z"/>
            <path class="cls-3" d="M82.47,14.12h.61v3.14h-.61v-3.14ZM82.42,12.87h.68v.68h-.68v-.68Z"/>
            <polygon class="cls-3" points="83.71 12.75 84.31 12.75 84.31 17.25 83.71 17.25 83.71 12.75"/>
            <g>
              <path class="cls-3" d="M86.87,15.78s-.05-.01-.1-.02-.12-.01-.18-.02c-.07,0-.14,0-.22-.01h-.22c-.17,0-.3.02-.42.06-.1.04-.19.09-.25.15s-.1.13-.13.2-.03.15-.03.21c0,.17.06.3.18.39.12.08.27.13.48.13.12,0,.23-.02.34-.06.1-.04.2-.09.28-.17.08-.06.15-.15.2-.23.04-.09.07-.18.07-.27v-.34h0ZM86.87,16.88c-.12.16-.27.27-.46.36-.19.07-.39.12-.59.12-.13,0-.26-.02-.39-.05-.13-.03-.25-.09-.36-.17s-.19-.18-.25-.3c-.06-.13-.09-.27-.09-.46,0-.34.12-.61.36-.81.23-.2.58-.3,1.02-.3h.23c.07,0,.16,0,.23.01.07,0,.14,0,.19.01.05,0,.09,0,.12.01v-.12c0-.23-.07-.4-.22-.5-.15-.1-.34-.15-.58-.15s-.43.03-.57.09c-.14.06-.25.13-.36.2l-.28-.41s.12-.09.2-.14c.07-.04.17-.08.27-.13s.22-.07.36-.09c.13-.02.28-.04.45-.04.41,0,.72.09.95.29s.35.47.35.83v2.11h-.57v-.37h-.01Z"/>
              <path class="cls-3" d="M90.31,14.81s-.13-.08-.25-.15c-.13-.06-.29-.09-.52-.09-.15,0-.28.02-.41.07-.13.05-.23.13-.32.23s-.17.22-.22.37-.07.3-.07.48c0,.15.02.28.05.43.04.13.09.25.17.35s.17.18.28.23c.12.05.25.08.41.08s.29-.02.41-.08c.12-.06.2-.13.27-.22.07-.08.12-.18.16-.28.03-.1.05-.2.05-.29v-1.12h0ZM90.31,16.86s-.06.07-.12.13c-.05.06-.12.12-.21.17-.08.05-.18.1-.3.15s-.25.06-.4.06c-.2,0-.39-.04-.56-.12s-.32-.18-.44-.32c-.13-.14-.22-.3-.29-.51-.07-.2-.1-.43-.1-.67,0-.29.05-.55.16-.77.1-.22.23-.39.4-.53.16-.14.34-.23.51-.3.19-.06.37-.09.53-.09.23,0,.41.02.53.07.13.05.22.09.29.13v-1.49h.61v4.51h-.6l-.02-.39h0Z"/>
              <path class="cls-1" d="M108.58.82h-13.59v8.23c2.34-1.36,5.05-2.15,7.95-2.15,3.1,0,6,.9,8.44,2.44V3.61c0-1.54-1.26-2.8-2.8-2.8"/>
              <path class="cls-7" d="M100.61,8.62c-2.05,0-3.97.57-5.62,1.54v4.25c0,1.54,1.25,2.8,2.8,2.8h13.58c-1.12-4.92-5.51-8.59-10.76-8.59"/>
            </g>
          </g>
        </g>
      </g>
      <g id="Layer_1-4" data-name="Layer_1">
        <g id="Layer_1-2-2" data-name="Layer_1-2">
          <path class="cls-2" d="M37.51,17.34c6.19,0,6.89-.68,6.89-6.89v-2.75c0-6.2-.68-6.89-6.89-6.89h-2.75c-6.19,0-6.89.68-6.89,6.89v2.75c0,6.2.68,6.89,6.89,6.89h2.75ZM38.2,13.89l-4.13,1.38V4.24l4.13-1.38v11.03Z"/>
          <path class="cls-2" d="M7.22,11.8l.88-.3v3.76h-.88v-3.47h0ZM5.46,15.27h.88v-5.51h-.88v5.51ZM3.71,11.51h.88v3.76h-.88v-.55c-.24.43-.68.64-1.34.64-1,0-1.57-.57-1.57-1.98s.57-1.98,1.57-1.98,1.1.21,1.34.64v-.55h0ZM3.71,13.29c0-.74-.26-1.02-1.02-1.02s-1,.29-1,1.02v.19c0,.74.26,1.02,1,1.02s1.02-.29,1.02-1.02v-.19ZM22.89,11.51h.85v3.76h-.85v-.55c-.26.43-.72.64-1.35.64-1,0-1.55-.57-1.55-1.98s.55-1.98,1.55-1.98,1.1.21,1.35.64v-.55h0ZM22.89,13.29c-.02-.74-.29-1.02-1.02-1.02s-1.02.29-1.02,1.02v.19c0,.74.29,1.02,1.02,1.02s1-.29,1.02-1.02v-.19ZM17.82,11.41c-.62,0-1.02.24-1.22.68-.19-.46-.6-.68-1.22-.68s-.88.17-1.1.5v-.41h-.85v3.76h.85v-2.22c0-.57.21-.79.79-.79s.77.21.77.79v2.22h.88v-2.22c0-.57.19-.79.77-.79s.79.21.79.79v2.22h.85v-2.55c0-.84-.48-1.31-1.3-1.31h0v.02h0ZM7.22,11.08h.88v-.85h-.88v.85ZM11.11,11.41c-.6,0-1.02.21-1.26.6v-.5h-.88v3.76h.88v-2.05c0-.68.24-.96.93-.96s.96.26.96.96v2.05h.85v-2.38c0-.96-.52-1.47-1.47-1.47h0ZM13.58,8.03c-.65,0-1.01-.18-1.01-1.01s.35-1.01,1.01-1.01,1.01.18,1.01,1.01-.35,1.01-1.01,1.01ZM17.34,4.77v2.75h-.9c-.73,0-.93-.25-.98-.8-.11-1.22-.96-1.57-1.88-1.57s-1.89.41-1.89,1.87.02.35.04.5h-5.4c-.68,0-.96-.1-.96-.96v-3.71h-.88v4.01c0,1.11.49,1.51,1.47,1.51h6.16c.35.38.89.51,1.45.51s1.33-.19,1.66-.81c.23.2.58.3,1.2.3h1.78v-3.6h-.88v.02-.02h0ZM17.34,3.3v.88h.88v-.88s-.88,0-.88,0ZM20.45,9.97v-.39h-.31c-.21,0-.37-.07-.37-.25s.11-.19.32-.19h.18v-.39h-.3c-.41,0-.61.19-.61.47s.06.28.14.36h-.31v.4h1.26v-.02h0ZM22.02,8.38V2.86h-.88v4.66h-2.33v.85h3.21ZM22.87,2.86v5.51h.88V2.86h-.88ZM4.07,8.38v-.85h-.66c-.74,0-1.18-.27-1.18-.81s.24-.49.71-.49h.55v-.85h-.81c-.8,0-1.32.48-1.32,1.18s.1.72.33.98h-.88v.85h3.27,0ZM19.4,3.16l.88-.3v4.07h-.88v-3.77h0Z"/>
        </g>
      </g>
    </g>
  </g>
</svg>