<?xml version="1.0" encoding="UTF-8"?>
<svg xmlns="http://www.w3.org/2000/svg" width="1010" height="49" version="1.1" xmlns:xlink="http://www.w3.org/1999/xlink" viewBox="0 0 1010 49">
  <defs>
    <style>
      .cls-1 {
        fill: #ed1d24;
      }

      .cls-2 {
        fill: #f5b335;
      }

      .cls-3 {
        fill: #002134;
      }

      .cls-4 {
        fill: #fff;
      }

      .cls-5 {
        fill: #ffe300;
      }

      .cls-6 {
        fill: #7a6e66;
      }

      .cls-7 {
        fill: none;
      }

      .cls-8 {
        fill: #221afb;
      }

      .cls-9 {
        clip-path: url(#clippath-1);
      }

      .cls-10 {
        fill: #006a56;
      }

      .cls-11 {
        fill: #230871;
      }

      .cls-12 {
        fill: #ce0e2d;
      }

      .cls-13 {
        fill: #747c91;
      }

      .cls-14 {
        fill: #8ac63f;
      }

      .cls-15 {
        fill: url(#linear-gradient);
      }

      .cls-16 {
        clip-path: url(#clippath);
      }

      .cls-17 {
        fill: #00af9a;
      }
    </style>
    <clipPath id="clippath">
      <path class="cls-7" d="M371.39875,7.90259c2.34595,1.31284,4.41213,3.09925,6.02632,5.29446,1.85094-2.19521,4.15383-3.96007,6.56438-5.29446h-12.6122.02151ZM378.07071,14.1225c1.11918,1.74332,1.95856,3.72349,2.45357,5.9187.88243-2.71173,2.69032-4.88553,5.35912-6.49971l.58112-.34443.58112.34443c2.69032,1.61419,4.47669,3.78799,5.35912,6.49971.49501-2.21675,1.31288-4.17538,2.45357-5.9187-2.79794-3.40047-6.47827-5.35909-8.39377-6.21991-1.9155.86082-5.59587,2.84086-8.39377,6.21991M388.9396,7.90259c2.41051,1.33439,4.71344,3.09925,6.56438,5.29446,1.6357-2.19521,3.72339-3.98162,6.02632-5.29446h-12.6122.02151ZM396.17117,14.03646c-.23675.32289-.43044.64565-.64568.96854-1.61419,2.69032-2.47508,5.85407-2.47508,9.36225v12.37546s-.06456.12913-.12913.12913h-12.93503s-.12913-.0645-.12913-.12913v-12.37546c0-3.50818-.86089-6.69348-2.47508-9.36225-.21524-.34443-.40893-.66719-.64568-.96854-1.85094-2.60427-4.47669-4.6919-7.85571-6.13387v5.9832c2.43206,1.61419,4.04625,3.7449,4.88562,6.30609,0,0,.60263,1.61419.60263,4.04625v6.65052c0,2.97012-1.24831,5.63889-3.29294,7.16691h30.75568c-2.04463-1.52802-3.29294-4.21833-3.29294-7.16691v-6.65052c0-2.43206.62414-4.04625.62414-4.04625.81787-2.56119,2.45357-4.67035,4.88562-6.30609v-5.9832c-3.37905,1.44197-6.00477,3.50818-7.85571,6.13387h-.02158Z"/>
    </clipPath>
    <linearGradient id="linear-gradient" x1="-586.91784" y1="726.09444" x2="-586.14303" y2="726.09444" gradientTransform="translate(28733.20277 -22876.90601) rotate(-90) scale(39.04 -39.04)" gradientUnits="userSpaceOnUse">
      <stop offset="0" stop-color="#8ac640"/>
      <stop offset=".15" stop-color="#8ac640"/>
      <stop offset=".21" stop-color="#78ba42"/>
      <stop offset=".47" stop-color="#378f4d"/>
      <stop offset=".65" stop-color="#0f7453"/>
      <stop offset=".75" stop-color="#006a56"/>
      <stop offset="1" stop-color="#006a56"/>
    </linearGradient>
    <clipPath id="clippath-1">
      <rect class="cls-7" x="569.55864" y="6.67611" width="109.89317" height="35.4096"/>
    </clipPath>
  </defs>
  <!-- Generator: Adobe Illustrator 28.6.0, SVG Export Plug-In . SVG Version: 1.2.0 Build 709)  -->
  <g>
    <g id="Layer_1">
      <g>
        <g id="Layer_1-2" data-name="Layer_1">
          <g id="_x39_u7Tlw">
            <g>
              <path class="cls-8" d="M528.96518,21.20346c1.11918.64568,2.21682,1.29135,3.31446,1.91551.81787.4735,1.61419.92547,2.43206,1.39896,1.46352.8609,2.32444,2.15225,2.60424,3.83101.02151.1937.02151.36588.02151.55959v5.61738c0,1.26983-.49501,2.36748-1.29136,3.31447-.43044.51654-.96851.88242-1.54962,1.22678-1.42049.81785-2.84099,1.63571-4.26145,2.45357-.92545.53806-1.93701.79634-3.01314.73177-.79632-.04305-1.52811-.23675-2.21682-.64567-1.82943-1.0546-3.65882-2.10921-5.46671-3.16381-.25826-.15066-.4735-.1937-.7533,0-1.78637,1.05461-3.57275,2.06616-5.35912,3.09924-.92545.53806-1.9155.77481-2.99163.71024-.92545-.04305-1.76486-.36588-2.56119-.81785-1.44201-.83938-2.90555-1.65724-4.32602-2.51814-1.70027-1.01156-2.60424-2.51814-2.62575-4.51973-.02151-1.78637,0-3.57274,0-5.35911,0-1.26983.45199-2.389,1.24831-3.37904.43044-.51654.947-.90395,1.50657-1.22678,1.78637-1.03308,3.57275-2.06616,5.35912-3.09924.19369-.10761.23675-.23675.23675-.45197,0-2.13073-.04305-4.23994,0-6.37067.04305-1.9155.86089-3.42208,2.49662-4.43364,1.31288-.81786,2.64726-1.54962,3.98168-2.30291.34437-.1937.71025-.40893,1.05462-.58111.55957-.30132,1.18375-.43045,1.80788-.49502,1.18375-.10761,2.25987.17218,3.27143.75329,1.42049.81786,2.84099,1.65723,4.26145,2.45357,1.1622.6672,2.00158,1.61419,2.47508,2.8625.21524.53806.32282,1.11917.32282,1.70028v6.73655h.02151ZM519.10785,34.91332h.06456c1.80788-1.03308,3.61577-2.04464,5.38063-3.12077.99005-.58111,1.50657-1.48505,1.50657-2.66879v-5.96174c0-.1937-.06456-.32284-.23675-.40893-1.72181-.99004-3.42207-2.00159-5.14388-2.97011-1.03307-.58111-2.1092-.55959-3.1423.02152-1.70027.96851-3.37905,1.95855-5.07932,2.90554-.19369.10761-.2798.23675-.2798.45197v5.85413c0,1.24831.58112,2.17378,1.6357,2.81945.4735.27979.947.55959,1.42049.81786,1.29136.73177,2.56119,1.48505,3.85252,2.21682l.02158.04304ZM509.27208,24.53946c-.12913.06457-.21524.10761-.30131.15066-1.29136.75329-2.5827,1.50658-3.87406,2.23834-.86089.49502-1.31288,1.22678-1.31288,2.21682v5.14389c0,.94699.43044,1.67876,1.24831,2.15225,1.50657.88242,3.01314,1.76485,4.54126,2.60423.7533.43045,1.52811.43045,2.28138.02152,1.39895-.77481,2.77639-1.59267,4.15383-2.389.06456-.04305.10762-.08609.17218-.12914-.08608-.06457-.15067-.10761-.19369-.12914-1.18375-.68872-2.34595-1.35592-3.52969-2.02312-.947-.53806-1.72181-1.26983-2.28138-2.1953-.60263-.99004-.86089-2.04464-.88243-3.20686v-4.43364l-.02151-.02152ZM522.05646,36.57055c.10762.06457.19369.12914.2798.1937,1.31288.75329,2.64726,1.5281,3.96014,2.28139.79632.45197,1.61419.47349,2.43206,0,1.52811-.8609,3.03468-1.74333,4.56277-2.62575.79632-.45197,1.18375-1.18374,1.20526-2.08769v-5.20845c0-.94699-.43044-1.65724-1.26982-2.13073-1.1622-.6672-2.32444-1.35592-3.50818-2.02312-.23675-.12914-.4735-.25827-.73176-.40893v4.56278c0,.27979,0,.55959-.06456.83938-.32282,1.89398-1.26982,3.35752-2.92707,4.34755-.71025.43045-1.46352.83938-2.17376,1.26983-.58112.32284-1.14069.6672-1.74332,1.01156l-.02154-.02153ZM512.1776,19.52471c.12913-.06457.21524-.10761.2798-.15066,1.20526-.68872,2.41051-1.39896,3.61577-2.06616,2.00158-1.11917,4.04625-1.09765,6.04783,0,1.2268.6672,2.43206,1.39896,3.63731,2.08769.08608.04305.15067.08609.25826.12914v-5.12236c0-.10761,0-.23675-.04305-.34436-.15067-.71024-.58112-1.22678-1.20526-1.59267-1.48506-.8609-2.97012-1.70028-4.45518-2.56118-.81787-.4735-1.65724-.45197-2.49662,0-.45199.25827-.88243.51654-1.31288.75329-1.07613.62415-2.15225,1.22678-3.20687,1.85094-.7533.45197-1.1622,1.14069-1.1622,2.04464v4.95018l.04309.02152Z"/>
              <path class="cls-8" d="M454.99225,22.92527c0-.40893,0-.81786-.02151-1.22678,0-.1937-.04305-.36588-.08608-.53806-.23675-.73177-1.03307-.96851-1.67875-.53806-.06456.04305-.12913.10761-.21524.17218-.2798-.23675-.55957-.4735-.88243-.73177.34437-.36588.7533-.55959,1.20526-.6672.53806-.10761,1.07613-.06457,1.57114.17218.7533.34436,1.1622.94699,1.26982,1.76485.04305.36588.04305.73177.04305,1.07613,0,.45197.06456.51654.51655.53806h.15067v.99003c-.23675.08609-11.60064.10761-12.16022.02152v-3.52969c-.92545-.27979-1.67875.25827-1.70027,1.18374v2.34596h-3.29294c-1.24831,0-2.19531-.96851-2.23833-2.23834,0-.58111.12913-1.11917.49501-1.57114.02151-.04305.04305-.06457.08608-.08609,0,0,.04305,0,.08608-.04305.2798.21523.55957.45197.83938.68872-.08608.21523-.19369.40893-.23675.60263-.10762.51654-.02151.99004.38739,1.3344.12913.12914.34437.23675.51655.23675.68874.02152,1.39895,0,2.13074,0v-.34436c0-.4735,0-.94699.04305-1.39896.15067-1.01156.947-1.74332,1.95856-1.82941.66719-.04305,1.33439-.04305,2.00158-.04305.04305,0,.08608,0,.15067.02152v3.57274h4.15383c-.02151-.51654-.02151-1.01156-.08608-1.50658-.04305-.4735-.36588-.92547-.947-1.01156-.2798-.04305-.53806.02152-.77481.1937-.06456.04305-.12913.10761-.21524.1937-.2798-.23675-.58112-.4735-.88243-.73177.32282-.36588.71025-.55959,1.14069-.64568.71025-.15066,1.39895-.06457,2.02312.38741.60263.43045.88243,1.03308.92545,1.76485v.96851c0,.27979.15067.43045.40893.45197h3.31446Z"/>
              <path class="cls-8" d="M487.85716,22.8607c.23675.08609,1.26982.10761,1.65724.04305-.04305-.08609-.08608-.17218-.10762-.25827-.32282-.83938-.25826-1.63571.25826-2.389.23675-.34436.55957-.58111.947-.73177.60263-.23675,1.2268-.25827,1.82943-.04305.7533.27979,1.24831.79633,1.42049,1.59267.17218.77481.06456,1.48505-.45199,2.10921-.40893.51654-.96851.79633-1.61419.79633h-3.59426c-.30131,0-.53806-.12914-.73176-.34436-.04305-.04305-.08608-.08609-.15067-.17218-.49501.51654-1.11918.51654-1.76486.51654h-4.778c-.23675,0-.45199,0-.64568-.15066-.23675,1.42049-.92545,2.04464-2.36749,2.17378v-1.01156s.10762-.04305.17218-.06457c.55957-.12914.90394-.53806.92545-1.14069v-4.04624h1.24831v2.92707c0,.12914.08608.23675.23675.23675h1.31288v-3.03468c.38739-.02152.73176,0,1.11918,0v1.0546c.19369-.08609.2798-.21523.38739-.32284.34437-.36588.73176-.64568,1.20526-.81786.79632-.32284,1.61419-.40893,2.41051-.04305.73176.32284,1.14069.92547,1.26982,1.7218.06456.40893,0,.79633-.15067,1.18374-.02151.06457-.04305.10761-.06456.1937l.02161.02152ZM483.05762,22.90374s.04305.04305.06456.04305h2.79794c.45199,0,.79632-.32284.90394-.77481.08608-.40893,0-.77481-.21524-1.11917-.23675-.34436-.58112-.4735-.96851-.45197-.43044.02152-.83938.1937-1.20526.45197-.62414.45197-1.03307,1.07613-1.35593,1.74332v.10761h-.02151ZM490.48288,21.65544c0,.34436.06456.55959.17218.77481.34437.6672,1.42049.6672,1.78637.08609.32282-.49502.36588-1.03308.08608-1.54962-.34437-.6672-1.20526-.77481-1.72181-.25827-.25826.25827-.34437.58111-.32282.94699Z"/>
              <path class="cls-8" d="M469.92889,20.01973c.32282.25827.60263.49502.88243.73177-.06456.15066-.12913.25827-.17218.40893-.19369.55959-.12913,1.09765.30131,1.5281.12913.12914.34437.23675.51655.25827.55957.02152,1.14069,0,1.74332,0-.04305-.10761-.08608-.17218-.10762-.25827-.34437-.94699-.2798-1.82941.40893-2.62575.30131-.34436.66719-.53806,1.11918-.64568.81787-.17218,1.59268-.06457,2.23833.49502.34437.30132.58112.68872.66719,1.11917.17218.77481.08608,1.50658-.43044,2.15225-.40893.51654-.96851.79633-1.61419.81786h-4.04625c-1.09764,0-2.04463-.94699-2.1092-2.04464-.04305-.58111.02151-1.11917.36588-1.61419.06456-.10761.15067-.1937.25826-.32284h-.02151ZM474.12578,21.67696c-.02151.25827.06456.51654.19369.77481.32282.55959,1.1622.68872,1.6357.23675.45199-.43045.53806-1.26983.17218-1.80789-.25826-.38741-.71025-.55959-1.1622-.45197-.53806.12914-.86089.58111-.86089,1.24831h.02151Z"/>
              <path class="cls-8" d="M471.8444,34.71961s-.04305.15066-.06456.21523h-1.20526v-7.08091h1.2268v2.5827s.12913-.06457.17218-.08609c.7533-.51654,1.82943-.36588,2.51813.15066.68874.53806,1.07613,1.22678,1.05462,2.10921,0,1.31287-.96851,2.23834-1.98007,2.43205-.53806.10761-1.05462.08609-1.52811-.23675-.06456-.04305-.12913-.06457-.19369-.10761l-.00003.02152ZM474.31947,32.43823c-.04305-.12914-.08608-.38741-.19369-.60263-.38739-.79633-1.48506-.8609-1.95856-.27979-.40893.49502-.4735,1.0546-.25826,1.65723.34437.92547,1.46352.94699,1.98007.45197.30131-.30132.40893-.68872.43044-1.22678Z"/>
              <path class="cls-8" d="M462.56819,22.94679h1.18375c.23675,0,.40893-.10761.45199-.34436.04305-.15066.06456-.32284.06456-.49502v-4.45516h1.1622s.02151.15066.02151.23675v4.43364c0,.30132-.04305.60263-.15067.88242-.23675.51654-.66719.79633-1.2268.81786h-1.20526c-.12913,0-.2798-.06457-.43044-.10761-.08608.62415-.32282,1.20526-.83938,1.63571-.43044.34436-.947.49502-1.52811.49502v-1.01156s.15067-.04305.23675-.06457c.40893-.08609.66719-.34436.77481-.73177.06456-.21523.10762-.4735.10762-.71024v-3.7234h1.18375v2.66879c0,.17218,0,.34436.15067.49502l.04305-.02152Z"/>
              <path class="cls-8" d="M479.8938,30.45815s.04305-.15066.06456-.23675h1.1622c.06456.23675.08608,3.98167.04305,4.71344h-1.20526c0-.08609-.04305-.15066-.06456-.21523h-.08608c-1.44201,1.01156-3.63731-.17218-3.63731-2.10921,0-1.01156.40893-1.76485,1.26982-2.25987.77481-.43045,1.54962-.4735,2.32444.02152.02151,0,.06456.04305.10762.06457l.02151.02152ZM477.39721,32.58888h.02151v.21523c.04305.55959.40893,1.01156.947,1.14069.53806.12914,1.07613-.06457,1.35593-.55959.25826-.43045.25826-.88242.12913-1.35592-.15067-.49502-.62414-.8609-1.14069-.8609-.55957,0-1.01156.27979-1.20526.79633-.06456.1937-.08608.40893-.12913.60263l.02151.02152Z"/>
              <path class="cls-8" d="M442.61679,30.47968s.04305-.15066.04305-.23675h1.18375v4.69191h-1.1622s-.04305-.12914-.08608-.23675c-.64568.49502-1.37744.53806-2.1092.25827-.73176-.25827-1.24831-.79633-1.48506-1.54962-.32282-1.01156-.12913-1.93703.64568-2.69032.38739-.38741.88243-.60263,1.44201-.6672.55957-.06457,1.03307.08609,1.50657.40893l.02148.02152ZM442.68136,32.58888c-.06456-.23675-.08608-.4735-.17218-.68872-.17218-.45197-.53806-.68872-.99005-.73177s-.83938.10761-1.11918.49502c-.32282.4735-.36588.99004-.17218,1.50658.17218.4735.49501.73177.99005.79633.53806.06457.96851-.10761,1.2268-.60263.12913-.23675.19369-.49502.21524-.77481h.02151Z"/>
              <path class="cls-8" d="M454.34657,30.41511s.02151-.10761.04305-.1937h1.1622c.06456.21523.08608,4.21842.02151,4.69191h-1.18375s-.04305-.12914-.06456-.1937h-.08608c-1.2268.88242-3.24989.10761-3.57275-1.67876-.17218-.90395.04305-1.7218.73176-2.34596.60263-.55959,1.33439-.79633,2.15225-.62415.25826.06457.49501.1937.77481.30132l.02154.04304ZM453.14131,33.98785c.55957,0,.96851-.30132,1.1622-.81786.12913-.38741.12913-.77481,0-1.16222-.17218-.4735-.49501-.77481-.99005-.81786-.49501-.06457-.92545.10761-1.20526.55959-.19369.30132-.25826.6672-.21524,1.01156.08608.88242.66719,1.24831,1.26982,1.22678h-.02148Z"/>
              <path class="cls-8" d="M459.42589,27.85393h1.18375v2.53966c.08608-.04305.15067-.06457.19369-.10761.88243-.60263,2.47508-.10761,2.77639,1.14069.06456.27979.10762.58111.12913.8609v2.64727h-1.20526v-2.60423c0-.1937-.02151-.36588-.06456-.55959-.06456-.34436-.30131-.53806-.62414-.60263-.53806-.10761-.99005.1937-1.07613.73177-.04305.21523-.06456.43045-.06456.64568v2.389h-1.18375v-7.08091h-.06456Z"/>
              <path class="cls-8" d="M487.94324,27.85393h1.18375v3.98167s.17218-.10761.21524-.15066c.40893-.40893.83938-.81786,1.2268-1.22678.17218-.17218.34437-.25827.60263-.25827.40893,0,.79632,0,1.24831.06457-.64568.64568-1.31288,1.26983-1.98007,1.93703.71025.90395,1.42049,1.78637,2.17376,2.75488h-.79632c-.23675,0-.51655.04305-.71025-.04305-.19369-.08609-.30131-.32284-.43044-.51654-.34437-.45197-.71025-.90395-1.07613-1.37744-.12913.12914-.2798.25827-.38739.38741-.04305.06457-.06456.17218-.06456.25827v1.24831h-1.18375v-7.08091l-.02158.02152Z"/>
              <path class="cls-8" d="M482.41193,30.22141h1.07613c.06456,0,.12913.08609.17218.12914.23675-.08609.4735-.1937.73176-.25827.83938-.1937,2.04463.32284,2.23833,1.57114,0,.15066.04305.27979.04305.43045v2.77641s0,.04305-.02151.08609h-1.20526v-2.62575c0-.1937-.02151-.38741-.06456-.58111-.06456-.27979-.25826-.43045-.53806-.51654-.58112-.15066-1.03307.12914-1.1622.71024-.04305.1937-.06456.38741-.06456.58111v2.43205h-1.20526v-4.71344l-.00003-.02152Z"/>
              <path class="cls-8" d="M455.81012,37.45298v-.96851c.23675-.12914.49501-.1937.68874-.34436.36588-.27979.45199-.6672.45199-1.11917v-4.778h1.20526v4.97171c0,1.11917-.88243,2.10921-2.1092,2.23834h-.25826.02148Z"/>
              <path class="cls-8" d="M445.09187,27.85393h1.20526v7.08091h-1.20526v-7.08091Z"/>
              <path class="cls-8" d="M466.54984,17.63072h1.1622c.06456.21523.08608,5.9187,0,6.37067h-1.18375v-6.37067h.02154Z"/>
              <path class="cls-8" d="M459.59807,23.97987h-1.14069c-.06456-.21523-.08608-5.87565-.02151-6.34915h1.1622v6.34915Z"/>
              <path class="cls-8" d="M448.68613,34.95636h-1.2268v-2.77641c0-.27979.04305-.58111.12913-.8609.17218-.60263.58112-.96851,1.18375-1.11917.4735-.10761.947-.15066,1.46352-.04305v1.03308h-.83938c-.4735.06457-.68874.30132-.68874.79633v2.92706l-.02148.04305Z"/>
              <path class="cls-8" d="M464.95719,30.24293h1.18375v4.69191h-1.1622c-.06456-.21523-.08608-4.21842-.02151-4.69191h-.00003Z"/>
              <path class="cls-8" d="M465.53828,29.3605c-.45199,0-.77481-.30132-.7533-.75329,0-.40893.32282-.73177.7533-.75329.38739,0,.77481.32284.77481.75329,0,.38741-.34437.81786-.77481.75329Z"/>
              <path class="cls-8" d="M457.55344,29.3605c-.43044.06457-.79632-.38741-.77481-.75329.02151-.43045.32282-.75329.7533-.75329.45199,0,.77481.30132.77481.75329,0,.4735-.2798.75329-.7533.75329Z"/>
              <path class="cls-8" d="M439.86191,26.43344c-.40893,0-.71025-.30132-.71025-.71024s.30131-.68872.71025-.68872c.38739,0,.68874.30132.68874.68872s-.32282.71024-.71025.71024h.02151Z"/>
              <path class="cls-8" d="M442.55223,25.7232c0,.40893-.30131.71024-.71025.71024-.38739,0-.71025-.30132-.71025-.71024,0-.38741.30131-.68872.68874-.68872.40893,0,.71025.27979.73176.68872Z"/>
              <path class="cls-8" d="M473.26486,18.49163c0,.40893-.30131.6672-.73176.64568-.38739,0-.66719-.32284-.64568-.71024,0-.38741.32282-.6672.71025-.68872.38739,0,.73176.32284.68874.75329h-.02154Z"/>
              <path class="cls-8" d="M454.79856,25.7232c.06456.36588-.34437.73177-.68874.71024-.38739-.02152-.71025-.32284-.71025-.71024s.30131-.6672.68874-.68872c.38739-.02152.7533.36588.68874.68872h.02151Z"/>
            </g>
          </g>
          <g id="Layer_1-2">
            <path class="cls-14" d="M391.95274,35.62356s-.06456.12914-.12913.12914h-10.67519s-.12913-.06457-.12913-.12914v-11.25628c0-4.84257,2.23833-7.89877,5.48825-9.87884,3.22838,1.95855,5.48825,5.03627,5.48825,9.87884v11.25628h-.04305ZM405.01693,6.78337h-37.08331s-.12913.06457-.12913.12914v7.48984s.02151.08609.06456.10761c3.20687,1.98007,5.40214,5.01475,5.40214,9.8358v6.52133c0,2.8625-1.31288,5.33759-3.20687,6.54285-.04305,0-.06456.06457-.06456.10761v1.50658s.06456.12914.12913.12914h32.69273s.12913-.06457.12913-.12914v-1.50658s-.02151-.08609-.06456-.10761c-1.9155-1.20526-3.20687-3.68035-3.20687-6.54285v-6.52133c0-4.778,2.19531-7.8342,5.40214-9.8358.04305-.02152.06456-.06457.06456-.10761v-7.46832s-.06456-.12914-.12913-.12914"/>
            <g class="cls-16">
              <rect class="cls-15" x="368.90213" y="7.90254" width="35.1463" height="30.17459"/>
            </g>
            <polygon class="cls-10" points="289.37638 39.1963 282.74744 27.78936 282.74744 39.1963 281.43456 39.1963 281.43456 25.18513 282.72591 25.18513 289.4194 36.69969 289.4194 25.18513 290.73228 25.18513 290.73228 39.1963 289.37638 39.1963"/>
            <g>
              <path class="cls-10" d="M293.5087,29.55421c0-3.14229,1.98007-4.71343,4.86408-4.71343,2.00158,0,3.40056.83938,4.11081,2.1953l-.99005.49502c-.58112-.96851-1.65724-1.50658-3.03468-1.50658-2.13074,0-3.63731,1.14069-3.63731,3.5297v5.14389c0,2.389,1.50657,3.5297,3.63731,3.5297,1.37744,0,2.47508-.53806,3.03468-1.50658l.99005.49502c-.68874,1.35592-2.1092,2.1953-4.11081,2.1953-2.84099,0-4.86408-1.57114-4.86408-4.71344v-5.14389Z"/>
              <path class="cls-10" d="M309.73668,31.57732c1.67875,0,2.60424-.92547,2.60424-2.71184,0-1.37744-.90394-2.51814-2.5827-2.51814h-3.72339v5.22998h3.70188-.00003ZM306.0348,38.01256h4.06776c1.67875,0,2.60424-.92547,2.60424-2.71184,0-1.37744-.90394-2.51814-2.5827-2.51814h-4.08927v5.22998h-.00003ZM310.01648,25.18513c2.34595,0,3.65882,1.63571,3.65882,3.55122,0,1.7218-.64568,2.8625-1.85094,3.40056,1.44201.49502,2.21682,1.78637,2.21682,3.29295,0,2.45357-1.31288,3.78797-3.68037,3.78797h-5.63889v-14.01117h5.29456v-.02152Z"/>
            </g>
            <polygon class="cls-10" points="360.9388 39.1963 360.9388 25.16361 362.29469 24.60402 362.29469 39.1963 360.9388 39.1963"/>
            <g>
              <path class="cls-10" d="M326.91165,41.56378c0,.43045-.2798.83938-.81787.83938-.49501,0-.83938-.34436-.83938-.83938s.36588-.81785.83938-.81785c.49501,0,.81787.32284.81787.81785"/>
              <path class="cls-10" d="M324.28593,41.56378c0,.43045-.30131.83938-.81787.83938s-.83938-.34436-.83938-.83938.36588-.81785.83938-.81785c.49501,0,.81787.32284.81787.81785"/>
              <path class="cls-10" d="M352.43737,26.41192l-.30131-.71024c-.12913-.36588,0-.71024.36588-.8609,0,0,.36588-.21523.7533.06457l.10762-.43045c-.34437-.25827-.79632-.30132-1.18375-.10761-.71025.30132-.96851.90395-.68874,1.59267l.30131.71024-.40893.17218-.2798.68872,2.84099-1.18374v-.58111l-1.52811.62415h0l.02154.02153Z"/>
              <path class="cls-10" d="M356.76342,25.16361v11.10563c0,.99004-.81787,1.80789-1.80788,1.80789h-.99005v-10.43843l-1.35593.55959v9.85732h-1.03307l-.43044,1.11917h3.91712c1.72181,0,3.09925-1.37744,3.09925-3.09925v-11.47151l-1.35593.55959h-.04305Z"/>
              <path class="cls-10" d="M344.15122,38.07713h-.7533c-1.48506-.10761-2.62575-.79633-2.62575-2.51814,0-.60263.10762-1.18374.32282-1.54962.49501-.81786,1.29136-1.20526,2.28138-1.20526.23675,0,.43044.02152.66719.06457.04305,0,.06456.02152.10762.02152v5.18693h.00003ZM343.97903,27.66022c-2.06618,0-3.50818.8609-4.23994,2.25987l1.01156.51654c.58112-.99004,1.72181-1.54962,3.12076-1.54962,2.19531,0,3.72339,1.18374,3.72339,3.68035v4.21842c0,.71024-.58112,1.29135-1.29136,1.29135h-.88243v-5.85413c-.38739-.21523-.83938-.36588-1.31288-.43045-.25826-.04305-.49501-.06457-.7533-.06457-.58112,0-1.14069.08609-1.61419.27979-.19369.06457-.36588.12914-.53806.23675l-.12913.06457h0c-.92545.60263-1.54962,1.67876-1.54962,3.18533v.08609c0,1.16222.34437,1.95855.92545,2.51814h-2.15225c-.99005,0-1.80788-.81786-1.80788-1.80789v-11.68673l-1.35593.55959v11.10563c0,.99004-.45199,1.80789-1.46352,1.80789-.60263,0-.99005-.68872-1.35593-1.31287l-4.00319-8.00638-.55957-1.11917s-.64568.38741-1.33439,1.35592c-.49501.68872-.92545,1.63571-1.01156,2.23834-.10762.75329-.36588,1.80789.79632,4.00319l1.61419,2.79793h-5.50976c-1.65724-.02152-2.21682-1.22678-2.21682-2.77641,0-1.03308.30131-1.95855.81787-2.81945l-.7533-.53806c-.68874,1.07613-1.07613,2.34596-1.07613,3.68035,0,2.04464,1.03307,3.55122,3.37905,3.55122h7.40376l-2.28138-3.9171s-.55957-1.16222-.7533-1.80789c-.12913-.43045-.25826-.94699-.23675-1.46353.04305-1.29135.86089-2.1953.86089-2.1953l3.18533,6.26306c.96851,1.87246,1.37744,3.07772,3.09925,3.07772.86089,0,1.6357-.45197,2.15225-1.16222.58112.68872,1.42049,1.16222,2.41051,1.16222h8.50139c1.2268,0,2.23833-.99004,2.23833-2.23834v-4.3906c0-3.29295-2.06618-4.90714-4.99324-4.90714"/>
            </g>
          </g>
          <g id="Layer_1-3">
            <g id="Layer_1-2-2" data-name="Layer_1-2">
              <g>
                <g>
                  <path class="cls-6" d="M183.78684,20.19191c.15066-.25827.60263-1.09765.60263-1.39896-.4735-.45197-1.11916-.53806-1.3344-.81786-.06456-.08609.83938-.6672.8609-.79633l.15066-.73177s-1.85094,1.26983-1.85094,2.30291v.08609c0,.4735,1.37744.90395,1.37744.90395-.27979.34436-2.81945,1.42049-3.37904,1.57114h0c1.35591.08609,2.81945.02152,3.59426-1.14069"/>
                  <path class="cls-6" d="M148.23162,20.32104c-.83938-1.14069-2.60422-2.43205-4.92866-5.01475,0,0-1.14069-1.14069-1.82941-1.89398l-.25827,1.70028c1.31288,1.78637,3.76644,4.26146,6.6935,6.71503.10762.08609-.08609.21523-.17218.25827h0c-1.82941.90395-6.49981,2.90554-8.26465,2.92706-2.73336.04305-1.70028-3.59426-1.46353-4.19689,0,0,.08609-.25827-.04305-.32284-.51654,1.20526-2.73336,6.41371,1.31288,6.37067,2.30291-.02152,7.18853-2.36748,8.86729-3.20686.55959-.27979.55959-1.11917.5811-1.50658-.02153-.75329-.10762-1.24831-.4735-1.82941"/>
                  <path class="cls-6" d="M203.35081,20.12734l-.08609-.10761c-.15066.55959-.32284,1.09765-.49503,1.65723.55959.79633,1.18375,1.65723,1.26982,2.64727-.06456.62415-1.67875.8609-2.94859.88242h0c-3.16381,0-2.84097-1.89398-2.81945-2.71184,0,.02152-1.48506,2.62575-3.72341,2.62575-2.5827-.12914-3.37904-1.74333-3.42207-2.8625-.02153-3.70188-3.20685-5.12236-5.94022-9.21164l-.08609-.12914s-.90394-1.42049-.99003-1.5281c.45197-.43045,11.47151-2.81945,13.40854-3.20686h0c.40893-.04305.77481,0,.4735,1.0546-.34437,1.14069-1.57115,4.21842-2.15225,5.66043,1.18375-1.89398,4.15385-8.3077,2.79794-8.20008-2.25987.40893-13.36549,2.94859-14.93664,3.59426-.15066.27979-.40893,2.28139-.27979,2.36748,2.32444,3.78797,5.68195,6.69351,6.60742,8.28617.17218.32284.25828.64568.21522.73177-.88243,2.06616-8.15704,3.65883-10.50299,3.65883-.38741,0-.88243,0-1.39897-.06457,3.07772-4.84257-4.45516-14.37705-6.15545-17.17498-.53806-.81786-.75329-1.18374-.75329-1.18374l-.64568,1.39896c.30131,1.59267,1.03309,12.46155,1.03309,13.21483,0,.92547.02153.92547.02153,2.00159,0,1.39896-2.62575,1.3344-2.94859,1.29135-.92547-.15066-1.35591-2.06616-1.39897-3.35751-3.09925,4.00319-6.62894,3.7234-6.65045,3.7234-3.37904-.38741-3.48666-4.84257-3.61579-7.51136-.02153-.88242,0-8.45835-.17218-10.8904,0,0-1.03309,1.48505-1.09765,1.7218,0,.73177.27979,7.89877.38741,9.96493.12913,2.17378-.43044,4.17537-2.32444,5.87565.08609-.10761.36588-.83938.38741-1.09765.36588-3.80949-4.21841-7.59745-7.16701-11.98805l-.08609-.12914s-1.26983-2.15225-1.5281-2.47509c-.15066.36588-.36588,1.26983-.45197,1.78637,3.83101,6.41371,8.75967,10.07254,8.47988,13.25788-.04304.62415-.12913.88242-.51654,1.26983-1.78637,1.5281-3.70188,2.49661-5.87566,3.40056h.32284c1.61419.06457,4.51973-.60263,5.78957-1.54962,1.82941-1.3344,3.14229-3.78797,3.4436-5.29454v-.08609.06457c.17218,2.02312.17218,4.49821,3.09925,5.22997,2.17378.53806,4.15385-.40893,5.48825-1.35592,1.09765-.77481,1.74332-1.54962,1.74332-1.50658,0,1.14069.25828,2.04464.81785,2.36748.947.58111,2.30291.32284,2.30291.32284,3.14229-.53806,2.66879-4.28298,2.66879-6.02631,0-2.17378-.73176-9.25469-.81785-10.28777,1.54962,2.47509,7.94182,10.95497,5.42367,14.89359-.79634-.12914-1.54962-.38741-1.98007-.83938,0-.02152-.92547-.68872-.92547-1.87246,0-1.59267,1.18375-3.14229,1.18375-3.14229-1.24831,1.0546-1.9155,3.27142-1.9155,4.04624,0,1.82942,1.14069,2.84097,2.62575,3.29295-.73176.83938-.83938,1.01156-1.31288,1.48505.79634-.40893,1.44201-.8609,1.98007-1.3344.45197.08609.92547.10761,1.37744.10761,6.06935,0,11.25629-2.34596,12.05261-4.26146-.04304,4.79952,4.67039,3.96015,4.67039,3.96015,1.67875-.27979,2.28138-1.09765,2.79794-1.78637h0c.77481,2.99163,5.35911,1.67876,5.42367,1.67876,1.03309-.25827,1.39897-2.47509,1.39897-3.31447-.02153-1.14069-.68872-2.1953-1.39897-3.07772"/>
                  <path class="cls-6" d="M199.26154,18.98664l-1.37744-1.01156-.81785,1.0546s-.08609.08609,0,.15066l1.39897.99004.77481-1.01156s.04304-.15066,0-.1937"/>
                  <path class="cls-6" d="M202.08099,29.10223l-1.37744-1.03308-.81785,1.0546s-.08609.08609,0,.15066l1.39897.99004.77481-1.01156s.04304-.12914,0-.17218"/>
                  <path class="cls-6" d="M168.82868,29.10223l-1.37744-1.01156-.81785,1.0546s-.08609.08609,0,.15066l1.39897.99004.77481-1.01156s.06456-.15066,0-.1937"/>
                  <path class="cls-6" d="M139.9024,40.83201c.25827,0,.49502,0,.79633-.04305.2798-.02152.51654-.08609.75329-.1937s.40893-.27979.55958-.47349c.12914-.1937.21522-.49502.21522-.8609s-.06456-.62415-.1937-.83938-.32284-.38741-.53806-.49502c-.21522-.12914-.45197-.1937-.73177-.25827s-.51654-.06457-.77481-.06457h-1.78637v3.2499h1.70028l.00002-.02152ZM139.94544,36.37685c.1937,0,.43045-.02152.62416-.08609s.40893-.12914.58111-.25827c.17218-.10761.32284-.27979.43045-.45197s.15066-.40893.15066-.6672c0-.30132-.04305-.51654-.15066-.68872s-.25827-.32284-.43045-.43045-.36588-.15066-.58111-.1937c-.1937-.02152-.43045-.06457-.62416-.06457h-1.74333v2.81945h1.74333v.04305-.02153ZM136.84619,32.33061h3.27143c.49502,0,.94699.06457,1.31288.1937s.6672.32284.92547.53806.43045.4735.53806.79633c.12914.30132.17218.60263.17218.94699,0,.32284-.04305.58111-.15066.83938s-.25827.4735-.40893.64568c-.15066.15066-.34436.32284-.51654.43045-.1937.10761-.36588.15066-.51654.1937.1937.02152.43045.08609.6672.17218s.4735.21523.68872.40893.38741.43045.53806.73177.1937.64568.1937,1.09765c0,.51654-.08609.94699-.2798,1.31288-.17218.34436-.45197.60263-.77481.83938s-.68872.36588-1.14069.45197-.92547.12913-1.42049.12913h-3.16381v-9.72818h.06456Z"/>
                  <path class="cls-6" d="M148.94185,38.85194s-.10762-.02152-.21522-.04305c-.10762,0-.25828-.02152-.38741-.04305-.15066,0-.32284,0-.4735-.02152h-.4735c-.36588,0-.6672.04305-.90394.12914s-.40893.1937-.53806.32284c-.12914.12914-.21522.27979-.2798.43045s-.06456.32284-.06456.45197c0,.36588.12914.64567.38741.83938.25827.17218.60263.27979,1.03308.27979.25828,0,.49503-.04305.73176-.12913s.43044-.1937.60263-.36588c.15066-.12913.32284-.32284.43044-.49502.10762-.1937.15066-.38741.15066-.58111v-.75329l.00002-.02152ZM148.96338,41.21942c-.25828.34436-.5811.58111-.99003.77481-.40893.15066-.83938.25827-1.26983.25827-.2798,0-.55958-.04305-.83938-.10761-.2798-.06457-.53806-.1937-.77481-.36588s-.40893-.38741-.53806-.64567c-.12914-.27979-.1937-.58111-.1937-.99003,0-.73177.25827-1.31287.77481-1.74333.49502-.43045,1.24831-.64568,2.19529-.64568h.49503c.17218,0,.34437,0,.49503.02152.15066,0,.30131,0,.40893.02152.10762,0,.19369,0,.25828.02152v-.25827c0-.49502-.15066-.8609-.4735-1.07613s-.73176-.32284-1.24831-.32284-.92547.06457-1.22678.1937-.53806.27979-.77481.43045l-.60263-.88242s.25827-.1937.43045-.30132c.15066-.08609.36588-.17218.58111-.27979s.4735-.15066.77481-.1937c.2798-.04305.60263-.08609.96851-.08609.88243,0,1.54962.1937,2.04463.62415s.75329,1.01156.75329,1.78637v4.54126h-1.22678v-.77481h-.02153Z"/>
                  <path class="cls-6" d="M151.48151,36.74273v-1.46353h1.26982l.04304,1.01156s.19369-.25827.32284-.38741c.12913-.12914.27979-.27979.4735-.38741.17218-.10761.38741-.1937.64568-.27979s.51654-.10761.83938-.10761c.88243,0,1.5281.25827,1.95856.77481.43044.51654.62416,1.22678.62416,2.08769v4.06776h-1.31288v-3.93862c0-.62415-.12913-1.09765-.40893-1.39896s-.64568-.43045-1.14069-.45197c-.38741,0-.68872.08609-.947.25827s-.45197.36588-.60263.60263c-.15066.25827-.27979.53806-.32284.83938-.06456.32284-.08609.62415-.08609.94699v3.14229h-1.31288v-5.29454h-.04304v-.02152Z"/>
                </g>
                <polygon class="cls-6" points="158.88527 32.33061 160.15509 32.33061 160.15509 38.05561 163.01759 35.25768 164.58874 35.2792 162.02756 37.75429 164.97615 42.01575 163.405 42.01575 161.10209 38.63671 160.15509 39.54066 160.15509 42.01575 158.88527 42.01575 158.88527 32.33061"/>
                <path class="cls-6" d="M172.89644,38.1417l-1.54962-4.26146-1.59266,4.26146h3.16381-.02153ZM170.65809,32.33061h1.42049l3.80948,9.70666h-1.54962l-.99003-2.71184h-4.00319l-.99003,2.71184h-1.46353l3.76644-9.70666Z"/>
                <polygon class="cls-6" points="176.42613 32.33061 177.73901 32.33061 177.73901 42.01575 176.42613 42.01575 176.42613 32.33061"/>
                <path class="cls-6" d="M180.32171,40.9181c.12913.04305.32284.08609.49503.12913s.49503.06457.88243.06457.73176-.06457,1.01156-.17218c.32284-.10761.55959-.30131.79634-.49502.19369-.21523.38741-.47349.49503-.79634s.15066-.62415.17218-.99004c0-.32284-.04304-.60263-.10762-.88242s-.17218-.53806-.36588-.77481c-.15066-.1937-.36588-.38741-.60263-.51654s-.53806-.1937-.88243-.1937c-.32284,0-.60263.06457-.83938.15066-.25828.10761-.43044.25827-.5811.43045s-.27979.38741-.36588.60263c-.08609.25827-.10762.4735-.10762.73177v2.69032h-.02153.02153l-.00003.02152ZM179.03036,32.33061h1.31288v3.68035s.15066-.17218.27979-.30132c.12913-.10761.27979-.1937.45197-.30132s.38741-.15066.60263-.21523c.21522-.06457.4735-.08609.77481-.08609.49503,0,.947.08609,1.3344.27979s.68872.43045.96851.75329.4735.68872.5811,1.09765c.12913.43045.19369.88242.19369,1.37744,0,.53806-.08609,1.03308-.27979,1.46353-.17218.45197-.45197.83938-.77481,1.1407-.34437.32284-.73176.58111-1.20526.75329s-.99003.27979-1.54962.27979-1.0546-.04305-1.5281-.12913c-.4735-.08609-.8609-.1937-1.14069-.32284v-9.46991s-.02153,0-.02151,0Z"/>
                <path class="cls-6" d="M186.56324,35.2792h1.31288v6.75808h-1.31288v-6.75808ZM186.45562,32.58888h1.46353v1.46353h-1.46353v-1.46353Z"/>
                <polygon class="cls-6" points="189.23203 32.33061 190.52338 32.33061 190.52338 42.01575 189.23203 42.01575 189.23203 32.33061"/>
                <g>
                  <path class="cls-6" d="M196.03316,38.85194s-.10762-.02152-.21522-.04305-.25828-.02152-.38741-.04305c-.15066,0-.30131,0-.4735-.02152h-.4735c-.36588,0-.64568.04305-.90394.12914-.21522.08609-.40893.1937-.53806.32284s-.21522.27979-.27979.43045-.06456.32284-.06456.45197c0,.36588.12913.64567.38741.83938.25828.17218.5811.27979,1.03309.27979.25828,0,.49503-.04305.73176-.12913.21522-.08609.43044-.1937.60263-.36588.17218-.12913.32284-.32284.43044-.49502.08609-.1937.15066-.38741.15066-.58111v-.73177h0v-.04304ZM196.03316,41.21942c-.25828.34436-.5811.58111-.99003.77481-.40893.15066-.83938.25827-1.26982.25827-.27979,0-.55959-.04305-.83938-.10761-.27979-.06457-.53806-.1937-.77481-.36588s-.40893-.38741-.53806-.64567c-.12913-.27979-.19369-.58111-.19369-.99003,0-.73177.25828-1.31287.77481-1.74333.49503-.43045,1.24831-.64568,2.19529-.64568h.49503c.15066,0,.34437,0,.49503.02152.15066,0,.30131,0,.40893.02152.10762,0,.19369,0,.25828.02152v-.25827c0-.49502-.15066-.8609-.4735-1.07613s-.73176-.32284-1.24831-.32284-.92547.06457-1.22678.1937-.53806.27979-.77481.43045l-.60263-.88242s.25828-.1937.43044-.30132c.15066-.08609.36588-.17218.5811-.27979s.4735-.15066.77481-.1937c.27979-.04305.60263-.08609.96851-.08609.88243,0,1.54962.1937,2.04463.62415s.75329,1.01156.75329,1.78637v4.54126h-1.22678v-.79634h-.02153v.02151Z"/>
                  <path class="cls-6" d="M203.4369,36.76425s-.27979-.17218-.53806-.32284c-.27979-.12914-.62416-.1937-1.11916-.1937-.32284,0-.60263.04305-.88243.15066-.27979.10761-.49503.27979-.68872.49502s-.36588.4735-.4735.79633-.15066.64568-.15066,1.03308c0,.32284.04304.60263.10762.92547.08609.27979.19369.53806.36588.75329s.36588.38741.60263.49502c.25828.10761.53806.17218.88243.17218s.62416-.04305.88243-.17218.43044-.27979.5811-.47349c.15066-.17218.25828-.38741.34437-.60263.06456-.21523.10762-.43045.10762-.62415v-2.41052h0l-.02154-.02152ZM203.4369,41.17637s-.12913.15066-.25828.27979c-.10762.12913-.25828.25827-.45197.36588-.17218.10761-.38741.21523-.64568.32284s-.53806.12913-.8609.12913c-.43044,0-.83938-.08609-1.20526-.25827s-.68872-.38741-.947-.68872c-.27979-.30131-.4735-.64567-.62416-1.09765-.15066-.43045-.21522-.92547-.21522-1.44201,0-.62415.10762-1.18374.34437-1.65724.21522-.4735.49503-.83938.8609-1.14069.34437-.30132.73176-.49502,1.09765-.64568.40893-.12914.79634-.1937,1.14069-.1937.49503,0,.88243.04305,1.14069.15066.27979.10761.4735.1937.62416.27979v-3.20686h1.31288v9.70666h-1.29135l-.04304-.83938h0l.02151-.06456Z"/>
                  <path class="cls-2" d="M242.75857,6.65423h-29.24911v17.71304c5.03626-2.92706,10.86888-4.62734,17.11041-4.62734,6.67198,0,12.91352,1.93703,18.16502,5.2515v-12.33241c0-3.31447-2.71184-6.02631-6.02632-6.02631"/>
                  <path class="cls-12" d="M225.60511,23.44181c-4.41213,0-8.54445,1.22678-12.09567,3.31447v9.14708c0,3.31447,2.69032,6.02631,6.02632,6.02631h29.2276c-2.41053-10.58909-11.85892-18.48785-23.15825-18.48785"/>
                </g>
              </g>
            </g>
          </g>
          <g id="Layer_1-4">
            <g id="Layer_1-2-2">
              <path class="cls-3" d="M89.79794,42.20945c13.32244,0,14.82902-1.46353,14.82902-14.82902v-5.9187c0-13.34397-1.46353-14.82902-14.82902-14.82902h-5.9187c-13.32245,0-14.82902,1.46353-14.82902,14.82902v5.9187c0,13.34397,1.46353,14.82902,14.82902,14.82902h5.9187ZM91.283,34.78418l-8.88881,2.97011V14.01494l8.88881-2.97011v23.73935Z"/>
              <path class="cls-3" d="M24.6062,30.28597l1.89398-.64568v8.09247h-1.89398v-7.46832h0v.02152ZM20.81823,37.75429h1.89398v-11.85891h-1.89398v11.85891ZM17.05179,29.66182h1.89398v8.09247h-1.89398v-1.18374c-.51654.92547-1.46353,1.37744-2.88402,1.37744-2.15225,0-3.37904-1.22678-3.37904-4.26146s1.22678-4.26146,3.37904-4.26146,2.36748.45197,2.88402,1.37744v-1.18374h0v.04304ZM17.05179,33.49283c0-1.59267-.55959-2.1953-2.1953-2.1953s-2.15225.62415-2.15225,2.1953v.40893c0,1.59267.55959,2.1953,2.15225,2.1953s2.1953-.62415,2.1953-2.1953v-.40893ZM58.332,29.66182h1.82942v8.09247h-1.82942v-1.18374c-.55959.92547-1.54962,1.37744-2.90554,1.37744-2.15225,0-3.33599-1.22678-3.33599-4.26146s1.18374-4.26146,3.33599-4.26146,2.36748.45197,2.90554,1.37744v-1.18374h0v.04304ZM58.332,33.49283c-.04305-1.59267-.62416-2.1953-2.1953-2.1953s-2.1953.62415-2.1953,2.1953v.40893c0,1.59267.62416,2.1953,2.1953,2.1953s2.15225-.62415,2.1953-2.1953v-.40893ZM47.42008,29.44659c-1.3344,0-2.1953.51654-2.62575,1.46353-.40893-.99004-1.29135-1.46353-2.62575-1.46353s-1.89398.36588-2.36748,1.07613v-.88242h-1.82942v8.09247h1.82942v-4.778c0-1.22678.45197-1.70028,1.70028-1.70028s1.65724.45197,1.65724,1.70028v4.778h1.89398v-4.778c0-1.22678.40893-1.70028,1.65724-1.70028s1.70028.45197,1.70028,1.70028v4.778h1.82942v-5.48825c0-1.80789-1.03308-2.81945-2.79793-2.81945h0v.04305h0l-.02153-.02152ZM24.6062,28.73635h1.89398v-1.82942h-1.89398v1.82942ZM32.97846,29.44659c-1.29135,0-2.1953.45197-2.71184,1.29135v-1.07613h-1.89398v8.09247h1.89398v-4.41212c0-1.46353.51654-2.06616,2.0016-2.06616s2.06616.55959,2.06616,2.06616v4.41212h1.82942v-5.12236c0-2.06616-1.11917-3.16381-3.16381-3.16381h0l-.02152-.02152ZM38.29453,22.17198c-1.39896,0-2.17378-.38741-2.17378-2.17378s.75329-2.17378,2.17378-2.17378,2.17378.38741,2.17378,2.17378-.75329,2.17378-2.17378,2.17378ZM46.387,15.15563v5.9187h-1.93703c-1.57114,0-2.0016-.53806-2.10921-1.7218-.23675-2.62575-2.06616-3.37904-4.04624-3.37904s-4.06776.88242-4.06776,4.02471.04305.75329.08609,1.07613h-11.62217c-1.46353,0-2.06616-.21523-2.06616-2.06616v-7.98486h-1.89398v8.63054c0,2.389,1.0546,3.2499,3.16381,3.2499h13.25788c.75329.81786,1.91551,1.09765,3.12077,1.09765s2.8625-.40893,3.57274-1.74333c.49502.43045,1.24831.64568,2.58271.64568h3.83101v-7.74811h-1.89398v.04305-.04305h.02152ZM46.387,11.99182v1.89398h1.89398v-1.89398h-1.89398ZM53.08051,26.34735v-.83938h-.6672c-.45197,0-.79634-.15066-.79634-.53806s.23675-.40893.68872-.40893h.38741v-.83938h-.64567c-.88242,0-1.31288.40893-1.31288,1.01156s.12913.60263.30131.77481h-.6672v.8609h2.71184v-.04305h0v.02153ZM56.45954,22.92527v-11.88044h-1.89398v10.0295h-5.01475v1.82942h6.90873v.02152ZM58.28896,11.04483v11.85891h1.89398v-11.85891h-1.89398ZM17.8266,22.92527v-1.82941h-1.42049c-1.59267,0-2.53966-.58111-2.53966-1.74332s.51654-1.0546,1.5281-1.0546h1.18374v-1.82941h-1.74332c-1.7218,0-2.84097,1.03308-2.84097,2.53966s.21523,1.54962.71024,2.10921h-1.89398v1.82941h7.03787l-.02152-.02152ZM50.82064,11.69051l1.89398-.64568v8.75967h-1.89398v-8.11399h0Z"/>
            </g>
          </g>
        </g>
        <g id="g9">
          <path id="path3" class="cls-4" d="M586.22462,41.93078h33.33034V8.60044h-33.33034v33.33034Z"/>
          <path id="path4" class="cls-1" d="M619.55496,41.93078l16.66518-16.66598-16.66518-16.66438"/>
          <path id="path5" class="cls-1" d="M586.22381,8.59962l16.66518,16.66518,16.66518-16.66518"/>
          <path id="path6" class="cls-1" d="M586.22381,41.93078h33.33034l-16.66518-16.66598"/>
          <path id="path7" class="cls-1" d="M569.55863,25.2656l16.66518,16.66518V8.59964"/>
          <g class="cls-9">
            <g id="g8">
              <path id="path8" d="M647.07522,42.17083c-2.88457,0-5.25131-1.14645-5.30672-4.34572h2.90303c.03693,1.42422.86867,2.27443,2.45906,2.27443,1.18337,0,2.51528-.5917,2.51528-1.92278,0-1.03564-.9064-1.36883-2.40448-1.79353l-.96179-.27778c-2.10824-.61016-4.1972-1.42342-4.1972-3.82789,0-2.97691,2.77379-3.97562,5.30753-3.97562,2.60679,0,4.84429.9064,4.86276,3.86482h-2.90303c-.11078-1.2203-.81326-1.92278-2.18209-1.92278-1.07259,0-2.14516.57321-2.14516,1.75659,0,.98025.88794,1.27569,2.77379,1.86739l1.10952.35163c2.29289.72094,3.73558,1.51654,3.73558,3.73477,0,3.05156-2.94076,4.21647-5.56604,4.21647M663.23865,38.86075h-5.84381l-1.14645,3.07003h-2.8661l5.41831-13.36955h3.27315l5.50982,13.36955h-3.19849l-1.14643-3.07003ZM658.09812,36.90105h4.38186l-2.14516-6.26851-2.2367,6.26851ZM669.02786,28.56125h4.64198c1.46035,0,2.05204.03693,2.62606.16619,1.62734.37011,2.84684,1.42422,2.84684,3.21775,0,1.71966-1.09025,2.60679-2.66218,3.01383,1.812.33317,3.14308,1.25723,3.14308,3.23622,0,3.0323-2.99537,3.73558-5.34365,3.73558h-5.25212v-13.36957ZM673.6883,34.12728c1.27569,0,2.56986-.25931,2.56986-1.812,0-1.3873-1.2203-1.75739-2.38521-1.75739h-2.03358v3.56939h1.84892ZM673.96527,39.93336c1.35037,0,2.68145-.3139,2.68145-1.94124,0-1.59041-1.14645-1.96051-2.51447-1.96051h-2.29289v3.90177l2.12592-.00002ZM641.77736,17.43964h2.46388v3.32934c0,1.66346.49454,2.57067,2.53454,2.57067,2.05285,0,2.44622-.95297,2.44622-3.08929v-11.6507h2.46388v12.0216c0,2.99778-1.17214,4.58578-4.91011,4.58578s-4.99843-1.68032-4.99843-4.16108v-3.60631ZM657.85486,23.39504c.47206,0,.81167-.1148,1.01879-.34201.20633-.22881.32194-.58929.34603-1.08222h-.90479c-3.1214,0-4.50228-1.20666-4.50228-3.90257,0-.88794.0843-4.10567,4.53841-4.10567,1.14805,0,3.20168.13567,3.36707.14773v7.30577c0,1.80798-.27938,3.79097-3.81023,3.79097h-2.90785v-1.812h2.85487ZM656.25884,18.01285c0,.74021.15333,1.2733.46082,1.60004.30749.32676.82129.48973,1.54224.48973h.97463v-4.16108c-.21274-.01203-.3091-.01846-.99231-.01846-1.90271,0-1.9854,1.42101-1.9854,2.08977M663.66815,21.97082v-1.86819h3.19045v-8.28522h2.46388v8.28522h2.80107v-11.50297h2.46388v13.37116h-10.91929ZM669.92542,10.30085h-3.66894v-1.09107h.76189c-.07064-.24647-.17662-.60132-.17662-.92486,0-.49293.20232-1.60888,2.00226-1.60888.09473,0,.67357.02489.78035.03693v1.05411c-.05941,0-.47286-.03693-.53227-.03693-.24808,0-.46645.04014-.65591.12042-.18867.08028-.2834.28019-.2834.60132,0,.33078.08269.58527.1421.75787h1.63056l-.00002,1.09109ZM679.62121,21.97082h-2.46369v-13.37124h2.46367l.00002,13.37124Z"/>
            </g>
          </g>
        </g>
        <g>
          <path class="cls-5" d="M723.03724,28.96278c2.62773,2.62774,6.87137,2.62774,9.48401.0151,2.59753-2.59753,2.59753-6.84117-.0302-9.46891-2.59753-2.59753-6.82607-2.58243-9.4236.0151-2.61263,2.61264-2.61263,6.85628-.03021,9.4387"/>
          <path d="M778.23476,28.57014c.10572,0,.19632-.0453.27183-.10572.09061-.07551.10572-.16612.10572-.27183s-.03021-.21143-.10572-.27183c-.07551-.07551-.16612-.12081-.27183-.12081-.12081,0-.21143.0453-.27183.12081-.07551.07551-.10572.16612-.10572.27183s.03021.19632.10572.27183c.07551.06041.15102.10572.27183.10572"/>
          <path d="M768.49402,32.08888c0,.13592-.09061.25673-.22653.34734-.15102.09061-.30204.13592-.46816.13592-.10572,0-.22653-.03021-.31714-.10572-.15102-.12081-.22653-.28694-.22653-.51347,0-.28694.18122-.52857.52857-.7551.19632-.12081.42285-.21143.70979-.31714v1.20815ZM769.33973,32.58724c-.09061,0-.16612-.0453-.19632-.13592-.0151-.0453-.03021-.15102-.03021-.28694v-1.49509c0-.31714-.06041-.57387-.13592-.74-.16612-.30204-.49836-.46816-.98162-.46816-.40775,0-.72489.10572-.93632.28694-.21143.18122-.31714.36245-.31714.54367,0,.09061.03021.16612.07551.24163.07551.07551.15102.10572.27183.10572.07551,0,.12081-.0151.18122-.0453.09061-.06041.13592-.15102.13592-.28694,0-.0151-.0151-.06041-.0151-.13592s-.0151-.12081-.0151-.15102c0-.12081.06041-.21143.16612-.28694.10572-.06041.22653-.09061.36245-.09061.25673,0,.42285.07551.49836.24163.06041.10572.09061.27183.09061.52857v.31714c-.69469.25673-1.14775.45306-1.37428.60408-.34734.25673-.54367.54367-.54367.90612,0,.22653.07551.42285.24163.57387.15102.13592.33224.21143.54367.21143s.40775-.06041.63428-.19632c.13592-.07551.30204-.19632.49836-.36245,0,.15102.0453.27183.10572.37755.07551.10572.19632.15102.36245.15102.15102,0,.27183-.0453.42285-.13592.09061-.06041.18122-.13592.25673-.24163v-.18122c-.09061.06041-.16612.10572-.19632.12081-.0151.03023-.06041.03023-.10571.03023"/>
          <path d="M820.03687,32.45133c-.27183.15102-.60408.22653-.98162.22653-.25673,0-.43796-.0151-.51347-.06041-.07551-.0453-.10572-.12081-.10572-.25673v-1.88774c.06041.0151.10572.0151.13592.0151h.21143c.46816,0,.86081.07551,1.17795.22653.31714.16612.46816.45306.46816.87591.01511.42286-.12081.7249-.39265.86082M818.43607,28.47953c0-.12081.0151-.19632.0453-.22653s.12081-.0453.28694-.0453c.42285,0,.74.0453.93632.12081.36245.16612.55877.46816.55877.92121,0,.37755-.16612.64938-.49836.8004-.15102.09061-.37755.12081-.61918.12081l-.70979.0151v-1.70651h0ZM820.92789,30.74482c-.24163-.19632-.54367-.33224-.89102-.42285.27183-.07551.49836-.16612.63428-.27183.24163-.18122.37755-.45306.37755-.81551,0-.46816-.16612-.81551-.52857-1.01183s-.8457-.28694-1.44978-.28694h-2.11427v.13592c.30204.0151.49836.06041.58898.15102.07551.09061.13592.25673.13592.54367v3.35263c0,.28694-.0453.46816-.13592.54367-.09061.07551-.28694.13592-.58898.15102v.13592h2.47672c.40775,0,.7853-.06041,1.05713-.16612.54367-.22653.81551-.61918.81551-1.22325-.01512-.34735-.13593-.63429-.37756-.81551"/>
          <path d="M828.41843,32.34562v-1.73672c0-.48326-.13592-.81551-.39265-.99672-.13592-.10572-.28694-.15102-.46816-.15102-.19632,0-.39265.06041-.57387.18122-.15102.09061-.31714.22653-.52857.43796v-.58898s-.0151-.0151-.0453-.0151l-.34734.12081c-.37755.10572-.61918.18122-.72489.21143v.12081c.0453,0,.06041-.0151.09061-.0151h.07551c.15102,0,.24163.0453.27183.13592.03021.06041.0453.18122.0453.33224v1.90284c0,.22653-.03021.36245-.09061.43796-.07551.06041-.21143.09061-.37755.12081v.10572h1.6008v-.10572c-.16612,0-.28694-.03021-.36245-.09061-.07551-.06041-.12081-.18122-.12081-.34734v-2.08406c.12081-.13592.22653-.22653.31714-.28694.15102-.09061.30204-.15102.45306-.15102.21143,0,.34734.06041.40775.21143.09061.13592.12081.31714.12081.52857v1.5857c0,.25673-.03021.42285-.09061.48326-.06041.07551-.19632.12081-.37755.15102v.10572h1.5857v-.10572c-.15102,0-.28694-.03021-.34734-.12081-.07552-.07554-.12082-.19635-.12082-.37758"/>
          <path d="M832.22412,32.60235c-.18122-.15102-.43796-.45306-.7853-.90612l-.64938-.89102.21143-.18122c.46816-.43796.7853-.70979.96653-.8004.16612-.09061.37755-.15102.64938-.16612v-.10572h-1.5404v.10572c.15102,0,.24163.0151.30204.03021.0453.0151.07551.0453.07551.10572,0,.03021-.0151.06041-.0453.10572-.0151.0453-.07551.09061-.15102.15102l-1.01183.90612v-3.1714c0-.0151-.0151-.0151-.0151-.0151-.0151,0-.07551.03021-.19632.06041-.18122.06041-.40775.12081-.64938.18122l-.33224.09061v.10572c.03021,0,.09061-.0151.12081-.0151h.12081c.10572,0,.19632.0151.25673.06041.06041.0453.07551.15102.07551.33224v3.73018c0,.21143-.03021.33224-.10572.40775-.09061.06041-.24163.09061-.46816.10572v.10572h1.78202v-.10572c-.18122,0-.30204-.03021-.39265-.0453-.10572-.06041-.19632-.18122-.19632-.34734v-1.37427l1.14774,1.49509c.0151.03021.03021.06041.0453.07551.0151.03021.0151.06041.0151.07551,0,.0453-.0151.06041-.0453.09061-.03021,0-.07551.0151-.12081.0151h-.12081v.10572h1.64611v-.10572c-.22654.01507-.40776-.06044-.58899-.21146"/>
          <path d="M776.02988,32.11909c0,.09061-.07551.21143-.18122.31714-.12081.12081-.25673.16612-.46816.16612-.36245,0-.63428-.15102-.81551-.45306-.19632-.30204-.27183-.66449-.27183-1.05713s.07551-.74.25673-1.01183.42285-.40775.72489-.40775c.16612,0,.33224.07551.49836.19632.18122.13592.25673.36245.25673.67959v1.57061ZM777.0266,32.49664c-.16612,0-.28694-.03021-.31714-.09061-.03021-.06041-.07551-.16612-.07551-.33224l.0151-3.00529v-.43796c0-.15102.0151-.30204.0151-.43796v-.39265l-.03021-.0151c-.07551.03021-.15102.06041-.19632.06041-.07551.03021-.18122.06041-.28694.09061-.12081.03021-.21143.06041-.33224.09061l-.30204.07551v.12081c.09061,0,.12081-.0151.15102-.0151h.09061c.13592,0,.21143.03021.24163.09061.03021.06041.06041.16612.06041.30204v1.16285c-.09061-.09061-.18122-.15102-.28694-.21143-.15102-.07551-.31714-.12081-.49836-.12081-.45306,0-.83061.19632-1.14775.57387-.30204.37755-.46816.8457-.46816,1.37427,0,.43796.12081.8004.39265,1.11755.25673.33224.60408.48326,1.01183.48326.24163,0,.43796-.0453.61918-.16612.10572-.06041.21143-.16612.36245-.33224v.48326l.03021.0151.57387-.21143c.34734-.12081.54367-.18122.54367-.19632v-.12081h-.09061c-.01508.04531-.06039.04531-.07549.04531"/>
          <path d="M778.6274,32.1795v-2.71835c-.0151,0-.06041.0151-.13592.0453-.16612.07551-.46816.18122-.90612.31714l-.16612.0453v.10572c.13592-.0453.19632-.06041.22653-.06041h.07551c.12081,0,.19632.0453.22653.15102.03021.07551.0453.18122.0453.34734v1.78202c0,.30204-.0453.46816-.10572.52857-.07551.07551-.24163.10572-.49836.13592v.10572h1.79713v-.10572c-.22653-.0151-.39265-.06041-.45306-.13592-.07551-.0755-.10572-.25673-.10572-.54366"/>
          <path d="M756.27657,32.1795v-1.51019c0-.28694-.03021-.51347-.12081-.69468-.13592-.34734-.42285-.51347-.8155-.51347-.24163,0-.48326.07551-.69469.22653-.10572.07551-.24163.21143-.40775.39265v-2.26529l-.0151-.03021-.34734.10572c-.06041.03021-.18122.06041-.33224.10572-.16612.0453-.30204.07551-.40775.12081v.13592c.03021-.0151.07551-.0151.09061-.0151h.07551c.13592,0,.22653.03021.25673.10572.03021.06041.06041.16612.06041.30204v3.53385c0,.27183-.03021.45306-.10572.51347-.06041.07551-.19632.12081-.39265.15102v.10572h1.64611v-.10572c-.21143-.03021-.34734-.07551-.40775-.15102-.06041-.06041-.10572-.24163-.10572-.51347v-1.81223c0-.0453.09061-.13592.27183-.27183.18122-.13592.36245-.21143.55877-.21143.21143,0,.36245.07551.45306.22653.07551.15102.12081.34734.12081.57387v1.49509c0,.27183-.03021.45306-.09061.51347-.07551.07551-.21143.12081-.42285.15102v.10572h1.61591v-.10572c-.18122-.0151-.31714-.07551-.37755-.15102-.0755-.07553-.10571-.24165-.10571-.51348"/>
          <path d="M748.55948,27.93585l-.03021,1.29876h.18122c.07551-.40775.19632-.66449.34734-.7853s.43795-.18122.87591-.18122h.39265v3.77548c0,.33224-.0453.54367-.12081.61918-.09061.07551-.28694.13592-.60408.16612v.13592h2.20488v-.13592c-.30204-.0151-.49836-.07551-.58897-.13592-.09061-.07551-.13592-.25673-.13592-.54367v-3.86609h.40775c.43795,0,.72489.06041.86081.18122.13592.12081.24163.39265.33224.7853h.18122l-.0453-1.29876h-4.25875v-.0151Z"/>
          <path d="M764.68833,30.18604l-.66448-.40775c-.25673-.15102-.42285-.30204-.54367-.43796-.13592-.13592-.18122-.30204-.18122-.49836,0-.21143.06041-.39265.22653-.51347.15102-.12081.33224-.18122.54367-.18122.27183,0,.54367.09061.8004.28694.27183.19632.48326.52857.60408,1.01183h.18122l-.16612-1.61591h-.15102c-.0151.07551-.0453.13592-.09061.18122-.03021.0453-.09061.06041-.18122.06041-.03021,0-.16612-.0453-.42285-.12081-.24163-.09061-.43795-.12081-.61918-.12081-.40775,0-.7551.13592-1.02693.39265-.24163.25673-.36245.57387-.36245.95142,0,.28694.10572.54367.31714.7853.10572.13592.27183.25673.45306.37755l.64938.40775c.36245.22653.61918.40775.72489.52857.18122.18122.27183.39265.27183.64938,0,.27183-.09061.48326-.27183.63428-.18122.15102-.37755.22653-.61918.22653-.45306,0-.83061-.18122-1.13264-.52857-.16612-.19632-.33224-.46816-.45306-.81551h-.18122l.22653,1.61591h.18122c.0151-.07551.03021-.13592.07551-.18122.03021-.06041.09061-.07551.16612-.07551.0453,0,.18122.03021.43795.12081.25673.09061.51346.13592.73999.13592.46816,0,.84571-.13592,1.14775-.40775.30204-.25673.45306-.60408.45306-.99672,0-.30204-.09061-.55877-.25673-.77019-.16611-.19633-.45305-.42286-.8759-.69469"/>
          <path d="M757.72635,30.14074c.15102-.24163.34734-.37755.64938-.37755.27183,0,.48326.10572.60408.33224.06041.12081.12081.30204.13592.54367h-1.5555c.0453-.21143.09061-.36245.16612-.49836M759.41776,32.30031c-.18122.13592-.39265.19632-.64938.19632-.31714,0-.58897-.12081-.83061-.39265-.22653-.25673-.36245-.67959-.37755-1.23836h2.3408c0-.43796-.12081-.77019-.39265-1.01183-.27183-.24163-.57387-.36245-.90612-.36245-.46816,0-.86081.18122-1.14775.52857-.30204.36245-.45306.7853-.45306,1.28366,0,.46816.13592.86081.37755,1.20815.27183.34734.61918.52857,1.07224.52857.40775,0,.7551-.13592,1.02693-.39265.27183-.27183.46816-.55877.55877-.87591l-.13592-.0453c-.15102.24163-.30204.43795-.48326.57387"/>
          <path d="M772.90378,32.49664c-.06041-.06041-.09061-.16612-.09061-.33224v-2.62774h-1.19305v.12081c.22653.0151.37755.0453.43795.10572.07551.06041.10572.18122.10572.37755v2.02366c-.09061.10572-.18122.19632-.27183.25673-.16612.10572-.33224.16612-.49836.16612-.24163,0-.39265-.09061-.48326-.28694-.0453-.10572-.07551-.22653-.07551-.39265v-2.3559h-1.10244v.10572c.16612.03021.28694.0453.34734.09061.09061.06041.13592.21143.13592.39265v1.91795c0,.36245.09061.61918.28694.77019.18122.15102.39265.22653.60408.22653.24163,0,.45306-.07551.66448-.21143.13592-.10572.28694-.24163.45306-.45306v.64938c0,.0151.0151.0151.03021.0151.21143-.07551.36245-.12081.40775-.15102.16612-.0453.25673-.07551.33224-.09061.06041-.0151.16612-.03021.30204-.07551v-.10572c-.19633-.04529-.31715-.06039-.39266-.1359"/>
          <path d="M781.39106,28.08687c.30204.0151.49836.06041.57387.15102.09061.09061.13592.25673.13592.54367v3.35263c0,.30204-.0453.48326-.13592.55877-.07551.07551-.28694.12081-.57387.13592v.13592h2.20488v-.13592c-.30204-.0151-.49836-.07551-.57387-.13592-.09061-.07551-.13592-.25673-.13592-.55877v-3.35263c0-.28694.0453-.46816.13592-.54367.07551-.07551.28694-.13592.57387-.15102v-.13592h-2.20488v.13592Z"/>
          <path d="M806.52065,30.14074c.15102-.24163.36245-.37755.64938-.37755s.48326.10572.60408.33224c.07551.12081.10572.30204.15102.54367h-1.5555c.03021-.21143.09062-.36245.15102-.49836M808.22717,32.30031c-.18122.13592-.39265.19632-.64938.19632-.31714,0-.60408-.12081-.83061-.39265-.24163-.25673-.36245-.67959-.39265-1.23836h2.3408c0-.43796-.12081-.77019-.39265-1.01183-.25673-.24163-.55877-.36245-.90612-.36245-.48326,0-.86081.18122-1.14774.52857-.28694.36245-.43796.7853-.43796,1.28366,0,.46816.12081.86081.37755,1.20815s.61918.52857,1.08734.52857c.39265,0,.72489-.13592,1.01183-.39265.28694-.27183.48326-.55877.55877-.87591l-.13592-.0453c-.15103.24163-.31715.43795-.48327.57387"/>
          <path d="M812.22917,32.34562v-1.73672c0-.48326-.13592-.81551-.39265-.99672-.13592-.10572-.28694-.15102-.45306-.15102-.21143,0-.40775.06041-.60408.18122-.12081.09061-.30204.22653-.52857.43796v-.52857c0-.03021,0-.0453-.0151-.06041l-.03021-.0151-.34734.12081c-.37755.10572-.61918.18122-.74.21143v.12081c.0453,0,.07551-.0151.10572-.0151h.06041c.15102,0,.22653.0453.28694.13592.03021.06041.06041.18122.06041.33224v1.90284c0,.22653-.0453.36245-.12081.43796-.06041.06041-.19632.09061-.36245.12081v.10572h1.6008v-.10572c-.16612,0-.28694-.03021-.37755-.09061-.06041-.06041-.10572-.18122-.10572-.34734v-2.08406c.12081-.13592.24163-.22653.30204-.28694.16612-.09061.30204-.15102.45306-.15102.21143,0,.36245.06041.42285.21143.09061.13592.13592.31714.13592.52857v1.5857c0,.25673-.0453.42285-.12081.48326-.07551.07551-.19632.12081-.37755.15102v.10572h1.5857v-.10572c-.16612,0-.27183-.03021-.36245-.12081-.04531-.07554-.07552-.19635-.07552-.37758"/>
          <path d="M814.58508,32.54194c-.06041.03021-.13592.06041-.22653.06041-.16612,0-.28694-.09061-.34734-.25673-.03021-.09061-.03021-.24163-.03021-.42285v-2.11427h.7551v-.25673h-.7551v-.95142s-.03021-.0151-.07551-.0151c-.27183.37755-.43796.60408-.52857.69468-.06041.09061-.19632.21143-.36245.34734-.06041.0453-.10572.07551-.12081.09061v.09062c0,.0151.0151.0151.03021.03021h.39265v2.23508c0,.25673.03021.43796.09061.58898.09061.25673.30204.37755.58898.37755.15102,0,.27183-.0151.42285-.10572.13592-.07551.27183-.19632.40775-.36245l.07551-.12081-.09061-.07551c-.07551.0604-.16613.12081-.22653.16612"/>
          <path d="M799.43786,32.54194c-.06041.03021-.13592.06041-.22653.06041-.16612,0-.28694-.09061-.34734-.25673-.03021-.09061-.0453-.24163-.0453-.42285l.0151-2.11427h.77019v-.25673h-.7551v-.95142c-.0151,0-.03021-.0151-.06041-.0151-.27183.37755-.45306.60408-.54367.69468-.06041.09061-.18122.21143-.36245.34734-.06041.0453-.09061.07551-.10572.09061-.0151.0151-.0151.03021-.0151.06041v.03021c0,.0151.0151.0151.03021.03021h.40775v2.23508c0,.25673.03021.43796.09061.58898.09061.25673.30204.37755.58898.37755.13592,0,.27183-.0151.40775-.10572.13592-.07551.28694-.19632.40775-.36245l.09061-.12081-.10572-.07551c-.09061.0604-.16612.12081-.24163.16612"/>
          <path d="M805.07087,32.37582v-1.52529c0-.39265-.03021-.67959-.12081-.86081-.12081-.33224-.39265-.48326-.8004-.48326-.24163,0-.46816.07551-.69468.22653-.13592.09061-.30204.22653-.48326.40775-.0453-.16612-.10572-.28694-.18122-.37755-.15102-.16612-.36245-.25673-.60408-.25673-.18122,0-.36245.0453-.54367.12081-.16612.09061-.37755.24163-.61918.46816v-.57387c0-.0151-.0151-.0151-.03021-.0151-.0151,0-.12081.0453-.34734.12081-.22653.09061-.39265.15102-.48326.18122l-.25673.07551v.13592c.0453-.0151.06041-.0151.09061-.03021h.10572c.12081,0,.19632.03021.24163.07551.0453.06041.06041.18122.06041.36245v1.90284c0,.21143-.0453.34734-.13592.42285-.06041.06041-.19632.07551-.37755.09061v.10572h1.69142v-.10572c-.21143,0-.36245-.03021-.43796-.10572-.06041-.07551-.09061-.19632-.09061-.37755v-2.03876c.10572-.13592.22653-.24163.36245-.33224.15102-.07551.30204-.12081.45306-.12081.27183,0,.43796.12081.51347.36245.0453.15102.07551.40775.07551.7853v1.02693c0,.34734-.03021.54367-.09061.61918-.07551.07551-.22653.13592-.45306.16612v.10572h1.6914v-.10572c-.24163,0-.37755-.06041-.45306-.16612-.06041-.10572-.10572-.25673-.10572-.43796v-1.90284c.12081-.13592.24163-.24163.33224-.30204.16612-.10572.31714-.16612.48326-.16612.25673,0,.43796.10572.54367.30204.0453.12081.06041.28694.06041.54367v1.6008c0,.19632-.03021.33224-.09061.40775-.07551.06041-.22653.10572-.43796.12081v.10572h1.67631v-.10572c-.21143-.0151-.34734-.0453-.42285-.12081-.07551-.0453-.12081-.16612-.12081-.33223"/>
          <path d="M786.99387,32.34562v-1.73672c0-.48326-.15102-.81551-.40775-.99672-.15102-.10572-.28694-.15102-.45306-.15102-.19632,0-.40775.06041-.60408.18122-.13592.09061-.30204.22653-.52857.43796v-.52857c0-.03021,0-.0453-.0151-.06041-.0151,0-.0151-.0151-.03021-.0151l-.34734.12081c-.37755.10572-.61918.18122-.72489.21143v.12081c.03021,0,.07551-.0151.09061-.0151h.07551c.15102,0,.24163.0453.28694.13592.03021.06041.0453.18122.0453.33224v1.90284c0,.22653-.03021.36245-.10572.43796-.07551.06041-.19632.09061-.36245.12081v.10572h1.61591v-.10572c-.18122,0-.30204-.03021-.37755-.09061-.07551-.06041-.12081-.18122-.12081-.34734v-2.08406c.13592-.13592.22653-.22653.33224-.28694.15102-.09061.28694-.15102.43796-.15102.21143,0,.34734.06041.42285.21143.07551.13592.12081.31714.12081.52857v1.5857c0,.25673-.0453.42285-.12081.48326-.06041.07551-.19632.12081-.39265.15102v.10572h1.6159v-.10572c-.16612,0-.28694-.03021-.36245-.12081-.07551-.07554-.09061-.19635-.09061-.37758"/>
          <path d="M790.10486,29.61217c.10572,0,.18122.0151.22653.0453.10572.0453.13592.12081.13592.21143,0,.0453-.0151.12081-.03021.21143-.03021.09061-.06041.16612-.09061.25673l-.66449,1.64611-.7853-1.87264c-.03021-.06041-.0453-.12081-.06041-.16612,0-.03021-.0151-.06041-.0151-.10572,0-.07551.0151-.12081.07551-.16612.06041-.0151.15102-.0453.27183-.06041v-.10572h-1.47999v.10572c.12081.0151.19632.0453.25673.09061.10572.07551.19632.22653.28694.45306l1.13264,2.71835c.0151.0453.0453.07551.06041.10572.0151.0151.03021.03021.0453.03021.03021,0,.0453,0,.07551-.0151.0151-.0151.03021-.0453.06041-.10572l1.05713-2.67304c.07551-.25673.18122-.40775.22653-.48326s.13592-.10572.27183-.13592v-.10572h-1.05713v.12081h0Z"/>
          <path d="M796.55338,31.03175l-.48326-.25673c-.34734-.18122-.51347-.37755-.51347-.60408,0-.15102.06041-.27183.15102-.37755.10572-.10572.24163-.15102.40775-.15102.30204,0,.51347.12081.66449.36245.09061.13592.15102.31714.21143.55877h.10572l-.0151-1.02693h-.07551c-.0151.0151-.0453.0453-.06041.0453-.0151.0151-.0453.0151-.09061.0151-.03021,0-.10572-.03021-.27183-.07551-.15102-.0453-.30204-.07551-.42285-.07551-.30204,0-.55877.09061-.7551.25673-.19632.18122-.28694.40775-.28694.67959,0,.22653.07551.42285.21143.58898.15102.16612.36245.33224.67959.49836l.40775.22653c.16612.09061.25673.18122.33224.28694.06041.09061.07551.19632.07551.30204,0,.16612-.0453.30204-.15102.40775s-.25673.15102-.43796.15102c-.33224,0-.58898-.13592-.7551-.40775-.10572-.15102-.18122-.37755-.24163-.64938h-.12081v1.19306h.10572c.0151-.03021.0453-.06041.06041-.07551.03021-.0151.0453-.03021.07551-.03021s.13592.03021.33224.07551c.18122.06041.34734.07551.49836.07551.34734,0,.61918-.09061.8457-.27183s.33224-.42285.33224-.70979c-.01513-.39266-.28696-.7249-.81553-1.01184"/>
          <path d="M792.23424,30.14074c.15102-.24163.36245-.37755.63428-.37755.28694,0,.48326.10572.61918.33224.06041.12081.10572.30204.13592.54367h-1.5706c.0453-.21143.10572-.36245.18122-.49836M793.91055,32.30031c-.16612.13592-.39265.19632-.64938.19632-.31714,0-.58898-.12081-.83061-.39265-.24163-.25673-.37755-.67959-.39265-1.23836h2.3559c0-.43796-.12081-.77019-.39265-1.01183-.27183-.24163-.55877-.36245-.92121-.36245-.46816,0-.86081.18122-1.14774.52857-.28694.36245-.42285.7853-.42285,1.28366,0,.46816.12081.86081.37755,1.20815s.60408.52857,1.07223.52857c.39265,0,.74-.13592,1.02693-.39265.27183-.27183.46816-.55877.55877-.87591l-.13592-.0453c-.15103.24163-.31715.43795-.49837.57387"/>
          <path d="M824.02378,32.08888c0,.13592-.06041.25673-.22653.34734-.13592.09061-.30204.13592-.46816.13592-.13592,0-.22653-.03021-.31714-.10572-.16612-.12081-.22653-.28694-.22653-.51347,0-.28694.18122-.52857.54367-.7551.18122-.12081.42285-.21143.69468-.31714v1.20815ZM824.86948,32.58724c-.09061,0-.16612-.0453-.19632-.13592-.0151-.0453-.0151-.15102-.0151-.28694v-1.49509c0-.31714-.06041-.57387-.13592-.74-.18122-.30204-.49836-.46816-.98162-.46816-.40775,0-.72489.10572-.93632.28694s-.33224.36245-.33224.54367c0,.09061.03021.16612.10572.24163.0453.07551.13592.10572.25673.10572.07551,0,.13592-.0151.19632-.0453.09061-.06041.13592-.15102.13592-.28694,0-.0151-.0151-.06041-.0151-.13592v-.15102c0-.12081.06041-.21143.15102-.28694.12081-.06041.24163-.09061.36245-.09061.27183,0,.43796.07551.52857.24163.0453.10572.06041.27183.06041.52857v.31714c-.67959.25673-1.11755.45306-1.35917.60408-.36245.25673-.54367.54367-.54367.90612,0,.22653.09061.42285.24163.57387.15102.13592.34734.21143.54367.21143.21143,0,.42285-.06041.64938-.19632.13592-.07551.30204-.19632.46816-.36245.0151.15102.06041.27183.13592.37755s.19632.15102.36245.15102c.13592,0,.27183-.0453.42285-.13592.09061-.06041.18122-.13592.25673-.24163v-.18122c-.09061.06041-.15102.10572-.19632.12081-.06042.03023-.10572.03023-.16614.03023"/>
          <path d="M749.79784,23.34487v1.61591c0,.55877-.12081,1.29877-1.26856.99673,1.04203.81551,2.3559.16612,2.3559-.93632v-2.62773c-.27184.7853-.7853.95142-1.08734.95142M795.76808,22.58977s-.18122.06041-.33224.10572c-.58898.13592-.7551.33224-.7551.7551v.40775h1.08734v-1.26856ZM808.84635,15.47677c.22653.25673.51347.55877,1.01183.92122v8.56279h-13.00275v.06041c0,1.10244-1.31387,1.75182-2.3559.93632,1.14774.30204,1.26856-.43795,1.26856-.99673v-.0151h-2.15957v-1.5404c0-.83061.37755-1.49509,1.5706-1.70652.8004-.15102,1.34407-.30204,1.69142-.58897v1.26856h0v1.47999h1.01183v-1.02693c0-.58897.37755-.99673,1.17795-.99673h1.13264v.8004h-.99672c-.18122,0-.24163.09061-.24163.33224v.90612h3.44321v-1.5555c.16612-.03021.31714-.06041.48326-.09061.19632-.0453.40775-.10572.60408-.15102v1.79713h1.07223v-2.14447c.37755-.13592.74-.28694,1.08734-.46816v2.61263h1.05713v-3.23181c.43796-.28694.7853-.58897,1.08734-.90612v4.13793h1.07223v-8.39667h-.0151ZM755.18923,25.20241c.42285,0,.73999-.33224.73999-.7551s-.33224-.7551-.73999-.7551-.73999.33224-.73999.7551.33224.7551.73999.7551M769.40013,20.64163c.42285-.28694.8004-.58897,1.08734-.90612v5.22527h-13.68234c-.21143.69469-.86081,1.19305-1.61591,1.19305s-1.40448-.49836-1.6008-1.19305h-1.69142v-8.59299c.19632-.10572.67959-.39265,1.08734-.87591v8.38157h.63428c.24163-.63428.86081-1.08734,1.5706-1.08734.72489,0,1.32897.45306,1.5706,1.08734h2.56733v-3.32242c.42285-.24163.86081-.54367,1.08734-.8004v4.12282h2.53712v-3.32242c.45306-.24163.86081-.54367,1.07224-.8155v4.13793h1.07224v-1.5404c.15102-.03021.30204-.06041.46816-.09061.21143-.0453.39265-.09061.61918-.15102v1.79713h1.08734v-2.14447c.36245-.15102.72489-.30204,1.07224-.46816v2.61263h1.07224v-3.24691h-.01511ZM759.84062,17.47022c.30204,0,.52857-.24163.52857-.54367s-.24163-.54367-.52857-.54367c-.31714,0-.52857.24163-.52857.54367s.21143.54367.52857.54367M824.9299,18.33104c.30204,0,.54367-.24163.54367-.54367,0-.28694-.24163-.52857-.54367-.52857-.28694,0-.54367.24163-.54367.52857,0,.30204.25673.54367.54367.54367M827.3613,25.47424c-.30204,0-.54367.24163-.54367.54367,0,.28694.24163.54367.54367.54367s.52857-.24163.52857-.54367-.24163-.54367-.52857-.54367M784.63797,25.47424c-.30204,0-.54367.24163-.54367.54367,0,.28694.24163.54367.54367.54367s.54367-.24163.54367-.54367-.24163-.54367-.54367-.54367M783.26369,25.47424c-.30204,0-.52857.24163-.52857.54367,0,.28694.22653.54367.52857.54367s.54367-.24163.54367-.54367c-.0151-.30204-.25673-.54367-.54367-.54367M764.32589,18.58777c.28694,0,.52857-.24163.52857-.52857,0-.30204-.24163-.54367-.52857-.54367s-.52857.24163-.52857.54367c0,.28694.24163.52857.52857.52857M762.95161,18.58777c.30204,0,.54367-.24163.54367-.52857,0-.30204-.22653-.54367-.54367-.54367-.28694,0-.54367.24163-.54367.54367.0151.28694.25673.52857.54367.52857M759.97654,18.0441c0,.28694.24163.52857.54367.52857s.54367-.24163.54367-.52857c0-.30204-.24163-.52857-.54367-.52857s-.54367.24163-.54367.52857M759.14593,18.58777c.30204,0,.54367-.24163.54367-.52857,0-.30204-.24163-.54367-.54367-.54367s-.54367.24163-.54367.54367c0,.28694.24163.52857.54367.52857M790.82976,21.77427h-1.25346v.84571h.96653c.58898,0,.67959.30204.67959.7551v.48326h-1.6008v1.08734h2.67304v-1.81223c-.00002-.7551-.48327-1.35918-1.4649-1.35918M785.01552,20.98897v1.81223h2.09917v1.05713h-5.75383v-2.3861c-.37755.45306-.93632.73999-1.10244.84571v2.62773h7.94361v-3.1261h-2.15957v-.72489c0-1.11754,1.23836-1.67631,2.17468-1.76693v-1.05713c-2.61265.46816-3.20162,1.97835-3.20162,2.71835M820.56544,20.67183h-1.87264v-.52857c0-.45306.06041-.55877.63428-.55877.52857,0,.69468-.09061.77019-.15102v-.39265c-.13592.07551-.21143.12081-.52857.12081h-.7853c-.39265,0-.72489.27183-.72489.7551v.73999h-1.52529c-.07551.12081-.22653.39265-.39265.67959h4.43997v-.66448h-.01511ZM829.43027,15.47677v8.38157h-1.44978v-4.12282c-.30204.33224-.8457.61918-1.07223.7853v3.33753h-1.6008v-4.12283c-.31714.34734-.87591.64938-1.08734.8155v3.30732h-1.28367v-8.41177c-.34734.37755-.81551.73999-1.07223.92122v7.49055h-6.64484c-.21143,0-.37755-.09061-.49836-.18122-.12081.37755-.37755,1.26856-.37755,1.26856h16.11375v-8.57789c-.45307-.31714-.80041-.63428-1.02694-.89101M776.73966,16.35268v7.50566h-1.28366v-7.50566c-.19632-.10572-.66449-.39265-1.07223-.87591v8.38157h-2.3861v1.08734h5.81424v-9.46891c-.39266.48326-.87591.77019-1.07224.87591M773.1001,15.47677c-.40775.48326-.87591.7551-1.07224.87591v6.3277h1.07224v-7.20361ZM811.14184,16.35268v8.59299h1.07223v-9.46891c-.40775.49837-.89102.7702-1.07223.87591M831.71065,16.35268c.19632-.10572.67959-.39265,1.07223-.87591v9.46891h-1.07223v-8.593Z"/>
          <path d="M722.7352,18.18002c-.27184.27183-.27184.72489,0,.99673l-1.5857-1.58571c-1.20815-1.20815-1.20815-3.1714,0-4.36445l6.62974-6.62974,6.62974,6.62974c1.20815,1.20815,1.20815,3.1714,0,4.36445l-1.5857,1.5857c.27184-.27183.27184-.72489,0-.99673l-5.02894-5.04404-5.05914,5.04404Z"/>
          <path d="M726.97884,34.5807c.54367.54367.8155,1.25346.8004,1.96325h0c0-.70979.27184-1.41958.8004-1.96325l10.31461-10.31461-4.99874-4.99874,3.27712-3.27712,5.4669,5.4669c1.5404,1.5404,1.5404,4.07752,0,5.61791l-14.84519,14.86029-14.86029-14.86029c-1.5404-1.5404-1.5404-4.07752,0-5.61792l5.4669-5.4669,3.27712,3.27712-5.01384,4.99874,10.31461,10.31461Z"/>
        </g>
        <g>
          <g>
            <polygon class="cls-11" points="886.32002 17.29413 896.91935 6.6948 875.73939 6.6948 875.73939 17.29413 875.73939 27.87477 865.14006 38.4741 886.32002 38.4741 886.32002 27.87477 886.32002 27.87477 886.32002 17.29413"/>
            <g>
              <polygon class="cls-17" points="886.32002 17.29413 886.32002 27.87477 886.32002 27.87477 896.91935 27.87477 896.91935 6.6948 886.32002 17.29413"/>
              <polygon class="cls-17" points="865.14006 38.4741 875.73939 27.87477 875.73939 17.29413 865.14006 17.29413 865.14006 38.4741"/>
            </g>
          </g>
          <g>
            <rect class="cls-13" x="934.41891" y="20.92071" width="2.16846" height="2.16847"/>
            <rect class="cls-13" x="930.9045" y="20.92071" width="2.16847" height="2.16847"/>
            <path class="cls-13" d="M926.58625,15.55561c0-1.27117-.24302-2.41149-.8973-3.10316-.76644-.82252-1.86937-1.15901-3.2527-1.15901h-4.35563v-1.06554h-2.01892v8.76734h-3.21532c-.91599,0-1.83198-.13086-2.35541-.57951-.48604-.39257-.65428-1.06554-.65428-1.98153v-4.54257h-2.35541v4.80428c0,1.25248.28041,2.48626,1.02815,3.19662.93468.8973,2.14978,1.27117,3.98176,1.27117h5.58942v-1.92544h8.52433v-3.68266h-.01869ZM924.41778,17.06981h-6.35586v-3.62658h4.57996c.56081,0,1.10293.26171,1.36464.5982.28041.35518.41126.80383.41126,1.42072v1.60765Z"/>
            <polygon class="cls-13" points="937.59684 10.52701 935.42837 10.52701 935.42837 17.06981 931.07274 17.06981 931.07274 6.6948 928.92296 6.6948 928.92296 19.23828 937.59684 19.23828 937.59684 10.52701"/>
            <rect class="cls-13" x="950.86937" y="6.6948" width="2.16846" height="12.54347"/>
            <rect class="cls-13" x="920.54818" y="7.38647" width="2.14978" height="2.14978"/>
            <rect class="cls-13" x="990.55609" y="6.6948" width="2.16846" height="2.18717"/>
            <rect class="cls-13" x="997.02411" y="20.9394" width="2.16846" height="2.16847"/>
            <path class="cls-13" d="M964.17928,19.23828h35.0133v-8.69257h-2.16846v6.54279h-4.31824v-6.54279h-2.16846v6.54279h-11.53402l-.01869-10.375h-2.16846l.01869,10.375h-12.28176c-.916,0-1.7759-.13086-2.29932-.57951-.48603-.41126-.65428-1.06554-.65428-1.98153v-2.6732h-2.39279v2.93491c0,1.25248.28041,2.48626,1.02815,3.19662.95336.8786,2.09367,1.25247,3.94435,1.25247Z"/>
            <path class="cls-13" d="M971.50721,12.77025h-2.28063v-.85991c0-.3178.07478-.57951.22433-.74775.13086-.16824.29909-.24302.52342-.24302h1.1964v-1.25248h-1.06554c-.67297,0-1.21509.22433-1.58896.63558-.35518.41126-.54212,1.00946-.54212,1.7759v1.94414h3.53311v-1.25247Z"/>
            <path class="cls-13" d="M942.06464,19.21958h6.48672V6.67611h-2.16848v10.375h-4.29955v-6.54279h-2.16846v8.43086c0,1.06554-.29909,1.51419-1.15901,1.51419-.26172,0-.52342-.01869-.82253-.09347v2.13108c.26172.07477.67297.13086,1.06554.13086,2.01892,0,2.93491-1.00946,3.06577-3.40226Z"/>
            <path class="cls-13" d="M917.29548,29.20202c0-2.05631-1.38333-4.01915-4.84167-4.01915h-4.97253v13.27253h2.35541v-5.23424h2.33671l3.23401,5.23424h2.65451l-3.47703-5.57072c1.98153-.63559,2.71059-2.14978,2.71059-3.68266ZM911.93039,31.18355h-2.0937v-3.79482h2.0937c1.94414,0,2.87883.54212,2.87883,1.86937,0,1.53287-1.15901,1.92545-2.87883,1.92545Z"/>
            <path class="cls-13" d="M938.92409,29.46373c-1.1964,0-2.3741.29909-3.06577.65428l-.28041,2.20585c.84122-.41126,2.14978-.76644,3.04707-.76644,1.1777,0,2.00023.28041,2.00023,1.25248v.13086c-.65428-.09347-1.23378-.13086-1.68243-.13086-2.3554,0-4.01915.99076-4.01915,2.93491,0,2.11239,1.94415,2.87883,4.09392,2.87883,1.27117,0,2.6732-.24302,3.75743-.67297v-5.0473c.00001-2.54236-1.62634-3.43966-3.8509-3.43966ZM940.62522,36.41779c-.46734.14955-1.04684.24302-1.58896.24302-1.06554,0-1.88806-.28041-1.88806-1.08423,0-.82253.916-1.10293,2.01892-1.10293.46734,0,1.06554.07478,1.45811.18694v1.75721Z"/>
            <path class="cls-13" d="M950.88805,29.57589c-.5795-.07478-1.10293-.13086-1.4955-.13086-2.9536,0-4.87905,2.01892-4.87905,4.59865s1.85068,4.54257,5.0473,4.54257c1.25248,0,2.41149-.14955,3.47702-.44865v-12.20698h-2.14978v3.64528ZM950.88805,36.32432c-.46734.11216-.916.16825-1.34595.16825-1.68243,0-2.78537-.76644-2.78537-2.44887s1.08423-2.48626,2.78537-2.48626c.39256,0,.82253.03739,1.34595.18694v4.57995Z"/>
            <path class="cls-13" d="M930.9045,36.11868c-.63558.18694-1.15901.22433-1.60766.22433-1.1964,0-1.70113-.46734-1.70113-2.05631v-4.54257h-2.16847v5.14077c0,2.84144,1.57027,3.5518,3.75743,3.5518.56081,0,1.14032-.05608,1.71982-.18694v.18694c0,1.00946-.93468,1.43942-2.26194,1.43942-.63558,0-1.53289-.14955-2.31802-.39256v2.05631c.69167.18694,1.62635.3178,2.22455.3178,3.42094,0,4.50518-1.06554,4.50518-4.11261v-8.0009h-2.14978v6.37454Z"/>
            <path class="cls-13" d="M975.15249,29.46373c-1.1964,0-2.3741.29909-3.06577.65428l-.28041,2.20585c.84122-.41126,2.14978-.76644,3.04707-.76644,1.1777,0,2.00023.28041,2.00023,1.25248v.13086c-.65428-.09347-1.23378-.13086-1.68243-.13086-2.3554,0-4.01915.99076-4.01915,2.93491,0,2.11239,1.94415,2.87883,4.09392,2.87883,1.27117,0,2.6732-.24302,3.75743-.67297v-5.0473c0-2.54236-1.62635-3.43966-3.8509-3.43966ZM976.85361,36.41779c-.46734.14955-1.04684.24302-1.58896.24302-1.06554,0-1.88806-.28041-1.88806-1.08423,0-.82253.916-1.10293,2.01892-1.10293.46734,0,1.06554.07478,1.45811.18694v1.75721Z"/>
            <path class="cls-13" d="M984.64888,29.51981c-.93468,0-2.54234.20563-3.88829.44865v8.50563h2.14978v-6.69234c.61689-.11216,1.1777-.16825,1.64504-.16825,1.27117,0,1.94415.46734,1.94415,2.05631v4.78558h2.14978v-5.38378c-.00001-2.84144-1.77591-3.5518-4.00046-3.5518Z"/>
            <polygon class="cls-13" points="995.07997 34.11846 999.00564 29.8189 996.4633 29.8189 992.55632 34.08108 992.55632 26.02409 990.40654 26.02409 990.40654 38.4741 992.55632 38.4741 992.55632 34.21192 996.63154 38.4741 999.21127 38.4741 995.07997 34.11846"/>
            <path class="cls-13" d="M966.85248,31.3331c1.25248-.56081,1.85068-1.68243,1.85068-2.80405,0-1.86937-1.4955-3.34617-4.80428-3.34617h-4.67342v13.27253h5.3277c2.43018,0,4.82297-1.12162,4.82297-3.88829,0-1.32726-.74775-2.69191-2.52365-3.23402ZM961.59955,27.38872h2.16846c1.79459,0,2.50496.63559,2.50496,1.55157,0,1.08423-.76644,1.60765-2.50496,1.60765h-2.16846v-3.15923ZM964.21667,36.28693h-2.63581v-3.51441h2.56104c1.73851,0,2.78537.37387,2.78537,1.7759.01868,1.19639-.85993,1.73851-2.7106,1.73851Z"/>
            <rect class="cls-13" x="920.54818" y="29.8189" width="2.14978" height="8.65518"/>
            <rect class="cls-13" x="920.54818" y="25.94931" width="2.14978" height="2.14978"/>
          </g>
        </g>
      </g>
    </g>
  </g>
</svg>