<?xml version="1.0" encoding="UTF-8"?>
<svg xmlns="http://www.w3.org/2000/svg" version="1.1" viewBox="0 0 487.45 18.17">
  <defs>
    <style>
      .cls-1 {
        fill: #00c8e1;
      }

      .cls-2 {
        fill: #e12626;
      }

      .cls-3 {
        fill: #fecc00;
      }

      .cls-4 {
        fill: #153c3f;
      }

      .cls-5 {
        fill: #d41123;
      }

      .cls-6 {
        fill: #d50029;
      }

      .cls-7 {
        fill: #3e2f81;
      }

      .cls-8 {
        fill: #0033a1;
      }

      .cls-9 {
        fill: #ea7524;
      }

      .cls-10 {
        fill: #ff8400;
      }
    </style>
  </defs>
  <!-- Generator: Adobe Illustrator 28.6.0, SVG Export Plug-In . SVG Version: 1.2.0 Build 709)  -->
  <g>
    <g id="Layer_1">
      <g>
        
        <polygon id="polygon2" class="cls-3" points=".81 17.36 .81 .81 75.81 .81 75.81 17.36 .81 17.36"/>
        <path id="path4" class="cls-6" d="M24.99,7.72c-.33.44-.88,1.22-1.21,1.67-.17.23-.48.65.54.65h5.34s.86-1.17,1.58-2.15c.98-1.33.08-4.1-3.42-4.1h-13.82l-2.4,3.26h13.06c.66,0,.65.25.33.69ZM21.07,10.84c-1.01,0-.71-.42-.54-.65.33-.45.89-1.21,1.22-1.66.32-.44.33-.69-.33-.69h-5.97l-4.81,6.54h11.74c3.88,0,6.03-2.64,6.7-3.55,0,0-6.93,0-8,0ZM28.7,14.39h6.88l2.61-3.55h-6.88s-2.61,3.55-2.61,3.55ZM46.46,3.78l-2.64,3.59h-3.07l2.64-3.59h-6.88l-4.6,6.25h16.84l4.6-6.25h-6.88ZM38.66,14.39h6.88l2.61-3.55h-6.88s-2.61,3.55-2.61,3.55ZM.81,12.24v.75h9.59l.55-.75H.81ZM11.98,10.84H.81v.75h10.62l.56-.75ZM.81,14.39h8.56l.55-.75H.81v.75ZM65.7,12.99h10.1v-.75h-9.55l-.55.75ZM64.68,14.39h11.13v-.75h-10.58l-.55.75ZM67.29,10.84l-.55.75h9.07v-.75h-8.52ZM58.27,10.03l4.6-6.25h-7.29s-4.61,6.25-4.61,6.25h7.29ZM50.39,10.84s-.5.69-.75,1.02c-.86,1.17-.1,2.53,2.72,2.53h11.05l2.61-3.55h-15.64Z"/>
      </g>
      <path class="cls-10" d="M151.22.83l-.48,1.81h42.15V.83h-41.67ZM150.45,3.71l-.48,1.81h42.92v-1.81h-42.44ZM149.67,6.58l-.49,1.81h43.71v-1.81h-43.21ZM91.01.83l1.54,1.81h16.37l.49-1.81h-18.4ZM93.48,3.72l1.54,1.81h13.13l.49-1.81h-15.17ZM95.92,6.62l1.54,1.81h9.89l.49-1.81h-11.93ZM98.39,9.49l1.54,1.81h6.66l.49-1.81h-8.69ZM100.85,12.38l1.54,1.81h3.42l.49-1.81h-5.46ZM103.32,15.28l1.68,1.97.53-1.97h-2.2Z"/>
      <path class="cls-8" d="M119.13,4.99c.25-.95.82-3.04,1.12-4.16h-8.31l-4.37,16.25h8.31c.38-1.41.77-2.91,1.12-4.16h-3.8l.53-1.99h3.8c.46-1.74.84-3.14,1.07-3.96h-3.8l.53-1.99h3.81ZM147.34,5.71l.77-2.89-2.32-1.99h-4.67l-2.97,1.99-1.68,6.23,1.81,1.71h3.52l-.62,2.35h-1.63l.25-.9h-4.16l-.77,2.83,2.32,2.05h4.83l2.97-1.99,1.66-6.18-2.27-1.96h-2.99l.58-2.17h1.45l-.25.9s4.17.02,4.17.02ZM136.89.83l-4.37,16.25h-4.16l2.53-9.43c-1.07,2.09-3.68,7.28-4.78,9.43h-1.77l.36-9.27-2.48,9.27h-4.16L122.41.83h5.39l-.03,6.84,3.68-6.84h5.44Z"/>
      <polyline class="cls-9" points="257.41 16.78 255.19 14.3 253 16.78 248.39 16.78 252.9 11.71 248.39 6.64 253.14 6.64 255.38 9.1 257.53 6.64 262.13 6.64 257.64 11.69 262.19 16.78 257.41 16.78"/>
      <polyline class="cls-9" points="239.52 .81 239.52 16.78 248.39 16.78 248.39 13.21 243.27 13.21 243.27 10.07 248.39 10.07 248.39 6.64 243.27 6.64 243.27 4.37 248.39 4.37 248.39 .81 239.52 .81"/>
      <path class="cls-7" d="M235.78.81v6.54h-.04c-.83-.95-1.86-1.28-3.06-1.28-2.46,0-4.31,1.67-4.96,3.88-.74-2.44-2.65-3.93-5.49-3.93-2.3,0-4.12,1.03-5.07,2.72v-2.09h-4.76v-2.27h5.19V.81h-9.44v15.98h4.24v-6.72h4.23c-.13.49-.19,1.02-.19,1.58,0,3.33,2.55,5.67,5.8,5.67,2.73,0,4.53-1.28,5.48-3.62h-3.64c-.49.7-.87.91-1.85.91-1.14,0-2.12-.99-2.12-2.17h7.4c.32,2.65,2.38,4.93,5.21,4.93,1.22,0,2.34-.6,3.02-1.61h.04v1.04h3.74V.81h-3.74M220.22,10.11c.24-1.01,1.02-1.68,2.01-1.68,1.08,0,1.83.64,2.02,1.68h-4.03ZM233.51,14.35c-1.38,0-2.24-1.29-2.24-2.63,0-1.43.75-2.81,2.24-2.81s2.16,1.38,2.16,2.81c0,1.36-.65,2.63-2.16,2.63"/>
      <path class="cls-9" d="M263.21,15.75c0-.56.46-1.02,1.03-1.02s1.02.46,1.02,1.02-.46,1.03-1.02,1.03-1.03-.46-1.03-1.03M265.09,15.75c0-.46-.38-.84-.84-.84s-.85.38-.85.84.38.85.85.85.84-.38.84-.85M264.02,15.82v.52h-.19v-1.21h.39c.22,0,.45.06.45.33,0,.14-.09.25-.25.28h0c.17.04.19.11.21.24.02.11.03.24.07.35h-.24c-.01-.07-.03-.14-.04-.22-.01-.1-.01-.2-.07-.26-.05-.05-.11-.04-.17-.05h-.16ZM264.22,15.63c.18,0,.22-.08.22-.17s-.04-.14-.19-.14h-.23v.31h.2Z"/>
      <g>
        <path class="cls-5" d="M292.08,10.11c-.5,0-.88-.38-.88-.86s.38-.88.88-.88.86.4.86.88-.4.86-.86.86h0Z"/>
        <path d="M288.66,2.63c1.62,0,3.13.44,4.41,1.2l1.53-1.2c-1.7-1.16-3.74-1.83-5.95-1.83s-4.24.67-5.92,1.83l1.51,1.2c1.3-.76,2.81-1.2,4.41-1.2h0ZM284.25,14.36l-1.51,1.17c1.68,1.16,3.74,1.83,5.92,1.83s4.24-.67,5.95-1.83l-1.53-1.17c-1.28.76-2.79,1.17-4.41,1.17s-3.11-.42-4.41-1.17h0ZM282.21,9.08c0-1.6.44-3.11,1.2-4.41l-1.2-1.51c-1.13,1.68-1.8,3.72-1.8,5.93s.67,4.25,1.8,5.95l1.2-1.54c-.76-1.3-1.2-2.79-1.2-4.41h0ZM293.93,13.49l1.18,1.54c1.15-1.7,1.83-3.74,1.83-5.95s-.67-4.24-1.83-5.93l-1.18,1.51c.76,1.3,1.18,2.82,1.18,4.41s-.42,3.11-1.18,4.41h0ZM285.99,13.05c-.84,0-1.58-.23-2.23-.71h-.02v-1.62l.11.1c.17.23.88.94,2.04.94.88,0,.97-.65.97-.94,0-.57-.59-.88-1.24-1.2l-.04-.02c-.86-.42-1.83-.88-1.83-2.12,0-1.13.95-1.98,2.25-2.04h.17c1.13,0,1.7.42,1.81.5l.02.02v1.39l-.1-.09c-.4-.36-1.05-.57-1.66-.57-.28,0-.53.04-.69.13-.28.12-.4.33-.4.65,0,.38.46.61,1.03.9l.1.04c.73.4,2,1.03,2,2.46,0,.61-.25,1.24-.65,1.59-.4.36-.99.57-1.62.57h0ZM290.47,13.1h-1.41v-7.17l.04-.02s1.22-.49,2.46-.49c1.34,0,2.02.51,2.02.51l.02.02v1.39l-.09-.06c-.13-.08-.72-.5-1.81-.52h-.06c-.57,0-.97.13-1.16.19l-.02.02v6.14h0ZM300.4,14.94h.6v-5.24h-.6v5.24h0ZM309.01,15h-.75v-.87h-2.11v-.63h2.11v-.9h-1.54v-.66h1.54v-.9h-1.96v-.63h1.96v-.81h.75v.81h1.96v.63h-1.96v.9h1.54v.66h-1.54v.9h2.11v.63h-2.11v.87h0ZM322.35,10.7h0l-.84-.81-.45.45.84.84.45-.48h0ZM322.38,13.32h0v-1.84h-1.32v.66h.69v1.26c-.09.69-.33.96-.81.96v.63c.54,0,.93-.24,1.17-.69.27.36.72.69,1.44.69h2.74v-.63h-2.74c-1.08,0-1.18-1.02-1.18-1.05h0ZM325.72,9.89h-2.74v.6h2.74v-.6h0ZM322.86,13.23h0l.97-1.45h-1.17v-.6h3.46v.6h-1.44l-1.05,1.51h1.47l-.33-.54.57-.33.84,1.39-.57.33-.15-.24h-2.59v-.66h0ZM317.5,12.59h.87v-1.62h-1.3v-.3h1.51v-.6h-1.48v-.48h-.66v.48h-1.48v.6h1.48v.3h-1.26v1.62h.84c-.12.45-.42.67-.87.67v.57c.48,0,1.02-.15,1.3-.78v1.17h.63v-1.17c.27.63.84.78,1.33.78v-.57c-.45,0-.78-.21-.9-.67h0ZM316.45,12.02h-.63v-.48h.63v.48h0ZM317.08,11.54h.63v.48h-.63v-.48h0ZM314.64,10.7h0l-.84-.81-.48.45.84.84.48-.48h0ZM314.67,13.32h0s.09,1.05,1.15,1.05h2.77v.63h-2.77c-.72,0-1.15-.33-1.42-.69-.24.45-.66.69-1.17.69v-.63c.45,0,.69-.27.78-.96v-1.26h-.67v-.66h1.32v1.84h0ZM299.26,9.7h-.58v3.73c0,.54-.09.81-.3.96l.27.54c.3-.18.57-.54.6-1.29v-3.94h0ZM302.9,13.62h0v-1.96h-.57v1.96c-.03.33-.03.72-.9.72v.6h.03c.6-.03.96-.21,1.15-.42.21.21.57.39,1.14.42h.06v-.6c-.87,0-.9-.39-.9-.72h0ZM301.28,10.31h0v-.57h2.68v.57h-1.2l-.18.42h1.26v3.1h-.63v-2.53h-1.17v2.53h-.63v-3.1h.57l.18-.42h-.87ZM299.53,14.16h.6v-4.09h-.6v4.09h0ZM298.68,3.32h3.22v.93h-1.99v1.11h1.75v.93h-1.75v1.24h1.99v.99h-3.22V3.32h0ZM302.75,7.6h0l.96-1.72-.45-.81c-.3-.54-.66-1.15-.99-1.75h1.29l.72,1.3.75-1.3h1.29c-.15.27-.33.6-.48.87l-.96,1.72.45.81c.3.54.69,1.2,1.02,1.81h-1.29l-.78-1.36-.78,1.36h-1.24s.33-.66.48-.93h0ZM325.87,5.7h0c-.18-.15-.36-.24-.54-.3l-.18-.09c-.6-.24-.9-.39-.9-.72,0-.21.18-.51.66-.51.54,0,.9.25,1.18.42l.06.03v-1.05l-.03-.03c-.3-.12-.63-.27-1.3-.27-1.35,0-1.84.78-1.84,1.56,0,.9.69,1.2,1.08,1.42l.24.12c.48.21.87.39.87.78,0,.27-.24.6-.87.6s-1.05-.3-1.23-.48l-.09-.03v1.15h.03c.09.03.15.09.24.09.15.06.6.21,1.11.21.21,0,.75-.03,1.2-.24.6-.3.84-.87.84-1.47,0-.42-.15-.87-.54-1.17h0ZM322.02,5.7h0c-.21-.15-.39-.24-.57-.3l-.18-.09c-.6-.24-.9-.39-.9-.72,0-.21.21-.51.66-.51.54,0,.93.25,1.17.42l.09.03v-1.05l-.06-.03c-.3-.12-.6-.27-1.29-.27-1.36,0-1.81.78-1.81,1.56,0,.9.66,1.2,1.06,1.42l.24.12c.51.21.87.39.87.78,0,.27-.24.6-.84.6-.66,0-1.05-.3-1.26-.48l-.06-.03v1.15h.03l.21.09c.18.06.6.21,1.14.21.21,0,.75-.03,1.18-.24.6-.3.84-.87.84-1.47,0-.42-.15-.87-.51-1.17h0ZM310.94,8.53h0V3.32h1.39c.84-.03,1.23.06,1.59.27.6.3.69.93.69,1.27,0,.99-.66,1.29-.99,1.45.18.3,1.17,1.86,1.44,2.23h-1.44c-.48-.96-.6-1.12-1.08-1.96l-.33.03v1.93h-1.26ZM312.21,5.67h0c.36,0,.63-.03.82-.15.27-.15.33-.45.33-.66,0-.6-.57-.66-.84-.66-.09,0-.18,0-.3.03v1.45h0ZM306.73,8.53h0V3.32h1.87c1,0,1.96.33,1.96,1.66,0,1.51-1.32,1.93-2.53,1.93v1.63h-1.29ZM307.99,5.85h0s.51,0,.84-.09c.33-.09.57-.39.57-.75,0-.3-.15-.6-.57-.69-.24-.03-.69-.03-.84-.03v1.57h0ZM315.37,3.32h3.22v.93h-1.99v1.11h1.75v.93h-1.75v1.24h1.99v.99h-3.22V3.32h0Z"/>
      </g>
      <path class="cls-2" d="M353.65,2.99c-.69-.7-1.44-1.23-2.25-1.58-.81-.35-1.69-.53-2.61-.53-2.01,0-3.72.77-5.13,2.3-1.41,1.54-2.11,3.51-2.11,5.91,0,2.32.73,4.26,2.18,5.82,1.45,1.56,3.18,2.34,5.17,2.34.89,0,1.72-.16,2.48-.48.76-.32,1.52-.84,2.28-1.57v1.65h3.89V1.29h-3.89v1.7ZM352.62,12.39c-.8.86-1.81,1.28-3.02,1.28-1.18,0-2.17-.44-2.97-1.31-.81-.87-1.21-1.98-1.21-3.33s.4-2.44,1.19-3.29c.79-.86,1.79-1.28,2.98-1.28s2.24.42,3.04,1.26c.8.84,1.06,1.8,1.06,3.16,0,1.39-.26,2.65-1.06,3.51M379.87,2.99c-.69-.7-1.44-1.23-2.25-1.58-.82-.35-1.69-.53-2.61-.53-2.01,0-3.72.77-5.13,2.3-1.41,1.54-2.11,3.51-2.11,5.91,0,2.32.72,4.26,2.18,5.82,1.45,1.56,3.18,2.34,5.17,2.34.89,0,1.71-.16,2.47-.48.76-.32,1.52-.84,2.28-1.57v1.65h3.89V1.29h-3.89v1.7ZM378.84,12.39c-.8.86-1.81,1.28-3.02,1.28-1.18,0-2.17-.44-2.98-1.31-.81-.87-1.21-1.98-1.21-3.33,0-1.34.39-2.44,1.19-3.29.79-.86,1.79-1.28,2.98-1.28s2.24.42,3.04,1.26c.8.84,1.06,1.8,1.05,3.16,0,1.39-.26,2.65-1.06,3.51M407.18,1.67c-.84-.52-1.8-.77-2.91-.77-1.07,0-2.04.24-2.94.72-.9.48-1.65,1.18-2.27,2.11-.47-.93-1.1-1.63-1.87-2.11-.78-.48-1.65-.72-2.62-.73-.96,0-1.84.18-2.66.55-.81.36-1.55.92-2.22,1.66v-1.81h-3.9v15.57s3.89,0,3.89,0v-6.91c0-1.49.14-2.59.4-3.28.26-.7.66-1.23,1.19-1.62.53-.38,1.12-.58,1.77-.58.58,0,1.08.15,1.49.46.41.31.72.77.92,1.39.21.62.31,1.63.31,3.02v7.51s3.89,0,3.89,0v-7c0-1.49.13-2.56.39-3.23.26-.67.65-1.2,1.18-1.58.53-.38,1.13-.57,1.8-.57.88,0,1.53.31,1.97.93.44.63.66,1.82.66,3.58v7.87s3.89,0,3.89,0V7.74c0-1.87-.18-3.22-.54-4.05-.36-.83-.96-1.51-1.8-2.02M423.12,12.27c-1.04,1.04-2.29,1.55-3.74,1.55-1.22,0-2.21-.34-2.99-1-.78-.66-1.26-1.55-1.44-2.68h12.49s.02-.73.02-.73c0-2.56-.76-4.63-2.29-6.19-1.53-1.56-3.51-2.34-5.95-2.35-2.3,0-4.21.78-5.73,2.35-1.53,1.57-2.29,3.54-2.29,5.91,0,2.32.76,4.25,2.29,5.79,1.52,1.54,3.5,2.31,5.93,2.31,1.56,0,2.91-.28,4.05-.84,1.14-.56,2.11-1.42,2.93-2.59l-3.27-1.55ZM416.56,5.11c.82-.6,1.77-.9,2.85-.9,1,0,1.88.27,2.63.8.76.54,1.26,1.23,1.52,2.09h-8.43c.44-.95.91-1.62,1.43-1.99M436.68,8.62l5.26-7.33h-4.44l-3.05,4.24-3.06-4.24h-4.51l5.32,7.38-5.88,8.19h4.44l3.66-5.1,3.68,5.1h4.51l-5.94-8.24ZM366.91.81c-.72,0-1.35.14-1.87.4-.52.26-1.11.73-1.78,1.43v-1.35h-3.72v15.57h3.89v-8.1c0-2.97.82-4.46,2.8-4.46.34,0,.7.07,1.05.21.64-1.07,1.38-2.07,2.2-3-.89-.46-1.75-.7-2.58-.7"/>
      <path id="Shape" class="cls-1" d="M462.57,14.92c-2.01,0-3-1.01-3-3v-1.89l1.83,1.11v.85c0,.85.4,1.24,1.24,1.24h.08c.85,0,1.24-.4,1.24-1.24v-1.41c0-.82-.23-1.21-.82-1.57l-2-1.21c-1.23-.74-1.57-1.71-1.57-3.04v-.92c0-2.04,1.01-3.04,3.04-3.04h.21c2.01,0,3,1.01,3,3v1.19l-1.83-1.11v-.15c0-.85-.4-1.24-1.24-1.24h-.08c-.85,0-1.24.4-1.24,1.24v1.01c-.07.65.27,1.27.85,1.57l1.97,1.19c1.27.77,1.56,1.64,1.56,3.04v1.34c0,2.03-1.01,3.04-3.04,3.04h-.21ZM475.36,12.36V.95h1.87v9.54h.82v1.87h-2.7ZM479.93,12.36v-1.87h6.71l-1.14,1.87h-5.57ZM469.57,12.36h-1.87V.95h3.74c.61,0,1.74.41,2.11,1.96h0s.01.05.02.08c.02.07.03.15.04.23v.04s.01.05.02.07c.01.09.02.18.03.26v.08c0,.12.01.23.01.32v1.62c0,.1,0,.2-.01.32v.08c0,.09-.02.18-.03.26,0,.02,0,.05,0,.07v.04c-.02.08-.03.16-.05.23,0,.01,0,.02,0,.03h0s0,.04,0,.04c-.37,1.55-1.5,1.96-2.11,1.96h-1.87v3.7h0ZM469.57,6.97h.99c.34.03.68-.08.94-.3.22-.26.33-.6.3-.94v-1.86c0-.85-.39-1.24-1.24-1.24h-.99v4.34Z"/>
      <path id="Shape-2" class="cls-4" d="M469.24,16.09l1.27-1.27,1.27,1.27-1.27,1.27-1.27-1.27ZM462.56,16.6c-2.93,0-4.82-1.59-4.82-4.68v-3l1.83,1.11v1.89c0,1.99.99,3,3,3h.21c2.03,0,3.04-1.01,3.04-3.04v-6.89l1.87,1.13v6.23h1.87v-3.7h1.87v3.7h2.04v-2.95h1.87v2.95h2.7v-2.95h1.87v2.95h3.55c-.38,1.12-1.33,1.68-2.85,1.68h-13.33c-.66,1.52-2.16,2.57-4.52,2.57h-.21ZM481.8,10.48v-1.83l1.87-1.14v2.96h-1.87Z"/>
    </g>
  </g>
</svg>