<svg xmlns="http://www.w3.org/2000/svg" version="1.1" viewBox="97 0 33 18.17">
  <defs>
    <style>
      .cls-1 {
        fill: #006e90;
      }

      .cls-2 {
        fill: #66cde7;
      }

      .cls-3 {
        fill: #fd0;
      }

      .cls-4 {
        fill: #1434cb;
      }

      .cls-5 {
        fill: #003087;
      }

      .cls-6 {
        fill: #fff;
      }

      .cls-7 {
        fill: #0070e0;
      }

      .cls-8 {
        fill: #d92b2b;
      }

      .cls-9 {
        fill: #eb001b;
      }

      .cls-10 {
        fill: #001c64;
      }

      .cls-11 {
        fill: #e7e8e3;
      }

      .cls-12 {
        fill: #202121;
        isolation: isolate;
        opacity: .15;
      }

      .cls-13 {
        fill: #ff5f00;
      }

      .cls-14 {
        fill: #df2127;
      }

      .cls-15 {
        fill: #f79e1b;
      }
    </style>
  </defs>
  <!-- Generator: Adobe Illustrator 28.6.0, SVG Export Plug-In . SVG Version: 1.2.0 Build 709)  -->
  <g>
    <g id="Layer_1">
      <g id="Layer_1-2" data-name="Layer_1">
        <path class="cls-4" d="M66.93.82c-3.62,0-6.86,1.88-6.86,5.34,0,3.98,5.74,4.25,5.74,6.25,0,.84-.96,1.59-2.61,1.59-2.34,0-4.08-1.05-4.08-1.05l-.75,3.5s2.01.89,4.68.89c3.96,0,7.07-1.97,7.07-5.5,0-4.2-5.76-4.47-5.76-6.32,0-.66.79-1.38,2.43-1.38,1.85,0,3.36.77,3.36.77l.73-3.38s-1.64-.71-3.96-.71h.01ZM33.8,1.08l-.09.51s1.52.28,2.9.84c1.77.64,1.89,1.01,2.19,2.16l3.24,12.5h4.35L53.08,1.08h-4.34l-4.3,10.88-1.76-9.22c-.16-1.06-.98-1.66-1.97-1.66,0,0-6.91,0-6.91,0ZM54.82,1.08l-3.4,16.01h4.14l3.39-16.01h-4.13ZM77.88,1.08c-1,0-1.53.53-1.91,1.47l-6.06,14.54h4.34l.84-2.42h5.28l.51,2.42h3.83l-3.34-16.01s-3.49,0-3.49,0ZM78.45,5.4l1.29,6.01h-3.44l2.16-6.01h-.01Z"/>
        <g>
          <path class="cls-9" d="M108.03.87c-4.54,0-8.2,3.7-8.19,8.24.01,4.54,3.7,8.2,8.24,8.19s8.2-3.7,8.19-8.24c-.01-4.52-3.67-8.17-8.19-8.19,0,0-.05,0-.05,0Z"/>
          <path class="cls-15" d="M118.18.87c-4.54,0-8.2,3.7-8.19,8.24,0,4.54,3.7,8.2,8.24,8.19s8.2-3.7,8.19-8.24c-.01-4.52-3.67-8.17-8.19-8.19,0,0-.05,0-.05,0Z"/>
          <path class="cls-13" d="M113.13,2.62c-3.57,2.8-4.19,7.97-1.39,11.53.4.52.87.98,1.39,1.39,3.57-2.8,4.19-7.97,1.39-11.53-.4-.52-.87-.98-1.39-1.39"/>
        </g>
        <g>
          <path class="cls-5" d="M1.51,12.58s-.1.04-.1.09l-.6,3.79s.03.1.08.11h.72s.1-.04.1-.09l.18-1.11c0-.05.05-.09.1-.09h.64c.75,0,1.39-.55,1.51-1.29.12-.75-.47-1.41-1.3-1.41h-1.34.01ZM2.2,13.42h.52c.42,0,.56.25.52.53s-.26.48-.67.48h-.52l.16-1.01h0ZM5.59,13.68c-.18,0-.39.04-.62.13-.53.22-.79.68-.89,1.01,0,0-.34,1.02.43,1.57,0,0,.72.54,1.53-.03v.09s.01.1.07.11h.68c.05,0,.1-.04.1-.09l.41-2.6c0-.05-.03-.1-.08-.11h-.68c-.05,0-.1.04-.1.09l-.02.14h0s-.29-.32-.83-.32h0ZM5.61,14.5c.08,0,.15.01.21.03.29.09.46.37.41.67-.06.37-.36.65-.76.65-.08,0-.15-.01-.21-.03-.29-.09-.46-.37-.41-.67.06-.37.37-.65.76-.65h0Z"/>
          <path class="cls-7" d="M11.2,12.58c-.05,0-.1.04-.1.09l-.6,3.79s.03.1.08.11h.73c.05,0,.1-.04.1-.09l.18-1.11c0-.05.05-.09.1-.09h.64c.75,0,1.39-.55,1.51-1.29.12-.75-.47-1.41-1.3-1.41h-1.34ZM11.89,13.42h.52c.42,0,.56.25.52.53s-.26.48-.67.48h-.52l.16-1.01h0ZM15.28,13.68c-.18,0-.39.04-.62.13-.53.22-.79.68-.89,1.01,0,0-.34,1.02.43,1.57,0,0,.72.54,1.53-.03v.09s.01.1.07.11h.69s.1-.04.1-.09l.41-2.6c0-.05-.03-.1-.08-.11h-.69s-.1.04-.1.09l-.02.14s-.29-.32-.83-.32h0ZM15.3,14.5c.08,0,.15.01.21.03.29.09.45.37.41.67-.06.37-.36.65-.76.65-.08,0-.15-.01-.21-.03-.29-.09-.46-.37-.41-.67.06-.37.36-.65.76-.65h0Z"/>
          <path class="cls-5" d="M7.64,13.77s-.08.04-.08.08v.02l.74,2.29-.67,1.08s0,.12.07.12h.79s.09-.02.11-.06l2.06-3.41c.03-.05,0-.12-.07-.12h-.79s-.09.02-.11.06l-.81,1.37-.41-1.36s-.05-.07-.1-.07c0,0-.73,0-.73,0Z"/>
          <path class="cls-7" d="M17.77,12.58s-.1.04-.1.09l-.6,3.79s.03.1.08.11h.73s.1-.04.1-.09l.6-3.79c0-.05-.03-.1-.08-.11h-.73Z"/>
          <path class="cls-10" d="M9.02,2.8c-.14,0-.26.1-.28.24l-.47,2.99-.43,2.75h0l.43-2.75c.02-.14.14-.24.28-.24h1.38c1.39,0,2.57-1.01,2.79-2.39.02-.1.03-.21.03-.31h0c-.35-.19-.77-.29-1.22-.29h-2.51Z"/>
          <path class="cls-7" d="M12.74,3.09c0,.1-.01.21-.03.31-.22,1.37-1.4,2.39-2.79,2.39h-1.38c-.14,0-.26.1-.28.24l-.43,2.75-.27,1.72c-.02.13.07.25.19.27h1.54c.14,0,.26-.1.28-.24l.39-2.51c.02-.14.14-.24.28-.24h.88c1.39,0,2.57-1.01,2.79-2.39.15-.98-.34-1.86-1.18-2.3h0Z"/>
          <path class="cls-5" d="M7.31.81c-.14,0-.26.1-.28.24l-1.18,7.46c-.02.13.07.25.19.27h1.78l.43-2.75.47-2.99c.02-.14.14-.24.28-.24h2.5c.45,0,.87.11,1.22.29.02-1.25-1.01-2.28-2.43-2.28h-3,.02Z"/>
        </g>
        <g>
          <path class="cls-3" d="M149.91,15.38c1.52,2.6,4.01,2.6,5.48,0l.85-1.47-7.51-13.1h-7.17l8.36,14.57h-.01ZM165.83,9.8c-.56.96-1.86.96-2.37,0l-5.19-8.98h-7.17l8.41,14.57c1.52,2.6,3.95,2.6,5.48,0l5.65-9.77-2.77-4.8h-7.17l5.14,8.98h0Z"/>
          <path d="M175.53,8.51h1.46v-.03c.92-3.36,1.29-4.82,1.43-5.7.14.88.51,2.34,1.36,5.7v.03h1.49l2.1-7.71h-1.36v.03c-.92,3.5-1.26,4.92-1.43,5.8-.17-.98-.58-2.58-1.43-5.8v-.03h-1.43v.03c-.88,3.46-1.26,4.96-1.43,5.91-.17-.95-.58-2.48-1.46-5.91v-.03h-1.43l2.07,7.64.03.07h.03ZM185.72,8.61c1.12,0,2.17-.61,2.58-1.49l-1.02-.51h-.03l-.03.03c-.14.27-.58.85-1.53.85-.85,0-1.49-.54-1.6-1.32h4.38v-.07c.03-1.09-.27-1.97-.85-2.55-.51-.51-1.19-.78-2-.78s-1.53.31-2.04.85-.81,1.29-.81,2.1c.03,1.66,1.26,2.89,2.95,2.89h0ZM185.65,3.83c.81,0,1.43.51,1.49,1.22h-2.99c.07-.68.71-1.22,1.49-1.22h0ZM191.28,8.61c1.43,0,2.31-.68,2.31-1.73,0-1.26-1.15-1.56-2.07-1.8-.64-.17-1.19-.31-1.19-.71,0-.34.34-.54.85-.54.54,0,.92.27.98.75l.03.24h.03l1.15-.2c0-1.05-.95-1.83-2.17-1.83s-2.14.71-2.14,1.7c0,1.22,1.12,1.49,2,1.73.64.17,1.22.34,1.22.75,0,.37-.37.61-.95.61-.71,0-1.15-.34-1.22-.85v-.1l-1.22.24c-.03,1.12,1.26,1.76,2.38,1.76h0v-.02ZM194.61,7.46c0,.64.41,1.15,1.09,1.15.81,0,1.09-.1,1.09-.1v-1.09s-.24.03-.54.03c-.2,0-.34-.14-.34-.31v-3.26h.88v-1.09h-.92v-1.56l-1.26.31v1.29h-.64v1.09h.64v3.53h0ZM204.49,3.56v-.71h-1.12v5.67h1.32v-3.46c0-.34.14-.61.34-.78.27-.24.71-.31,1.29-.24h.07v-1.19h-.07c-.75-.14-1.49.14-1.83.71h0ZM210.02,2.74c-.81,0-1.56.31-1.93.92v-.81h-1.15v5.67h1.36v-3.05c0-.98.51-1.56,1.36-1.56.58,0,1.29.27,1.29,1.46v3.12h1.36v-3.29c0-1.8-1.19-2.44-2.27-2.44h0l-.02-.02ZM178.85,14.03c0,1.29-.61,2.04-1.73,2.04s-1.73-.71-1.73-2.04v-4.51h-1.36v4.48c0,2.07,1.15,3.33,3.09,3.33s3.09-1.26,3.09-3.33v-4.48h-1.36s0,4.51,0,4.51ZM184.08,11.46c-.81,0-1.56.31-1.93.92v-.81h-1.15v5.67h1.36v-3.05c0-.98.51-1.56,1.36-1.56.58,0,1.29.27,1.29,1.46v3.12h1.36v-3.29c-.03-1.8-1.19-2.44-2.27-2.44h0l-.02-.02ZM187.17,11.56h1.32v5.67h-1.32s0-5.67,0-5.67ZM187.85,9.45c-.44,0-.78.34-.78.78s.34.75.78.75.78-.34.78-.75c-.03-.41-.37-.78-.78-.78ZM192.09,11.46c-.81,0-1.6.31-2.14.85s-.85,1.29-.85,2.1c0,1.7,1.26,2.95,2.99,2.95s2.99-1.22,2.99-2.95c0-.81-.31-1.56-.85-2.1-.54-.58-1.29-.85-2.14-.85h0ZM192.09,16.11c-.95,0-1.7-.75-1.7-1.73s.71-1.73,1.7-1.73,1.7.75,1.7,1.73-.71,1.73-1.7,1.73h0ZM198.78,11.46c-.81,0-1.56.31-1.93.92v-.81h-1.15v5.67h1.36v-3.05c0-.98.51-1.56,1.36-1.56.58,0,1.29.27,1.29,1.46v3.12h1.36v-3.29c0-1.8-1.15-2.44-2.27-2.44h0l-.02-.02ZM199.94,2.74c-.81,0-1.53.31-2.04.85-.51.54-.81,1.29-.81,2.1,0,1.73,1.22,2.92,2.95,2.92,1.12,0,2.17-.61,2.58-1.49l-1.02-.51h-.03l-.03.03c-.14.27-.58.85-1.53.85-.85,0-1.49-.54-1.6-1.32h4.38v-.07c.03-1.09-.27-1.97-.85-2.55-.51-.54-1.19-.81-2-.81h0ZM198.41,5.08c.1-.71.71-1.22,1.53-1.22s1.43.51,1.49,1.22h-3.02Z"/>
        </g>
        <g>
          <g>
            <path d="M254.54,4.6h-.44c-.43,0-.61.12-.9.59l-2.33,3.78-.97-3.74c-.11-.45-.24-.62-.73-.62h-.36c-.48,0-.78.28-.87.78l-1.08,6.08c-.08.46.12.7.52.7h.17c.42,0,.6-.21.68-.66l.87-4.91.84,3.29c.07.33.14.55.77.55.53,0,.66-.19.84-.49l2.06-3.38-.87,4.91c-.08.47.12.7.51.7h.18c.42,0,.6-.22.68-.66l1.07-6.12c.09-.49-.15-.8-.63-.8h0Z"/>
            <path d="M261.05,8.95c-.05-1.48-1.05-2.56-2.74-2.56-1.93,0-3.1,1.57-3.05,3.29.06,1.57,1.15,2.58,2.74,2.58,1.98-.01,3.1-1.59,3.05-3.31ZM258.01,11.17c-.91,0-1.48-.66-1.51-1.55-.04-1.16.72-2.18,1.8-2.18.83,0,1.49.66,1.52,1.56.03,1.22-.73,2.17-1.81,2.17h0Z"/>
            <path d="M265.34,6.39c-.8,0-1.44.4-1.86,1.06.04-.76-.37-.98-.8-.98-.2,0-.35.05-.36.07l-.87,4.94c-.08.51.2.66.57.66h.16c.41,0,.57-.17.66-.66l.52-2.97c.37-.66.79-.97,1.44-.97s1.03.39,1.04,1.02c.01.17-.03.37-.06.62l-.41,2.29c-.08.51.21.66.57.66h.16c.41,0,.57-.17.66-.66l.45-2.53c.05-.28.08-.53.07-.76-.03-1.06-.74-1.81-1.92-1.81h0l-.02.02Z"/>
            <path d="M289.97,6.39c-.66,0-1.15.37-1.48,1.06.05-.76-.36-.98-.79-.98-.21,0-.35.05-.36.07l-.88,4.94c-.08.51.25.66.62.66h.16c.35,0,.52-.17.61-.66l.29-1.66c.22-1.29.7-2.19,1.47-2.19.37,0,.61.16.77.33.02.02.6-.21.58-.9-.03-.43-.46-.7-.99-.7h0v.03Z"/>
            <path d="M296.7,6.47c-.54,0-.84.26-1.02.95-.34-.65-1.05-1.04-1.87-1.04-1.75,0-2.97,1.56-2.97,3.33,0,1.46.9,2.54,2.31,2.54.86,0,1.53-.35,1.96-1.07-.06.75.08.98.62.98.48,0,.63-.18.69-.71.06-.98.4-2.57.78-4.81,0-.04-.22-.17-.5-.17ZM293.45,11.17c-.85,0-1.34-.54-1.34-1.5,0-1.12.66-2.25,1.87-2.25.99,0,1.41.73,1.41,1.53,0,1.01-.69,2.22-1.94,2.22Z"/>
            <path d="M305,6.39c-.96,0-1.59.49-2.04,1.21-.22-.76-.87-1.21-1.71-1.21-.73,0-1.36.34-1.8,1,.02-.7-.39-.91-.8-.91-.21,0-.35.05-.36.07l-.87,4.94c-.08.51.2.66.57.66h.16c.35,0,.57-.15.66-.66l.54-3.07c.4-.61.77-.87,1.35-.87s.93.43.93,1.07c0,.1-.01.22-.03.34l-.44,2.53c-.08.51.21.66.57.66h.15c.35,0,.58-.16.67-.66l.54-3.07c.4-.61.77-.87,1.35-.87.55,0,.96.33.96,1.02,0,.17-.03.37-.07.62l-.41,2.29c-.08.51.2.66.57.66h.16c.41,0,.57-.17.66-.66l.45-2.53c.05-.28.07-.53.07-.76.01-1.11-.74-1.81-1.81-1.81h-.02Z"/>
            <path d="M273.58,8.86c0-.77-.16-1.28-.5-1.73-.37-.48-1.07-.77-1.88-.77-2.46,0-3.34,1.81-3.34,3.38s1.08,2.5,2.75,2.5,2.6-.74,2.6-1.33c0-.4-.28-.53-.6-.56-.44.56-1.04.83-1.86.83-.73,0-1.59-.28-1.66-1.58h3.78c.41.01.72-.22.72-.74h-.01ZM272.36,8.69h-3.15c.3-.8,1-1.3,1.88-1.3.45,0,.79.12,1.02.37.2.23.27.54.25.93Z"/>
            <path d="M285.31,8.1h-2.25c-.27,0-.4.06-.48.15-.14.15-.21.48-.21.62.01.23.21.36.57.36h1.59c-.22,1.11-.93,1.88-2.14,1.88-1.28,0-2.13-.81-2.19-2.2-.06-1.74,1.09-3.17,2.73-3.17.96,0,1.71.51,2.01,1.19.04.05.93.05.9-.71-.01-.27-.17-.59-.46-.86-.47-.47-1.35-.87-2.53-.87-1.64,0-2.95.91-3.62,2.22,0-.01-.01-.01-.01-.01-.14-.18-.35-.26-.57-.26-.36,0-.6.11-.96.74l-1.75,3.07-.66-3.06c-.12-.57-.33-.75-.7-.75-.43,0-.77.31-.76.39l1.25,4.94-1.29,2.12c-.14.23-.15.53.34.53h.27c.51,0,.68-.31.93-.74l3.52-5.95c-.1.42-.16.86-.14,1.32.06,2,1.42,3.21,3.39,3.21.94,0,1.69-.35,2.1-.9-.03.58.28.81.7.81.23,0,.4-.07.4-.11l.57-3.21c.09-.5-.09-.75-.56-.75h.01Z"/>
            <g>
              <path d="M308.3,11.54c.04.07.07.1.12.1,0,0,.01.08-.09.08-.06,0-.1-.03-.17-.15l-.11-.21h-.1l-.05.29s-.03.06-.07.06h-.02s-.06-.02-.05-.07l.15-.75c.01-.05.04-.07.09-.07h.22c.2,0,.31.08.31.23,0,.18-.11.29-.31.3l.09.18h-.01ZM308.17,11.26c.14,0,.21-.07.2-.19,0-.08-.06-.14-.18-.14h-.16l-.06.31h.2v.02Z"/>
              <path d="M308.14,10.59c.41,0,.73.33.73.73s-.33.73-.73.73-.73-.33-.73-.73c-.01-.4.32-.73.73-.73M308.14,10.47c-.47,0-.85.39-.85.85s.39.85.85.85.85-.39.85-.85-.39-.85-.85-.85h0Z"/>
            </g>
          </g>
          <circle class="cls-6" cx="235.68" cy="9.06" r="8.25"/>
          <path class="cls-14" d="M243.93,9.06c0,4.56-3.7,8.25-8.25,8.25s-8.25-3.7-8.25-8.25c0-1.26.28-2.45.78-3.51-.33.84-.49,1.69-.49,2.47,0,3.74,3.02,4.28,4.3,4.27,1.96-.02,4.24-.98,6.16-2.75,0,0-.25,1.39-.32,1.82-.07.42.2.78.61.78h.17c.43,0,.74-.35.81-.78l.7-3.89c.08-.44-.2-.78-.63-.78h-3.89c-.44,0-.83.23-.91.67,0,.02-.03.15-.03.18-.06.42.23.73.65.73h2.03l-.09.09c-1.41,1.32-3.14,2.05-4.58,2.05s-3.03-.91-3.03-2.94c0-4.22,3.96-6.66,6.03-6.66,4.55,0,8.25,3.7,8.25,8.25h-.02Z"/>
        </g>
        <g>
          <path class="cls-11" d="M348.06,15.9c0,.78-.63,1.42-1.42,1.42h-21.11c-.78,0-1.42-.63-1.42-1.42V2.22c0-.78.63-1.42,1.42-1.42h21.11c.78,0,1.42.63,1.42,1.42v13.68h0Z"/>
          <path class="cls-12" d="M325.13,15.9V2.22c0-.78.63-1.42,1.42-1.42h-1.01c-.78,0-1.41.63-1.41,1.42v13.68c0,.78.63,1.42,1.42,1.42h1.01c-.78,0-1.42-.63-1.42-1.42h-.01Z"/>
          <g>
            <path class="cls-1" d="M330.95,5.48h1.78c.65-.01,1.37.16,1.37.95,0,.34-.2.62-.5.77.4.12.66.47.66.9,0,.91-.67,1.18-1.48,1.18h-1.83v-3.8h0ZM331.95,6.98h.77c.17,0,.4-.09.4-.36s-.2-.37-.4-.37h-.77v.73h0ZM331.95,8.49h.79c.31,0,.53-.11.53-.43,0-.34-.23-.45-.53-.45h-.79v.87h0Z"/>
            <path class="cls-1" d="M335.83,5.48h1.01l1.42,3.8h-1.03l-.23-.68h-1.33l-.24.68h-1.02l1.42-3.8h0ZM335.9,7.87h.86l-.42-1.33h-.01l-.43,1.33h0Z"/>
            <path class="cls-1" d="M338.54,5.48h1.02l1.32,2.34h.01v-2.34h.93v3.8h-1.02l-1.32-2.37h-.01v2.37h-.93s0-3.8,0-3.8Z"/>
            <path class="cls-1" d="M342.49,5.48h.99v1.46l1.25-1.46h1.23l-1.41,1.5,1.58,2.31h-1.23l-1.02-1.6-.4.43v1.17h-.99v-3.8h0Z"/>
          </g>
          <g>
            <path class="cls-2" d="M328.46,10.66h-.78v2.03h-.68v-2.03h-.78v-.59h2.24v.59Z"/>
            <path class="cls-2" d="M328.76,10.07h1.33c.46,0,.92.21.92.74,0,.28-.14.55-.41.66h0c.28.07.36.38.38.63,0,.11.02.49.11.59h-.67c-.06-.09-.07-.34-.08-.42-.02-.26-.06-.54-.38-.54h-.52v.95h-.68v-2.62h0ZM329.45,11.21h.57c.21,0,.32-.11.32-.31s-.15-.28-.34-.28h-.54v.59h-.01Z"/>
            <path class="cls-2" d="M332.12,10.07h.69l.98,2.62h-.71l-.16-.47h-.91l-.16.47h-.7l.98-2.62h-.01ZM332.17,11.72h.59l-.29-.92h0l-.3.92Z"/>
            <path class="cls-2" d="M333.99,10.07h.7l.91,1.61h0v-1.61h.64v2.62h-.7l-.91-1.63h0v1.63h-.64v-2.62h0Z"/>
            <path class="cls-2" d="M337.24,11.81c.01.31.21.41.5.41.21,0,.42-.07.42-.27,0-.23-.37-.28-.75-.38-.37-.11-.77-.27-.77-.76,0-.57.58-.8,1.07-.8.52,0,1.05.25,1.05.84h-.68c.01-.24-.21-.32-.42-.32-.15,0-.33.05-.33.22,0,.2.38.24.76.34.38.11.76.28.76.76,0,.66-.56.88-1.14.88s-1.13-.26-1.14-.94h.68v.02Z"/>
            <path class="cls-2" d="M339.16,10.07h1.93v.55h-1.25v.54h1.08v.53h-1.08v1.01h-.68v-2.62h0Z"/>
            <path class="cls-2" d="M341.4,10.07h2.09v.55h-1.4v.46h1.28v.53h-1.28v.5h1.44v.59h-2.12v-2.62h-.01Z"/>
            <path class="cls-2" d="M343.91,10.07h1.33c.46,0,.92.21.92.74,0,.28-.14.55-.41.66h0c.28.07.36.38.38.63,0,.11.02.49.11.59h-.67c-.06-.09-.07-.34-.08-.42-.02-.26-.06-.54-.38-.54h-.52v.95h-.68v-2.62h0ZM344.59,11.21h.57c.21,0,.32-.11.32-.31s-.15-.28-.34-.28h-.54v.59h-.01Z"/>
          </g>
          <g>
            <rect class="cls-8" x="326.22" y="5.48" width="4.13" height=".83"/>
            <rect class="cls-8" x="326.22" y="8.46" width="4.13" height=".83"/>
            <rect class="cls-8" x="326.22" y="6.97" width="4.13" height=".83"/>
          </g>
        </g>
      </g>
    </g>
  </g>
</svg>