<?xml version="1.0" encoding="UTF-8"?>
<svg xmlns="http://www.w3.org/2000/svg" version="1.1" viewBox="0 0 51.18 17.3">
  <defs>
    <style>
      .cls-1 {
        fill: #f5b335;
      }

      .cls-2 {
        fill: #7a6e66;
      }

      .cls-3 {
        fill: #ce0e2d;
      }
    </style>
  </defs>
  <!-- Generator: Adobe Illustrator 28.6.0, SVG Export Plug-In . SVG Version: 1.2.0 Build 709)  -->
  <g>
    <g id="Layer_1">
      <g id="Layer_1-2" data-name="Layer_1">
        <g>
          <g>
            <path class="cls-2" d="M21.57,6.81c.07-.11.27-.49.27-.62-.21-.2-.5-.24-.59-.36-.03-.04.37-.3.38-.35l.07-.32s-.82.56-.82,1.02v.04c0,.21.61.4.61.4-.12.15-1.25.63-1.5.7h0c.6.04,1.25.01,1.59-.51"/>
            <path class="cls-2" d="M5.81,6.87c-.37-.51-1.15-1.08-2.18-2.22,0,0-.51-.51-.81-.84l-.11.75c.58.79,1.67,1.89,2.97,2.98.05.04-.04.1-.08.11h0c-.81.4-2.88,1.29-3.66,1.3-1.21.02-.75-1.59-.65-1.86,0,0,.04-.11-.02-.14-.23.53-1.21,2.84.58,2.82,1.02-.01,3.19-1.05,3.93-1.42.25-.12.25-.5.26-.67-.01-.33-.05-.55-.21-.81"/>
            <path class="cls-2" d="M30.24,6.78l-.04-.05c-.07.25-.14.49-.22.73.25.35.52.73.56,1.17-.03.28-.74.38-1.31.39h0c-1.4,0-1.26-.84-1.25-1.2,0,.01-.66,1.16-1.65,1.16-1.14-.06-1.5-.77-1.52-1.27-.01-1.64-1.42-2.27-2.63-4.08l-.04-.06s-.4-.63-.44-.68c.2-.19,5.08-1.25,5.94-1.42h0c.18-.02.34,0,.21.47-.15.51-.7,1.87-.95,2.51.52-.84,1.84-3.68,1.24-3.63-1,.18-5.92,1.31-6.62,1.59-.07.12-.18,1.01-.12,1.05,1.03,1.68,2.52,2.97,2.93,3.67.08.14.11.29.1.32-.39.92-3.62,1.62-4.66,1.62-.17,0-.39,0-.62-.03,1.36-2.15-1.97-6.37-2.73-7.61-.24-.36-.33-.52-.33-.52l-.29.62c.13.71.46,5.52.46,5.86,0,.41.01.41.01.89,0,.62-1.16.59-1.31.57-.41-.07-.6-.92-.62-1.49-1.37,1.77-2.94,1.65-2.95,1.65-1.5-.17-1.55-2.15-1.6-3.33-.01-.39,0-3.75-.08-4.83,0,0-.46.66-.49.76,0,.32.12,3.5.17,4.42.06.96-.19,1.85-1.03,2.6.04-.05.16-.37.17-.49.16-1.69-1.87-3.37-3.18-5.31l-.04-.06s-.56-.95-.68-1.1c-.07.16-.16.56-.2.79,1.7,2.84,3.88,4.46,3.76,5.88-.02.28-.06.39-.23.56-.79.68-1.64,1.11-2.6,1.51h.14c.72.03,2-.27,2.57-.69.81-.59,1.39-1.68,1.53-2.35v-.04.03c.08.9.08,1.99,1.37,2.32.96.24,1.84-.18,2.43-.6.49-.34.77-.69.77-.67,0,.51.11.91.36,1.05.42.26,1.02.14,1.02.14,1.39-.24,1.18-1.9,1.18-2.67,0-.96-.32-4.1-.36-4.56.69,1.1,3.52,4.86,2.4,6.6-.35-.06-.69-.17-.88-.37,0-.01-.41-.31-.41-.83,0-.71.52-1.39.52-1.39-.55.47-.85,1.45-.85,1.79,0,.81.51,1.26,1.16,1.46-.32.37-.37.45-.58.66.35-.18.64-.38.88-.59.2.04.41.05.61.05,2.69,0,4.99-1.04,5.34-1.89-.02,2.13,2.07,1.76,2.07,1.76.74-.12,1.01-.49,1.24-.79h0c.34,1.33,2.38.74,2.4.74.46-.11.62-1.1.62-1.47-.01-.51-.31-.97-.62-1.36"/>
            <path class="cls-2" d="M28.43,6.28l-.61-.45-.36.47s-.04.04,0,.07l.62.44.34-.45s.02-.07,0-.09"/>
            <path class="cls-2" d="M29.68,10.76l-.61-.46-.36.47s-.04.04,0,.07l.62.44.34-.45s.02-.06,0-.08"/>
            <path class="cls-2" d="M14.94,10.76l-.61-.45-.36.47s-.04.04,0,.07l.62.44.34-.45s.03-.07,0-.09"/>
            <path class="cls-2" d="M2.12,15.96c.11,0,.22,0,.35-.02.12-.01.23-.04.33-.09s.18-.12.25-.21c.06-.09.1-.22.1-.38s-.03-.28-.09-.37-.14-.17-.24-.22c-.1-.06-.2-.09-.32-.11s-.23-.03-.34-.03h-.79v1.44h.75ZM2.14,13.99c.09,0,.19-.01.28-.04s.18-.06.26-.11c.08-.05.14-.12.19-.2s.07-.18.07-.3c0-.13-.02-.23-.07-.31-.05-.08-.11-.14-.19-.19s-.16-.07-.26-.09c-.09-.01-.19-.03-.28-.03h-.77v1.25h.77v.02ZM.77,12.19h1.45c.22,0,.42.03.58.09s.3.14.41.24.19.21.24.35c.06.13.08.27.08.42,0,.14-.02.26-.07.37s-.11.21-.18.29c-.07.07-.15.14-.23.19-.09.05-.16.07-.23.09.09.01.19.04.3.08s.21.1.31.18.17.19.24.32.09.29.09.49c0,.23-.04.42-.12.58-.08.15-.2.27-.34.37s-.31.16-.51.2-.41.06-.63.06H.76v-4.31h0Z"/>
            <path class="cls-2" d="M6.13,15.08s-.05-.01-.1-.02c-.05,0-.11-.01-.17-.02-.07,0-.14,0-.21-.01h-.21c-.16,0-.3.02-.4.06s-.18.09-.24.14c-.06.06-.1.12-.12.19s-.03.14-.03.2c0,.16.06.29.17.37.11.08.27.12.46.12.11,0,.22-.02.32-.06s.19-.09.27-.16c.07-.06.14-.14.19-.22.05-.09.07-.17.07-.26,0,0,0-.33,0-.33ZM6.14,16.13c-.11.15-.26.26-.44.34-.18.07-.37.11-.56.11-.12,0-.25-.02-.37-.05-.12-.03-.24-.09-.34-.16s-.18-.17-.24-.29c-.06-.12-.09-.26-.09-.44,0-.32.11-.58.34-.77.22-.19.55-.29.97-.29h.22c.08,0,.15,0,.22.01.07,0,.13,0,.18.01.05,0,.09,0,.11.01v-.11c0-.22-.07-.38-.21-.48-.14-.1-.32-.14-.55-.14s-.41.03-.54.09-.24.12-.34.19l-.27-.39s.11-.09.19-.13c.07-.04.16-.08.26-.12s.21-.07.34-.09c.12-.02.27-.04.43-.04.39,0,.69.09.91.28s.33.45.33.79v2.01h-.54v-.34h0Z"/>
            <path class="cls-2" d="M7.25,14.15v-.65h.56l.02.45s.09-.11.14-.17c.06-.06.12-.12.21-.17.08-.05.17-.09.29-.12.11-.04.23-.05.37-.05.39,0,.68.11.87.34.19.23.28.54.28.93v1.8h-.58v-1.75c0-.28-.06-.49-.18-.62s-.29-.19-.51-.2c-.17,0-.31.04-.42.11s-.2.16-.27.27c-.07.11-.12.24-.14.37-.03.14-.04.28-.04.42v1.39h-.58v-2.35h-.02Z"/>
          </g>
          <polygon class="cls-2" points="10.53 12.19 11.1 12.19 11.1 14.73 12.37 13.49 13.06 13.5 11.93 14.6 13.23 16.49 12.54 16.49 11.52 14.99 11.1 15.39 11.1 16.49 10.53 16.49 10.53 12.19"/>
          <path class="cls-2" d="M16.74,14.77l-.69-1.89-.71,1.89h1.4ZM15.75,12.19h.63l1.69,4.3h-.69l-.44-1.2h-1.77l-.44,1.2h-.65s1.67-4.3,1.67-4.3Z"/>
          <polygon class="cls-2" points="18.31 12.19 18.89 12.19 18.89 16.49 18.31 16.49 18.31 12.19"/>
          <path class="cls-2" d="M20.04,16c.06.02.14.04.22.06s.22.03.39.03.32-.03.45-.08c.14-.05.25-.13.35-.22.09-.1.17-.21.22-.35s.07-.28.08-.44c0-.14-.02-.27-.05-.39s-.08-.24-.16-.34c-.07-.09-.16-.17-.27-.23s-.24-.09-.39-.09c-.14,0-.27.03-.37.07-.11.05-.19.11-.26.19s-.12.17-.16.27c-.04.11-.05.21-.05.32v1.19h-.01.01ZM19.46,12.19h.58v1.63s.07-.08.12-.13c.06-.05.12-.09.2-.13s.17-.07.27-.1c.1-.03.21-.04.34-.04.22,0,.42.04.59.12s.31.19.43.33.21.31.26.49c.06.19.09.39.09.61,0,.24-.04.46-.12.65-.08.2-.2.37-.34.51-.15.14-.32.26-.53.33-.21.08-.44.12-.69.12s-.47-.02-.68-.06c-.21-.04-.38-.09-.51-.14v-4.2h-.01Z"/>
          <path class="cls-2" d="M22.8,13.5h.58v3h-.58v-3ZM22.75,12.31h.65v.65h-.65v-.65Z"/>
          <polygon class="cls-2" points="23.98 12.19 24.56 12.19 24.56 16.49 23.98 16.49 23.98 12.19"/>
          <g>
            <path class="cls-2" d="M27,15.08s-.05-.01-.1-.02-.11-.01-.17-.02c-.07,0-.13,0-.21-.01h-.21c-.16,0-.29.02-.4.06-.1.04-.18.09-.24.14s-.1.12-.12.19-.03.14-.03.2c0,.16.06.29.17.37.11.08.26.12.46.12.11,0,.22-.02.32-.06.1-.04.19-.09.27-.16.08-.06.14-.14.19-.22.04-.09.07-.17.07-.26v-.32h0ZM27,16.13c-.11.15-.26.26-.44.34-.18.07-.37.11-.56.11-.12,0-.25-.02-.37-.05-.12-.03-.24-.09-.34-.16s-.18-.17-.24-.29c-.06-.12-.09-.26-.09-.44,0-.32.11-.58.34-.77.22-.19.55-.29.97-.29h.22c.07,0,.15,0,.22.01.07,0,.13,0,.18.01.05,0,.09,0,.11.01v-.11c0-.22-.07-.38-.21-.48-.14-.1-.32-.14-.55-.14s-.41.03-.54.09c-.13.06-.24.12-.34.19l-.27-.39s.11-.09.19-.13c.07-.04.16-.08.26-.12s.21-.07.34-.09c.12-.02.27-.04.43-.04.39,0,.69.09.91.28s.33.45.33.79v2.01h-.54v-.35h0Z"/>
            <path class="cls-2" d="M30.28,14.16s-.12-.08-.24-.14c-.12-.06-.28-.09-.5-.09-.14,0-.27.02-.39.07-.12.05-.22.12-.31.22s-.16.21-.21.35-.07.29-.07.46c0,.14.02.27.05.41.04.12.09.24.16.33s.16.17.27.22c.11.05.24.08.39.08s.28-.02.39-.08c.11-.06.19-.12.26-.21.07-.08.11-.17.15-.27.03-.1.05-.19.05-.28v-1.07h0ZM30.28,16.11s-.06.07-.11.12c-.05.06-.11.11-.2.16-.08.05-.17.1-.29.14s-.24.06-.38.06c-.19,0-.37-.04-.53-.11s-.31-.17-.42-.31c-.12-.13-.21-.29-.28-.49-.07-.19-.1-.41-.1-.64,0-.28.05-.52.15-.73.1-.21.22-.37.38-.51.15-.13.32-.22.49-.29.18-.06.35-.09.51-.09.22,0,.39.02.51.07.12.05.21.09.28.12v-1.42h.58v4.3h-.57l-.02-.37h0Z"/>
            <path class="cls-1" d="M47.71.81h-12.96v7.85c2.23-1.3,4.82-2.05,7.58-2.05,2.96,0,5.72.86,8.05,2.33V3.47c0-1.47-1.2-2.67-2.67-2.67"/>
            <path class="cls-3" d="M40.11,8.25c-1.96,0-3.79.54-5.36,1.47v4.05c0,1.47,1.19,2.67,2.67,2.67h12.95c-1.07-4.69-5.26-8.19-10.26-8.19"/>
          </g>
        </g>
      </g>
    </g>
  </g>
</svg>