<?xml version="1.0" encoding="UTF-8"?>
<svg xmlns="http://www.w3.org/2000/svg" version="1.1" viewBox="0 0 55.76 22.2">
  <defs>
    <style>
      .cls-1 {
        fill: #002134;
      }
    </style>
  </defs>
  <!-- Generator: Adobe Illustrator 28.6.0, SVG Export Plug-In . SVG Version: 1.2.0 Build 709)  -->
  <g>
    <g id="Layer_1">
      <g id="Layer_1-2" data-name="Layer_1">
        <path class="cls-1" d="M46.38,21.4c7.69,0,8.55-.85,8.55-8.55v-3.42c0-7.7-.85-8.55-8.55-8.55h-3.42c-7.69,0-8.55.85-8.55,8.55v3.42c0,7.7.85,8.55,8.55,8.55h3.42ZM47.24,17.12l-5.13,1.71V5.14l5.13-1.71v13.69Z"/>
        <path class="cls-1" d="M8.78,14.52l1.09-.37v4.67h-1.09v-4.31h0ZM6.6,18.83h1.09v-6.84h-1.09v6.84ZM4.42,14.16h1.09v4.67h-1.09v-.68c-.3.53-.85.8-1.66.8-1.24,0-1.95-.71-1.95-2.46s.71-2.46,1.95-2.46,1.36.26,1.66.8v-.68h0ZM4.42,16.37c0-.92-.32-1.27-1.27-1.27s-1.24.36-1.24,1.27v.24c0,.92.32,1.27,1.24,1.27s1.27-.36,1.27-1.27v-.24ZM28.24,14.16h1.06v4.67h-1.06v-.68c-.32.53-.89.8-1.68.8-1.24,0-1.92-.71-1.92-2.46s.68-2.46,1.92-2.46,1.36.26,1.68.8v-.68h0ZM28.24,16.37c-.03-.92-.36-1.27-1.27-1.27s-1.27.36-1.27,1.27v.24c0,.92.36,1.27,1.27,1.27s1.24-.36,1.27-1.27v-.24ZM21.94,14.04c-.77,0-1.27.3-1.51.85-.24-.57-.74-.85-1.51-.85s-1.09.21-1.36.62v-.51h-1.06v4.67h1.06v-2.75c0-.71.26-.98.98-.98s.95.26.95.98v2.75h1.09v-2.75c0-.71.24-.98.95-.98s.98.26.98.98v2.75h1.06v-3.17c0-1.04-.59-1.63-1.62-1.63h0v.02ZM8.78,13.63h1.09v-1.06h-1.09v1.06ZM13.61,14.04c-.74,0-1.27.26-1.57.74v-.62h-1.09v4.67h1.09v-2.55c0-.85.3-1.19,1.15-1.19s1.19.32,1.19,1.19v2.55h1.06v-2.96c0-1.19-.65-1.83-1.83-1.83h0ZM16.68,9.84c-.81,0-1.26-.22-1.26-1.26s.44-1.26,1.26-1.26,1.26.22,1.26,1.26-.44,1.26-1.26,1.26ZM21.34,5.8v3.41h-1.12c-.91,0-1.15-.31-1.22-.99-.14-1.51-1.19-1.95-2.33-1.95s-2.35.51-2.35,2.32.02.44.05.62h-6.71c-.85,0-1.19-.13-1.19-1.19V3.42h-1.09v4.98c0,1.38.61,1.87,1.83,1.87h7.65c.44.47,1.1.63,1.8.63s1.65-.24,2.06-1c.29.25.72.37,1.49.37h2.21v-4.47h-1.09v.02-.02ZM21.34,3.97v1.09h1.09v-1.09s-1.09,0-1.09,0ZM25.21,12.25v-.49h-.38c-.26,0-.46-.09-.46-.31s.14-.24.4-.24h.22v-.48h-.37c-.51,0-.76.23-.76.58s.07.35.17.45h-.38v.5h1.57v-.02h-.01ZM27.15,10.28V3.43h-1.09v5.78h-2.89v1.06h3.98ZM28.21,3.43v6.84h1.09V3.43h-1.09ZM4.87,10.28v-1.06h-.82c-.92,0-1.46-.33-1.46-1s.3-.61.88-.61h.68v-1.06h-1.01c-.99,0-1.64.59-1.64,1.46s.13.9.41,1.22H.82v1.06h4.06-.01ZM23.9,3.8l1.09-.37v5.05h-1.09V3.8h0Z"/>
      </g>
    </g>
  </g>
</svg>