<?xml version="1.0" encoding="UTF-8"?>
<svg xmlns="http://www.w3.org/2000/svg" version="1.1" viewBox="0 0 48.01 18.17">
  <defs>
    <style>
      .cls-1 {
        fill: #221afb;
      }
    </style>
  </defs>
  <!-- Generator: Adobe Illustrator 28.6.0, SVG Export Plug-In . SVG Version: 1.2.0 Build 709)  -->
  <g>
    <g id="Layer_1">
      <g id="Layer_1-2" data-name="Layer_1">
        <g id="_x39_u7Tlw">
          <g>
            <path class="cls-1" d="M43.31,7.58c.52.3,1.03.6,1.54.89.38.22.75.43,1.13.65.68.4,1.08,1,1.21,1.78,0,.09,0,.17,0,.26v2.61c0,.59-.23,1.1-.6,1.54-.2.24-.45.41-.72.57-.66.38-1.32.76-1.98,1.14-.43.25-.9.37-1.4.34-.37-.02-.71-.11-1.03-.3-.85-.49-1.7-.98-2.54-1.47-.12-.07-.22-.09-.35,0-.83.49-1.66.96-2.49,1.44-.43.25-.89.36-1.39.33-.43-.02-.82-.17-1.19-.38-.67-.39-1.35-.77-2.01-1.17-.79-.47-1.21-1.17-1.22-2.1-.01-.83,0-1.66,0-2.49,0-.59.21-1.11.58-1.57.2-.24.44-.42.7-.57.83-.48,1.66-.96,2.49-1.44.09-.05.11-.11.11-.21,0-.99-.02-1.97,0-2.96.02-.89.4-1.59,1.16-2.06.61-.38,1.23-.72,1.85-1.07.16-.09.33-.19.49-.27.26-.14.55-.2.84-.23.55-.05,1.05.08,1.52.35.66.38,1.32.77,1.98,1.14.54.31.93.75,1.15,1.33.1.25.15.52.15.79v3.13h0ZM38.73,13.95h.03c.84-.48,1.68-.95,2.5-1.45.46-.27.7-.69.7-1.24v-2.77c0-.09-.03-.15-.11-.19-.8-.46-1.59-.93-2.39-1.38-.48-.27-.98-.26-1.46.01-.79.45-1.57.91-2.36,1.35-.09.05-.13.11-.13.21v2.72c0,.58.27,1.01.76,1.31.22.13.44.26.66.38.6.34,1.19.69,1.79,1.03v.02ZM34.16,9.13c-.06.03-.1.05-.14.07-.6.35-1.2.7-1.8,1.04-.4.23-.61.57-.61,1.03v2.39c0,.44.2.78.58,1,.7.41,1.4.82,2.11,1.21.35.2.71.2,1.06.01.65-.36,1.29-.74,1.93-1.11.03-.02.05-.04.08-.06-.04-.03-.07-.05-.09-.06-.55-.32-1.09-.63-1.64-.94-.44-.25-.8-.59-1.06-1.02-.28-.46-.4-.95-.41-1.49v-2.06h-.01ZM40.1,14.72s.09.06.13.09c.61.35,1.23.71,1.84,1.06.37.21.75.22,1.13,0,.71-.4,1.41-.81,2.12-1.22.37-.21.55-.55.56-.97v-2.42c0-.44-.2-.77-.59-.99-.54-.31-1.08-.63-1.63-.94-.11-.06-.22-.12-.34-.19v2.12c0,.13,0,.26-.03.39-.15.88-.59,1.56-1.36,2.02-.33.2-.68.39-1.01.59-.27.15-.53.31-.81.47h-.01ZM35.51,6.8c.06-.03.1-.05.13-.07.56-.32,1.12-.65,1.68-.96.93-.52,1.88-.51,2.81,0,.57.31,1.13.65,1.69.97.04.02.07.04.12.06v-2.38c0-.05,0-.11-.02-.16-.07-.33-.27-.57-.56-.74-.69-.4-1.38-.79-2.07-1.19-.38-.22-.77-.21-1.16,0-.21.12-.41.24-.61.35-.5.29-1,.57-1.49.86-.35.21-.54.53-.54.95v2.3h.02Z"/>
            <path class="cls-1" d="M8.94,8.38c0-.19,0-.38-.01-.57,0-.09-.02-.17-.04-.25-.11-.34-.48-.45-.78-.25-.03.02-.06.05-.1.08-.13-.11-.26-.22-.41-.34.16-.17.35-.26.56-.31.25-.05.5-.03.73.08.35.16.54.44.59.82.02.17.02.34.02.5,0,.21.03.24.24.25h.07v.46c-.11.04-5.39.05-5.65.01v-1.64c-.43-.13-.78.12-.79.55v1.09h-1.53c-.58,0-1.02-.45-1.04-1.04,0-.27.06-.52.23-.73,0-.02.02-.03.04-.04,0,0,.02,0,.04-.02.13.1.26.21.39.32-.04.1-.09.19-.11.28-.05.24,0,.46.18.62.06.06.16.11.24.11.32.01.65,0,.99,0v-.16c0-.22,0-.44.02-.65.07-.47.44-.81.91-.85.31-.02.62-.02.93-.02.02,0,.04,0,.07.01v1.66h1.93c-.01-.24-.01-.47-.04-.7-.02-.22-.17-.43-.44-.47-.13-.02-.25.01-.36.09-.03.02-.06.05-.1.09-.13-.11-.27-.22-.41-.34.15-.17.33-.26.53-.3.33-.07.65-.03.94.18.28.2.41.48.43.82v.45c0,.13.07.2.19.21h1.54Z"/>
            <path class="cls-1" d="M24.21,8.35c.11.04.59.05.77.02-.02-.04-.04-.08-.05-.12-.15-.39-.12-.76.12-1.11.11-.16.26-.27.44-.34.28-.11.57-.12.85-.02.35.13.58.37.66.74.08.36.03.69-.21.98-.19.24-.45.37-.75.37h-1.67c-.14,0-.25-.06-.34-.16-.02-.02-.04-.04-.07-.08-.23.24-.52.24-.82.24h-2.22c-.11,0-.21,0-.3-.07-.11.66-.43.95-1.1,1.01v-.47s.05-.02.08-.03c.26-.06.42-.25.43-.53v-1.88h.58v1.36c0,.06.04.11.11.11h.61v-1.41c.18-.01.34,0,.52,0v.49c.09-.04.13-.1.18-.15.16-.17.34-.3.56-.38.37-.15.75-.19,1.12-.02.34.15.53.43.59.8.03.19,0,.37-.07.55-.01.03-.02.05-.03.09h0ZM21.98,8.37s.02.02.03.02h1.3c.21,0,.37-.15.42-.36.04-.19,0-.36-.1-.52-.11-.16-.27-.22-.45-.21-.2.01-.39.09-.56.21-.29.21-.48.5-.63.81v.05h-.01ZM25.42,7.79c0,.16.03.26.08.36.16.31.66.31.83.04.15-.23.17-.48.04-.72-.16-.31-.56-.36-.8-.12-.12.12-.16.27-.15.44Z"/>
            <path class="cls-1" d="M15.88,7.03c.15.12.28.23.41.34-.03.07-.06.12-.08.19-.09.26-.06.51.14.71.06.06.16.11.24.12.26.01.53,0,.81,0-.02-.05-.04-.08-.05-.12-.16-.44-.13-.85.19-1.22.14-.16.31-.25.52-.3.38-.08.74-.03,1.04.23.16.14.27.32.31.52.08.36.04.7-.2,1-.19.24-.45.37-.75.38h-1.88c-.51,0-.95-.44-.98-.95-.02-.27.01-.52.17-.75.03-.05.07-.09.12-.15h-.01ZM17.83,7.8c-.01.12.03.24.09.36.15.26.54.32.76.11.21-.2.25-.59.08-.84-.12-.18-.33-.26-.54-.21-.25.06-.4.27-.4.58h.01Z"/>
            <path class="cls-1" d="M16.77,13.86s-.02.07-.03.1h-.56v-3.29h.57v1.2l.08-.04c.35-.24.85-.17,1.17.07.32.25.5.57.49.98,0,.61-.45,1.04-.92,1.13-.25.05-.49.04-.71-.11-.03-.02-.06-.03-.09-.05h0ZM17.92,12.8c-.02-.06-.04-.18-.09-.28-.18-.37-.69-.4-.91-.13-.19.23-.22.49-.12.77.16.43.68.44.92.21.14-.14.19-.32.2-.57Z"/>
            <path class="cls-1" d="M12.46,8.39h.55c.11,0,.19-.05.21-.16.02-.07.03-.15.03-.23v-2.07h.54s.01.07.01.11v2.06c0,.14-.02.28-.07.41-.11.24-.31.37-.57.38h-.56c-.06,0-.13-.03-.2-.05-.04.29-.15.56-.39.76-.2.16-.44.23-.71.23v-.47s.07-.02.11-.03c.19-.04.31-.16.36-.34.03-.1.05-.22.05-.33v-1.73h.55v1.24c0,.08,0,.16.07.23h.02Z"/>
            <path class="cls-1" d="M20.51,11.88s.02-.07.03-.11h.54c.03.11.04,1.85.02,2.19h-.56s-.02-.07-.03-.1h-.04c-.67.47-1.69-.08-1.69-.98,0-.47.19-.82.59-1.05.36-.2.72-.22,1.08.01.01,0,.03.02.05.03h.01ZM19.35,12.87h.01v.1c.02.26.19.47.44.53.25.06.5-.03.63-.26.12-.2.12-.41.06-.63-.07-.23-.29-.4-.53-.4-.26,0-.47.13-.56.37-.03.09-.04.19-.06.28h.01Z"/>
            <path class="cls-1" d="M3.19,11.89s.02-.07.02-.11h.55v2.18h-.54s-.02-.06-.04-.11c-.3.23-.64.25-.98.12-.34-.12-.58-.37-.69-.72-.15-.47-.06-.9.3-1.25.18-.18.41-.28.67-.31.26-.03.48.04.7.19h0ZM3.22,12.87c-.03-.11-.04-.22-.08-.32-.08-.21-.25-.32-.46-.34s-.39.05-.52.23c-.15.22-.17.46-.08.7.08.22.23.34.46.37.25.03.45-.05.57-.28.06-.11.09-.23.1-.36h0Z"/>
            <path class="cls-1" d="M8.64,11.86s.01-.05.02-.09h.54c.03.1.04,1.96.01,2.18h-.55s-.02-.06-.03-.09h-.04c-.57.41-1.51.05-1.66-.78-.08-.42.02-.8.34-1.09.28-.26.62-.37,1-.29.12.03.23.09.36.14v.02ZM8.08,13.52c.26,0,.45-.14.54-.38.06-.18.06-.36,0-.54-.08-.22-.23-.36-.46-.38-.23-.03-.43.05-.56.26-.09.14-.12.31-.1.47.04.41.31.58.59.57h-.01Z"/>
            <path class="cls-1" d="M11,10.67h.55v1.18s.07-.03.09-.05c.41-.28,1.15-.05,1.29.53.03.13.05.27.06.4v1.23h-.56v-1.21c0-.09-.01-.17-.03-.26-.03-.16-.14-.25-.29-.28-.25-.05-.46.09-.5.34-.02.1-.03.2-.03.3v1.11h-.55v-3.29h-.03Z"/>
            <path class="cls-1" d="M24.24,10.67h.55v1.85s.08-.05.1-.07c.19-.19.39-.38.57-.57.08-.08.16-.12.28-.12.19,0,.37,0,.58.03-.3.3-.61.59-.92.9.33.42.66.83,1.01,1.28h-.37c-.11,0-.24.02-.33-.02-.09-.04-.14-.15-.2-.24-.16-.21-.33-.42-.5-.64-.06.06-.13.12-.18.18-.02.03-.03.08-.03.12v.58h-.55v-3.29h0Z"/>
            <path class="cls-1" d="M21.68,11.77h.5s.06.04.08.06c.11-.04.22-.09.34-.12.39-.09.95.15,1.04.73,0,.07.02.13.02.2v1.29s0,.02-.01.04h-.56v-1.22c0-.09-.01-.18-.03-.27-.03-.13-.12-.2-.25-.24-.27-.07-.48.06-.54.33-.02.09-.03.18-.03.27v1.13h-.56v-2.19h0Z"/>
            <path class="cls-1" d="M9.31,15.13v-.45c.11-.06.23-.09.32-.16.17-.13.21-.31.21-.52v-2.22h.56v2.31c0,.52-.41.98-.98,1.04h-.12.01Z"/>
            <path class="cls-1" d="M4.34,10.67h.56v3.29h-.56v-3.29Z"/>
            <path class="cls-1" d="M14.31,5.92h.54c.03.1.04,2.75,0,2.96h-.55v-2.96h.01Z"/>
            <path class="cls-1" d="M11.08,8.87h-.53c-.03-.1-.04-2.73-.01-2.95h.54v2.95Z"/>
            <path class="cls-1" d="M6.01,13.97h-.57v-1.29c0-.13.02-.27.06-.4.08-.28.27-.45.55-.52.22-.05.44-.07.68-.02v.48h-.39c-.22.03-.32.14-.32.37v1.38Z"/>
            <path class="cls-1" d="M13.56,11.78h.55v2.18h-.54c-.03-.1-.04-1.96-.01-2.18Z"/>
            <path class="cls-1" d="M13.84,11.37c-.21,0-.36-.14-.35-.35,0-.19.15-.34.35-.35.18,0,.36.15.36.35,0,.18-.16.38-.36.35Z"/>
            <path class="cls-1" d="M10.13,11.37c-.2.03-.37-.18-.36-.35.01-.2.15-.35.35-.35.21,0,.36.14.36.35s-.13.35-.35.35Z"/>
            <path class="cls-1" d="M1.91,10.01c-.19,0-.33-.14-.33-.33s.14-.32.33-.32c.18,0,.32.14.32.32s-.15.33-.33.33h0Z"/>
            <path class="cls-1" d="M3.16,9.68c0,.19-.14.33-.33.33-.18,0-.33-.14-.33-.33,0-.18.14-.32.32-.32.19,0,.33.13.34.32Z"/>
            <path class="cls-1" d="M17.43,6.32c0,.19-.14.31-.34.3-.18,0-.31-.15-.3-.33,0-.18.15-.31.33-.32.18,0,.34.15.32.35h-.01Z"/>
            <path class="cls-1" d="M8.85,9.68c.03.17-.16.34-.32.33-.18-.01-.33-.15-.33-.33s.14-.31.32-.32c.18-.01.35.17.32.32h.01Z"/>
          </g>
        </g>
      </g>
    </g>
  </g>
</svg>