<?xml version="1.0" encoding="UTF-8"?>
<svg xmlns="http://www.w3.org/2000/svg" version="1.1" viewBox="0 0 56.5 16">
  <defs>
    <style>
      .cls-1 {
        fill: #230871;
      }

      .cls-2 {
        fill: #747c91;
      }

      .cls-3 {
        fill: #00af9a;
      }
    </style>
  </defs>
  <!-- Generator: Adobe Illustrator 28.6.0, SVG Export Plug-In . SVG Version: 1.2.0 Build 709)  -->
  <g>
    <g id="Layer_1">
      
      <g>
        <g>
          <polygon class="cls-1" points="9.5 5.1 13.8 .8 5.2 .8 5.2 5.1 5.2 9.5 .8 13.8 9.5 13.8 9.5 9.5 9.5 9.5 9.5 5.1"/>
          <g>
            <polygon class="cls-3" points="9.5 5.1 9.5 9.5 9.5 9.5 13.8 9.5 13.8 .8 9.5 5.1"/>
            <polygon class="cls-3" points=".8 13.8 5.2 9.5 5.2 5.1 .8 5.1 .8 13.8"/>
          </g>
        </g>
        <g>
          <rect class="cls-2" x="29.2" y="6.6" width=".9" height=".9"/>
          <rect class="cls-2" x="27.7" y="6.6" width=".9" height=".9"/>
          <path class="cls-2" d="M26,4.4c0-.5,0-1-.4-1.3-.3-.3-.8-.5-1.3-.5h-1.8v-.4h-.8v3.6h-1.3c-.4,0-.7,0-1-.2-.2-.2-.3-.4-.3-.8v-1.9h-1v2c0,.5.1,1,.4,1.3.4.4.9.5,1.6.5h2.3v-.8h3.5v-1.5h0ZM25.1,5.1h-2.6v-1.5h1.9c.2,0,.5.1.6.2.1.1.2.3.2.6v.7Z"/>
          <polygon class="cls-2" points="30.5 2.4 29.6 2.4 29.6 5.1 27.8 5.1 27.8 .8 26.9 .8 26.9 5.9 30.5 5.9 30.5 2.4"/>
          <rect class="cls-2" x="35.9" y=".8" width=".9" height="5.1"/>
          <rect class="cls-2" x="23.5" y="1.1" width=".9" height=".9"/>
          <rect class="cls-2" x="52.1" y=".8" width=".9" height=".9"/>
          <rect class="cls-2" x="54.8" y="6.6" width=".9" height=".9"/>
          <path class="cls-2" d="M41.3,5.9h14.3v-3.6h-.9v2.7h-1.8v-2.7h-.9v2.7h-4.7V.8h-.9v4.2s-5,0-5,0c-.4,0-.7,0-.9-.2-.2-.2-.3-.4-.3-.8v-1.1h-1v1.2c0,.5.1,1,.4,1.3.4.4.9.5,1.6.5Z"/>
          <path class="cls-2" d="M44.3,3.3h-.9v-.4c0-.1,0-.2,0-.3,0,0,.1,0,.2,0h.5v-.5h-.4c-.3,0-.5,0-.7.3-.1.2-.2.4-.2.7v.8h1.4v-.5Z"/>
          <path class="cls-2" d="M32.3,5.9h2.7V.8h-.9v4.2h-1.8v-2.7h-.9v3.4c0,.4-.1.6-.5.6s-.2,0-.3,0v.9c.1,0,.3,0,.4,0,.8,0,1.2-.4,1.3-1.4Z"/>
          <path class="cls-2" d="M22.2,10c0-.8-.6-1.6-2-1.6h-2v5.4h1v-2.1h1l1.3,2.1h1.1l-1.4-2.3c.8-.3,1.1-.9,1.1-1.5ZM20,10.8h-.9v-1.6h.9c.8,0,1.2.2,1.2.8s-.5.8-1.2.8Z"/>
          <path class="cls-2" d="M31,10.1c-.5,0-1,.1-1.3.3v.9c.2-.2.8-.3,1.1-.3s.8.1.8.5h0c-.3,0-.5,0-.7,0-1,0-1.6.4-1.6,1.2s.8,1.2,1.7,1.2,1.1,0,1.5-.3v-2.1c0-1-.7-1.4-1.6-1.4ZM31.7,13c-.2,0-.4,0-.7,0-.4,0-.8-.1-.8-.4s.4-.5.8-.5.4,0,.6,0v.7Z"/>
          <path class="cls-2" d="M35.9,10.2c-.2,0-.5,0-.6,0-1.2,0-2,.8-2,1.9s.8,1.9,2.1,1.9,1,0,1.4-.2v-5h-.9v1.5ZM35.9,12.9c-.2,0-.4,0-.6,0-.7,0-1.1-.3-1.1-1s.4-1,1.1-1,.3,0,.6,0v1.9Z"/>
          <path class="cls-2" d="M27.7,12.8c-.3,0-.5,0-.7,0-.5,0-.7-.2-.7-.8v-1.9h-.9v2.1c0,1.2.6,1.5,1.5,1.5s.5,0,.7,0h0c0,.5-.4.7-.9.7s-.6,0-.9-.2v.8c.3,0,.7.1.9.1,1.4,0,1.8-.4,1.8-1.7v-3.3h-.9v2.6Z"/>
          <path class="cls-2" d="M45.8,10.1c-.5,0-1,.1-1.3.3v.9c.2-.2.8-.3,1.1-.3s.8.1.8.5h0c-.3,0-.5,0-.7,0-1,0-1.6.4-1.6,1.2s.8,1.2,1.7,1.2,1.1,0,1.5-.3v-2.1c0-1-.7-1.4-1.6-1.4ZM46.5,13c-.2,0-.4,0-.7,0-.4,0-.8-.1-.8-.4s.4-.5.8-.5.4,0,.6,0v.7Z"/>
          <path class="cls-2" d="M49.7,10.1c-.4,0-1,0-1.6.2v3.5h.9v-2.7c.3,0,.5,0,.7,0,.5,0,.8.2.8.8v2h.9v-2.2c0-1.2-.7-1.5-1.6-1.5Z"/>
          <polygon class="cls-2" points="54 12 55.6 10.3 54.6 10.3 53 12 53 8.7 52.1 8.7 52.1 13.8 53 13.8 53 12.1 54.6 13.8 55.7 13.8 54 12"/>
          <path class="cls-2" d="M42.4,10.9c.5-.2.8-.7.8-1.1,0-.8-.6-1.4-2-1.4h-1.9v5.4h2.2c1,0,2-.5,2-1.6s-.3-1.1-1-1.3ZM40.3,9.3h.9c.7,0,1,.3,1,.6s-.3.7-1,.7h-.9v-1.3ZM41.4,12.9h-1.1v-1.4h1c.7,0,1.1.2,1.1.7,0,.5-.4.7-1.1.7Z"/>
          <rect class="cls-2" x="23.5" y="10.3" width=".9" height="3.5"/>
          <rect class="cls-2" x="23.5" y="8.7" width=".9" height=".9"/>
        </g>
      </g>
    </g>
  </g>
</svg>