<?xml version="1.0" encoding="UTF-8"?>
<svg xmlns="http://www.w3.org/2000/svg" version="1.1" xmlns:xlink="http://www.w3.org/1999/xlink" viewBox="0 0 53.1 18.1">
  <defs>
    <style>
      .cls-1 {
        fill: #ed1d24;
      }

      .cls-2 {
        fill: #fff;
      }

      .cls-3 {
        fill: none;
      }

      .cls-4 {
        clip-path: url(#clippath);
      }
    </style>
    <clipPath id="clippath">
      <rect class="cls-3" x=".8" y=".8" width="51.5" height="16.6"/>
    </clipPath>
  </defs>
  <!-- Generator: Adobe Illustrator 28.6.0, SVG Export Plug-In . SVG Version: 1.2.0 Build 709)  -->
  <g>
    <g id="Layer_1">
      <g>
        <path id="path3" class="cls-2" d="M8.6,17.3h15.6V1.7h-15.6v15.6Z"/>
        <path id="path4" class="cls-1" d="M24.2,17.3l7.8-7.8-7.8-7.8"/>
        <path id="path5" class="cls-1" d="M8.6,1.7l7.8,7.8,7.8-7.8"/>
        <path id="path6" class="cls-1" d="M8.6,17.3h15.6l-7.8-7.8"/>
        <path id="path7" class="cls-1" d="M.8,9.5l7.8,7.8V1.7"/>
        <g class="cls-4">
          <g id="g8">
            <path id="path8" d="M37.1,17.4c-1.4,0-2.5-.5-2.5-2h1.4c0,.7.4,1.1,1.2,1.1s1.2-.3,1.2-.9-.4-.6-1.1-.8h-.5c-1-.4-2-.8-2-1.9s1.3-1.9,2.5-1.9,2.3.4,2.3,1.8h-1.4c0-.6-.4-.9-1-.9s-1,.3-1,.8.4.6,1.3.9l.5.2c1.1.3,1.7.7,1.7,1.7s-1.4,2-2.6,2M44.7,15.9h-2.7l-.5,1.4h-1.3l2.5-6.3h1.5l2.6,6.3h-1.5l-.5-1.4ZM42.3,15h2.1l-1-2.9-1,2.9ZM47.4,11h2.2c.7,0,1,0,1.2,0,.8.2,1.3.7,1.3,1.5s-.5,1.2-1.2,1.4c.8.2,1.5.6,1.5,1.5,0,1.4-1.4,1.7-2.5,1.7h-2.5v-6.3ZM49.6,13.7c.6,0,1.2-.1,1.2-.8s-.6-.8-1.1-.8h-1v1.7h.9ZM49.7,16.4c.6,0,1.3-.1,1.3-.9s-.5-.9-1.2-.9h-1.1v1.8h1ZM34.6,5.8h1.2v1.6c0,.8.2,1.2,1.2,1.2s1.1-.4,1.1-1.4V1.7h1.2v5.6c0,1.4-.5,2.1-2.3,2.1s-2.3-.8-2.3-1.9v-1.7ZM42.1,8.6c.2,0,.4,0,.5-.2,0-.1.2-.3.2-.5h-.4c-1.5,0-2.1-.6-2.1-1.8s0-1.9,2.1-1.9,1.5,0,1.6,0v3.4c0,.8-.1,1.8-1.8,1.8h-1.4v-.8h1.3ZM41.4,6.1c0,.3,0,.6.2.7.1.2.4.2.7.2h.5v-1.9c0,0-.1,0-.5,0-.9,0-.9.7-.9,1M44.9,8v-.9h1.5v-3.9h1.2v3.9h1.3V1.7h1.2v6.3h-5.1ZM47.8,2.5h-1.7v-.5h.4c0-.1,0-.3,0-.4,0-.2,0-.8.9-.8s.3,0,.4,0v.5s-.2,0-.2,0c-.1,0-.2,0-.3,0,0,0-.1.1-.1.3s0,.3,0,.4h.8v.5ZM52.3,8h-1.2V1.7h1.2v6.3Z"/>
          </g>
        </g>
      </g>
    </g>
  </g>
</svg>