<?xml version="1.0" encoding="UTF-8"?>
<svg xmlns="http://www.w3.org/2000/svg" version="1.1" viewBox="0 0 56.5 17.7">
  <defs>
    <style>
      .cls-1 {
        fill: #ffe300;
      }
    </style>
  </defs>
  <!-- Generator: Adobe Illustrator 28.6.0, SVG Export Plug-In . SVG Version: 1.2.0 Build 709)  -->
  <g>
    <g id="Layer_1">
      
      <g>
        <path class="cls-1" d="M6.1,11c1.2,1.2,3.1,1.2,4.3,0,1.2-1.2,1.2-3.1,0-4.3-1.2-1.2-3.1-1.2-4.3,0-1.2,1.2-1.2,3.1,0,4.3"/>
        <path d="M31.1,10.8s0,0,.1,0c0,0,0,0,0-.1s0,0,0-.1c0,0,0,0-.1,0s0,0-.1,0c0,0,0,0,0,.1s0,0,0,.1c0,0,0,0,.1,0"/>
        <path d="M26.7,12.4c0,0,0,.1-.1.2,0,0-.1,0-.2,0s-.1,0-.1,0c0,0-.1-.1-.1-.2s0-.2.2-.3c0,0,.2,0,.3-.1v.5ZM27,12.6s0,0,0,0c0,0,0,0,0-.1v-.7c0-.1,0-.3,0-.3,0-.1-.2-.2-.4-.2s-.3,0-.4.1c0,0-.1.2-.1.2s0,0,0,.1c0,0,0,0,.1,0s0,0,0,0c0,0,0,0,0-.1s0,0,0,0,0,0,0,0c0,0,0,0,0-.1,0,0,.1,0,.2,0,.1,0,.2,0,.2.1,0,0,0,.1,0,.2h0c-.3.3-.5.3-.6.4-.2.1-.2.2-.2.4s0,.2.1.3c0,0,.2,0,.2,0s.2,0,.3,0c0,0,.1,0,.2-.2,0,0,0,.1,0,.2,0,0,0,0,.2,0s.1,0,.2,0c0,0,0,0,.1-.1h0c0,0,0,0,0,0,0,0,0,0,0,0"/>
        <path d="M50,12.5c-.1,0-.3.1-.4.1s-.2,0-.2,0c0,0,0,0,0-.1v-.9s0,0,0,0h0c.2,0,.4,0,.5.1.1,0,.2.2.2.4,0,.2,0,.3-.2.4M49.3,10.7c0,0,0,0,0-.1s0,0,.1,0c.2,0,.3,0,.4,0,.2,0,.3.2.3.4s0,.3-.2.4c0,0-.2,0-.3,0h-.3s0-.8,0-.8h0ZM50.4,11.8c-.1,0-.2-.2-.4-.2.1,0,.2,0,.3-.1.1,0,.2-.2.2-.4s0-.4-.2-.5-.4-.1-.7-.1h-1c.1,0,.2,0,.3.1,0,0,0,.1,0,.2v1.5c0,.1,0,.2,0,.2,0,0-.1,0-.3,0h0c0,0,1.1,0,1.1,0,.2,0,.4,0,.5,0,.2-.1.4-.3.4-.6,0-.2,0-.3-.2-.4"/>
        <path d="M53.8,12.5v-.8c0-.2,0-.4-.2-.5,0,0-.1,0-.2,0s-.2,0-.3,0c0,0-.1.1-.2.2v-.2h0s0,0,0,0h-.2c-.2.1-.3.1-.3.2h0c0,0,0,0,0,0h0c0,0,.1,0,.1,0,0,0,0,0,0,.2v.9c0,.1,0,.2,0,.2,0,0,0,0-.2,0h0s.7,0,.7,0h0c0,0-.1,0-.2,0,0,0,0,0,0-.2v-.9c0,0,.1-.1.1-.1,0,0,.1,0,.2,0s.2,0,.2,0c0,0,0,.1,0,.2v.7c0,.1,0,.2,0,.2,0,0,0,0-.2,0h0s.7,0,.7,0h0c0,0-.1,0-.2-.1,0,0,0,0,0-.2"/>
        <path d="M55.5,12.6c0,0-.2-.2-.4-.4l-.3-.4h0c.2-.3.4-.4.4-.4,0,0,.2,0,.3,0h0s-.7,0-.7,0h0c0,0,.1,0,.1,0,0,0,0,0,0,0s0,0,0,0c0,0,0,0,0,0l-.5.4v-1.4h0s0,0,0,0c0,0,0,0,0,0,0,0-.2,0-.3,0h-.2c0,0,0,0,0,0h0s0,0,.1,0c0,0,0,0,0,.2v1.7c0,0,0,.2,0,.2,0,0-.1,0-.2,0h0s.8,0,.8,0h0c0,0-.1,0-.2,0,0,0,0,0,0-.2v-.6l.5.7s0,0,0,0c0,0,0,0,0,0,0,0,0,0,0,0,0,0,0,0,0,0h0s.7,0,.7,0h0c-.1,0-.2,0-.3-.1"/>
        <path d="M30.1,12.4s0,0,0,.1c0,0-.1,0-.2,0-.2,0-.3,0-.4-.2,0-.1-.1-.3-.1-.5s0-.3.1-.5.2-.2.3-.2.2,0,.2,0c0,0,.1.2.1.3v.7ZM30.5,12.6c0,0-.1,0-.1,0,0,0,0,0,0-.2v-1.4c0,0,0-.1,0-.2s0-.1,0-.2v-.2h0s0,0,0,0c0,0,0,0-.1,0,0,0,0,0-.2,0h-.1c0,0,0,0,0,0h0c0,0,0,0,.1,0,0,0,0,0,0,.1v.5s0,0-.1,0c0,0-.1,0-.2,0-.2,0-.4,0-.5.3-.1.2-.2.4-.2.6s0,.4.2.5c.1.2.3.2.5.2s.2,0,.3,0c0,0,0,0,.2-.2v.2h0s.3,0,.3,0c.2,0,.2,0,.2,0h0c0,0,0,0,0,0,0,0,0,0,0,0"/>
        <path d="M31.2,12.4v-1.2h0s0,0,0,0c0,0-.2,0-.4.1h0c0,0,0,0,.1,0h0c0,0,0,0,.1,0,0,0,0,0,0,.2v.8c0,.1,0,.2,0,.2s-.1,0-.2,0h0s.8,0,.8,0h0c-.1,0-.2,0-.2-.1,0,0,0-.1,0-.2"/>
        <path d="M21.1,12.4v-.7c0-.1,0-.2,0-.3,0-.2-.2-.2-.4-.2s-.2,0-.3.1c0,0-.1,0-.2.2v-1h0s-.2,0-.2,0c0,0,0,0-.2,0,0,0-.1,0-.2,0h0c0,0,0,0,0,0h0c0,0,.1,0,.1,0,0,0,0,0,0,.1v1.6c0,.1,0,.2,0,.2,0,0,0,0-.2,0h0s.7,0,.7,0h0c0,0-.2,0-.2-.1,0,0,0-.1,0-.2v-.8s0,0,.1-.1c0,0,.2,0,.3,0s.2,0,.2.1c0,0,0,.2,0,.3v.7c0,.1,0,.2,0,.2,0,0,0,0-.2,0h0s.7,0,.7,0h0c0,0-.1,0-.2-.1,0,0,0-.1,0-.2"/>
        <path d="M17.6,10.5v.6s0,0,0,0c0-.2,0-.3.2-.4s.2,0,.4,0h.2v1.7c0,.2,0,.2,0,.3,0,0-.1,0-.3,0h0c0,0,1,0,1,0h0c-.1,0-.2,0-.3-.1,0,0,0-.1,0-.2v-1.8h.2c.2,0,.3,0,.4,0,0,0,.1.2.2.4h0v-.6h-2Z"/>
        <path d="M24.9,11.5l-.3-.2c-.1,0-.2-.1-.2-.2,0,0,0-.1,0-.2s0-.2.1-.2c0,0,.2,0,.2,0s.2,0,.4.1c.1,0,.2.2.3.5h0v-.7h-.1s0,0,0,0c0,0,0,0,0,0s0,0-.2,0c-.1,0-.2,0-.3,0-.2,0-.3,0-.5.2-.1.1-.2.3-.2.4s0,.2.1.4c0,0,.1.1.2.2l.3.2c.2.1.3.2.3.2,0,0,.1.2.1.3s0,.2-.1.3c0,0-.2.1-.3.1-.2,0-.4,0-.5-.2,0,0-.2-.2-.2-.4h0v.7h.2s0,0,0,0c0,0,0,0,0,0s0,0,.2,0c.1,0,.2,0,.3,0,.2,0,.4,0,.5-.2.1-.1.2-.3.2-.5s0-.3-.1-.3c0,0-.2-.2-.4-.3"/>
        <path d="M21.8,11.5c0-.1.2-.2.3-.2s.2,0,.3.2c0,0,0,.1,0,.2h-.7c0,0,0-.2,0-.2M22.5,12.5c0,0-.2,0-.3,0s-.3,0-.4-.2c-.1-.1-.2-.3-.2-.6h1.1c0-.2,0-.3-.2-.5-.1-.1-.3-.2-.4-.2s-.4,0-.5.2c-.1.2-.2.4-.2.6s0,.4.2.5c.1.2.3.2.5.2s.3,0,.5-.2c.1-.1.2-.3.3-.4h0c0,0-.1.2-.2.2"/>
        <path d="M28.7,12.6s0,0,0-.2v-1.2h-.5c.1,0,.2,0,.2.1,0,0,0,0,0,.2v.9s0,0-.1.1c0,0-.2,0-.2,0-.1,0-.2,0-.2-.1,0,0,0-.1,0-.2v-1.1h-.5c0,0,.1,0,.2,0,0,0,0,0,0,.2v.9c0,.2,0,.3.1.3,0,0,.2.1.3.1s.2,0,.3,0c0,0,.1-.1.2-.2v.3h0s0,0,0,0c0,0,.2,0,.2,0,0,0,.1,0,.2,0,0,0,0,0,.1,0h0c0,0-.1,0-.2-.1"/>
        <path d="M32.5,10.6c.1,0,.2,0,.3,0,0,0,0,.1,0,.2v1.5c0,.1,0,.2,0,.3,0,0-.1,0-.3,0h0c0,0,1,0,1,0h0c-.1,0-.2,0-.3-.1,0,0,0-.1,0-.3v-1.5c0-.1,0-.2,0-.2,0,0,.1,0,.3,0h0c0,0-1,0-1,0h0Z"/>
        <path d="M43.9,11.5c0-.1.2-.2.3-.2s.2,0,.3.2c0,0,0,.1,0,.2h-.7c0,0,0-.2,0-.2M44.7,12.5c0,0-.2,0-.3,0s-.3,0-.4-.2c-.1-.1-.2-.3-.2-.6h1.1c0-.2,0-.3-.2-.5-.1-.1-.3-.2-.4-.2s-.4,0-.5.2c-.1.2-.2.4-.2.6s0,.4.2.5.3.2.5.2.3,0,.5-.2c.1-.1.2-.3.3-.4h0c0,0-.1.2-.2.2"/>
        <path d="M46.5,12.5v-.8c0-.2,0-.4-.2-.5,0,0-.1,0-.2,0s-.2,0-.3,0c0,0-.1.1-.2.2v-.2s0,0,0,0h0s-.2,0-.2,0c-.2,0-.3,0-.3,0h0c0,0,0,0,0,0h0c0,0,.1,0,.1,0,0,0,0,0,0,.2v.9c0,.1,0,.2,0,.2s0,0-.2,0h0s.7,0,.7,0h0c0,0-.1,0-.2,0,0,0,0,0,0-.2v-.9c0,0,.1-.1.1-.1,0,0,.1,0,.2,0s.2,0,.2,0c0,0,0,.1,0,.2v.7c0,.1,0,.2,0,.2,0,0,0,0-.2,0h0s.7,0,.7,0h0c0,0-.1,0-.2-.1,0,0,0,0,0-.2"/>
        <path d="M47.5,12.6s0,0-.1,0c0,0-.1,0-.2-.1,0,0,0-.1,0-.2v-1h.3c0-.1-.3-.1-.3-.1v-.4h0s0,0,0,0c-.1.2-.2.3-.2.3,0,0,0,0-.2.2,0,0,0,0,0,0h0s0,0,0,0h.2v1c0,.1,0,.2,0,.3,0,.1.1.2.3.2s.1,0,.2,0c0,0,.1,0,.2-.2h0c0,0,0,0,0,0,0,0,0,0-.1,0"/>
        <path d="M40.7,12.6s0,0-.1,0c0,0-.1,0-.2-.1,0,0,0-.1,0-.2v-1h.4c0-.1-.3-.1-.3-.1v-.4h0s0,0,0,0c-.1.2-.2.3-.2.3,0,0,0,0-.2.2,0,0,0,0,0,0,0,0,0,0,0,0h0s0,0,0,0h.2v1c0,.1,0,.2,0,.3,0,.1.1.2.3.2s.1,0,.2,0c0,0,.1,0,.2-.2h0c0,0,0,0,0,0,0,0,0,0-.1,0"/>
        <path d="M43.2,12.5v-.7c0-.2,0-.3,0-.4,0-.2-.2-.2-.4-.2s-.2,0-.3.1c0,0-.1.1-.2.2,0,0,0-.1,0-.2,0,0-.2-.1-.3-.1s-.2,0-.2,0c0,0-.2.1-.3.2v-.2h0s0,0,0,0,0,0-.2,0c-.1,0-.2,0-.2,0h-.1c0,0,0,0,0,0h0c0,0,0,0,.1,0,0,0,0,0,0,.2v.9c0,0,0,.2,0,.2,0,0,0,0-.2,0h0s.8,0,.8,0h0c0,0-.2,0-.2,0,0,0,0,0,0-.2v-.9c0,0,.1-.1.2-.2,0,0,.1,0,.2,0,.1,0,.2,0,.2.2,0,0,0,.2,0,.4v.5c0,.2,0,.2,0,.3,0,0-.1,0-.2,0h0s.8,0,.8,0h0c-.1,0-.2,0-.2-.1,0,0,0-.1,0-.2v-.9c0,0,.1-.1.2-.1,0,0,.1,0,.2,0,.1,0,.2,0,.2.1,0,0,0,.1,0,.2v.7c0,0,0,.2,0,.2,0,0-.1,0-.2,0h0s.8,0,.8,0h0c0,0-.2,0-.2-.1,0,0,0,0,0-.2"/>
        <path d="M35,12.5v-.8c0-.2,0-.4-.2-.5,0,0-.1,0-.2,0s-.2,0-.3,0c0,0-.1.1-.2.2v-.2s0,0,0,0c0,0,0,0,0,0h-.2c-.2.1-.3.1-.3.2h0c0,0,0,0,0,0h0c0,0,.1,0,.1,0,0,0,0,0,0,.2v.9c0,.1,0,.2,0,.2,0,0,0,0-.2,0h0s.7,0,.7,0h0c0,0-.1,0-.2,0,0,0,0,0,0-.2v-.9c0,0,.1-.1.2-.1,0,0,.1,0,.2,0s.2,0,.2,0c0,0,0,.1,0,.2v.7c0,.1,0,.2,0,.2,0,0,0,0-.2,0h0s.7,0,.7,0h0c0,0-.1,0-.2-.1,0,0,0,0,0-.2"/>
        <path d="M36.4,11.3s0,0,.1,0c0,0,0,0,0,0s0,0,0,0c0,0,0,0,0,.1l-.3.7-.4-.8s0,0,0,0c0,0,0,0,0,0,0,0,0,0,0,0,0,0,0,0,.1,0h0s-.7,0-.7,0h0c0,0,0,0,.1,0,0,0,0,.1.1.2l.5,1.2s0,0,0,0c0,0,0,0,0,0,0,0,0,0,0,0,0,0,0,0,0,0l.5-1.2c0-.1,0-.2.1-.2s0,0,.1,0h0s-.5,0-.5,0h0q0,0,0,0Z"/>
        <path d="M39.4,11.9h-.2c-.2-.2-.2-.3-.2-.4s0-.1,0-.2c0,0,.1,0,.2,0,.1,0,.2,0,.3.2,0,0,0,.1,0,.3h0v-.5h0s0,0,0,0c0,0,0,0,0,0s0,0-.1,0c0,0-.1,0-.2,0-.1,0-.3,0-.3.1,0,0-.1.2-.1.3s0,.2,0,.3c0,0,.2.2.3.2h.2c0,.1.1.2.2.2,0,0,0,0,0,.1,0,0,0,.1,0,.2s-.1,0-.2,0c-.2,0-.3,0-.3-.2,0,0,0-.2-.1-.3h0v.5h0s0,0,0,0c0,0,0,0,0,0s0,0,.2,0c0,0,.2,0,.2,0,.2,0,.3,0,.4-.1s.2-.2.2-.3c0-.2-.1-.3-.4-.5"/>
        <path d="M37.4,11.5c0-.1.2-.2.3-.2s.2,0,.3.2c0,0,0,.1,0,.2h-.7c0,0,0-.2,0-.2M38.2,12.5c0,0-.2,0-.3,0s-.3,0-.4-.2c-.1-.1-.2-.3-.2-.6h1.1c0-.2,0-.3-.2-.5-.1-.1-.3-.2-.4-.2s-.4,0-.5.2c-.1.2-.2.4-.2.6s0,.4.2.5.3.2.5.2.3,0,.5-.2c.1-.1.2-.3.3-.4h0c0,0-.1.2-.2.2"/>
        <path d="M51.8,12.4c0,0,0,.1-.1.2,0,0-.1,0-.2,0s-.1,0-.1,0c0,0-.1-.1-.1-.2s0-.2.2-.3c0,0,.2,0,.3-.1v.5ZM52.2,12.6s0,0,0,0c0,0,0,0,0-.1v-.7c0-.1,0-.3,0-.3,0-.1-.2-.2-.4-.2s-.3,0-.4.1-.2.2-.2.2,0,0,0,.1c0,0,0,0,.1,0s0,0,0,0c0,0,0,0,0-.1s0,0,0,0h0c0-.1,0-.2,0-.2,0,0,.1,0,.2,0,.1,0,.2,0,.2.1,0,0,0,.1,0,.2h0c-.3.3-.5.3-.6.4-.2.1-.2.2-.2.4s0,.2.1.3c0,0,.2,0,.2,0s.2,0,.3,0c0,0,.1,0,.2-.2,0,0,0,.1,0,.2s0,0,.2,0,.1,0,.2,0c0,0,0,0,.1-.1h0c0,0,0,0,0,0,0,0,0,0,0,0"/>
        <path d="M18.2,8.4v.7c0,.3,0,.6-.6.5.5.4,1.1,0,1.1-.4v-1.2c-.1.4-.4.4-.5.4M39,8.1s0,0-.2,0c-.3,0-.3.2-.3.3v.2h.5v-.6ZM44.9,4.9c.1.1.2.3.5.4v3.9h-5.9c0,.5-.6.8-1.1.5.5.1.6-.2.6-.5h0s-1,0-1,0v-.7c0-.4.2-.7.7-.8.4,0,.6-.1.8-.3v.6h0v.7h.5v-.5c0-.3.2-.5.5-.5h.5v.4h-.5c0,0-.1,0-.1.2v.4h1.6v-.7c0,0,.1,0,.2,0,0,0,.2,0,.3,0v.8h.5v-1c.2,0,.3-.1.5-.2v1.2h.5v-1.5c.2-.1.4-.3.5-.4v1.9h.5v-3.8h0ZM20.6,9.3c.2,0,.3-.2.3-.3s-.2-.3-.3-.3-.3.2-.3.3.2.3.3.3M27.1,7.2c.2-.1.4-.3.5-.4v2.4h-6.2c0,.3-.4.5-.7.5s-.6-.2-.7-.5h-.8v-3.9c0,0,.3-.2.5-.4v3.8h.3c.1-.3.4-.5.7-.5s.6.2.7.5h1.2v-1.5c.2-.1.4-.2.5-.4v1.9h1.1v-1.5c.2-.1.4-.2.5-.4v1.9h.5v-.7c0,0,.1,0,.2,0,0,0,.2,0,.3,0v.8h.5v-1c.2,0,.3-.1.5-.2v1.2h.5v-1.5h0ZM22.7,5.8c.1,0,.2-.1.2-.2s-.1-.2-.2-.2-.2.1-.2.2,0,.2.2.2M52.2,6.1c.1,0,.2-.1.2-.2s-.1-.2-.2-.2-.2.1-.2.2c0,.1.1.2.2.2M53.3,9.4c-.1,0-.2.1-.2.2s.1.2.2.2.2-.1.2-.2-.1-.2-.2-.2M34,9.4c-.1,0-.2.1-.2.2s.1.2.2.2.2-.1.2-.2-.1-.2-.2-.2M33.3,9.4c-.1,0-.2.1-.2.2s.1.2.2.2.2-.1.2-.2c0-.1-.1-.2-.2-.2M24.8,6.3c.1,0,.2-.1.2-.2s-.1-.2-.2-.2-.2.1-.2.2.1.2.2.2M24.1,6.3c.1,0,.2-.1.2-.2s-.1-.2-.2-.2-.2.1-.2.2c0,.1.1.2.2.2M22.8,6c0,.1.1.2.2.2s.2-.1.2-.2-.1-.2-.2-.2-.2.1-.2.2M22.4,6.3c.1,0,.2-.1.2-.2s-.1-.2-.2-.2-.2.1-.2.2.1.2.2.2M36.8,7.7h-.6v.4h.4c.3,0,.3.1.3.3v.2h-.7v.5h1.2v-.8c0-.3-.2-.6-.7-.6M34.1,7.3v.8h1v.5h-2.6v-1.1c-.2.2-.4.3-.5.4v1.2h3.6v-1.4h-1v-.3c0-.5.6-.8,1-.8v-.5c-1.2.2-1.5.9-1.5,1.2M50.2,7.2h-.8v-.2c0-.2,0-.3.3-.3s.3,0,.3,0v-.2c0,0,0,0-.2,0h-.4c-.2,0-.3.1-.3.3v.3h-.7c0,0-.1.2-.2.3h2v-.3h0ZM54.3,4.9v3.8h-.7v-1.9c-.1.2-.4.3-.5.4v1.5h-.7v-1.9c-.1.2-.4.3-.5.4v1.5h-.6v-3.8c-.2.2-.4.3-.5.4v3.4h-3c0,0-.2,0-.2,0,0,.2-.2.6-.2.6h7.3v-3.9c-.2-.1-.4-.3-.5-.4M30.4,5.2v3.4h-.6v-3.4c0,0-.3-.2-.5-.4v3.8h-1.1v.5h2.6v-4.3c-.2.2-.4.3-.5.4M28.7,4.9c-.2.2-.4.3-.5.4v2.9h.5v-3.3ZM46,5.2v3.9h.5v-4.3c-.2.2-.4.3-.5.4M55.3,5.2c0,0,.3-.2.5-.4v4.3h-.5v-3.9Z"/>
        <path d="M5.9,6.1c-.1.1-.1.3,0,.5l-.7-.7c-.5-.5-.5-1.4,0-2l3-3,3,3c.5.5.5,1.4,0,2l-.7.7c.1-.1.1-.3,0-.5l-2.3-2.3-2.3,2.3Z"/>
        <path d="M7.8,13.5c.2.2.4.6.4.9h0c0-.3.1-.6.4-.9l4.7-4.7-2.3-2.3,1.5-1.5,2.5,2.5c.7.7.7,1.8,0,2.5l-6.7,6.7L1.5,10.1c-.7-.7-.7-1.8,0-2.5l2.5-2.5,1.5,1.5-2.3,2.3,4.7,4.7Z"/>
      </g>
    </g>
  </g>
</svg>