<?xml version="1.0" encoding="UTF-8"?>
<svg xmlns="http://www.w3.org/2000/svg" version="1.1" xmlns:xlink="http://www.w3.org/1999/xlink" viewBox="0 0 55.11 17.02">
  <defs>
    <style>
      .cls-1 {
        fill: none;
      }

      .cls-2 {
        fill: #006a56;
      }

      .cls-3 {
        fill: #8ac63f;
      }

      .cls-4 {
        fill: url(#linear-gradient);
      }

      .cls-5 {
        clip-path: url(#clippath);
      }
    </style>
    <clipPath id="clippath">
      <path class="cls-1" d="M39.71,1.29c1.01.57,1.91,1.34,2.61,2.29.8-.95,1.8-1.71,2.84-2.29h-5.45ZM42.6,3.98c.48.75.85,1.61,1.06,2.56.38-1.17,1.16-2.11,2.32-2.81l.25-.15.25.15c1.16.7,1.94,1.64,2.32,2.81.21-.96.57-1.81,1.06-2.56-1.21-1.47-2.8-2.32-3.63-2.69-.83.37-2.42,1.23-3.63,2.69M47.3,1.29c1.04.58,2.04,1.34,2.84,2.29.71-.95,1.61-1.72,2.61-2.29h-5.45ZM50.43,3.94c-.1.14-.19.28-.28.42-.7,1.16-1.07,2.53-1.07,4.05v5.35s-.03.06-.06.06h-5.59s-.06-.03-.06-.06v-5.35c0-1.52-.37-2.89-1.07-4.05-.09-.15-.18-.29-.28-.42-.8-1.13-1.94-2.03-3.4-2.65v2.59c1.05.7,1.75,1.62,2.11,2.73,0,0,.26.7.26,1.75v2.88c0,1.28-.54,2.44-1.42,3.1h13.3c-.88-.66-1.42-1.82-1.42-3.1v-2.88c0-1.05.27-1.75.27-1.75.35-1.11,1.06-2.02,2.11-2.73V1.29c-1.46.62-2.6,1.52-3.4,2.65Z"/>
    </clipPath>
    <linearGradient id="linear-gradient" x1="-258.9" y1="-405.82" x2="-258.57" y2="-405.82" gradientTransform="translate(15889.41 -10093.86) rotate(-90) scale(39.04)" gradientUnits="userSpaceOnUse">
      <stop offset="0" stop-color="#8ac640"/>
      <stop offset=".15" stop-color="#8ac640"/>
      <stop offset=".21" stop-color="#78ba42"/>
      <stop offset=".47" stop-color="#378f4d"/>
      <stop offset=".65" stop-color="#0f7453"/>
      <stop offset=".75" stop-color="#006a56"/>
      <stop offset="1" stop-color="#006a56"/>
    </linearGradient>
  </defs>
  <!-- Generator: Adobe Illustrator 28.6.0, SVG Export Plug-In . SVG Version: 1.2.0 Build 709)  -->
  <g>
    <g id="Layer_1">
      <g id="Layer_1-2" data-name="Layer_1">
        <path class="cls-3" d="M48.6,13.28s-.03.06-.06.06h-4.62s-.06-.03-.06-.06v-4.87c0-2.09.97-3.42,2.37-4.27,1.4.85,2.37,2.18,2.37,4.27,0,0,0,4.87,0,4.87ZM54.25.81h-16.04s-.06.03-.06.06v3.24s0,.04.03.05c1.39.86,2.34,2.17,2.34,4.25v2.82c0,1.24-.57,2.31-1.39,2.83-.02,0-.03.03-.03.05v.65s.03.06.06.06h14.14s.06-.03.06-.06v-.65s0-.04-.03-.05c-.83-.52-1.39-1.59-1.39-2.83v-2.82c0-2.07.95-3.39,2.34-4.25.02-.01.03-.03.03-.05V.87s-.03-.06-.06-.06"/>
        <g class="cls-5">
          <rect class="cls-4" x="38.63" y="1.29" width="15.2" height="13.05"/>
        </g>
        <polygon class="cls-2" points="4.24 14.82 1.38 9.89 1.38 14.82 .81 14.82 .81 8.76 1.37 8.76 4.26 13.74 4.26 8.76 4.83 8.76 4.83 14.82 4.24 14.82"/>
        <g>
          <path class="cls-2" d="M6.03,10.65c0-1.36.86-2.04,2.1-2.04.87,0,1.47.36,1.78.95l-.43.21c-.25-.42-.72-.65-1.31-.65-.92,0-1.57.49-1.57,1.53v2.22c0,1.03.65,1.53,1.57,1.53.6,0,1.07-.23,1.31-.65l.43.21c-.3.59-.91.95-1.78.95-1.23,0-2.1-.68-2.1-2.04v-2.22Z"/>
          <path class="cls-2" d="M13.05,11.53c.73,0,1.13-.4,1.13-1.17,0-.6-.39-1.09-1.12-1.09h-1.61v2.26s1.6,0,1.6,0ZM11.45,14.31h1.76c.73,0,1.13-.4,1.13-1.17,0-.6-.39-1.09-1.12-1.09h-1.77s0,2.26,0,2.26ZM13.17,8.76c1.01,0,1.58.71,1.58,1.54,0,.74-.28,1.24-.8,1.47.62.21.96.77.96,1.42,0,1.06-.57,1.64-1.59,1.64h-2.44v-6.06h2.29Z"/>
        </g>
        <polygon class="cls-2" points="35.19 14.82 35.19 8.75 35.78 8.51 35.78 14.82 35.19 14.82"/>
        <g>
          <path class="cls-2" d="M20.48,15.85c0,.19-.12.36-.35.36-.21,0-.36-.15-.36-.36s.16-.35.36-.35c.21,0,.35.14.35.35"/>
          <path class="cls-2" d="M19.34,15.85c0,.19-.13.36-.35.36s-.36-.15-.36-.36.16-.35.36-.35c.21,0,.35.14.35.35"/>
          <path class="cls-2" d="M31.51,9.29l-.13-.31c-.06-.16,0-.31.16-.37,0,0,.16-.09.33.03l.05-.19c-.15-.11-.34-.13-.51-.05-.31.13-.42.39-.3.69l.13.31-.18.07-.12.3,1.23-.51v-.25l-.66.27h0Z"/>
          <path class="cls-2" d="M33.38,8.75v4.8c0,.43-.35.78-.78.78h-.43v-4.51l-.59.24v4.26h-.45l-.19.48h1.69c.74,0,1.34-.6,1.34-1.34v-4.96l-.59.24h0Z"/>
          <path class="cls-2" d="M27.93,14.34h-.33c-.64-.05-1.14-.34-1.14-1.09,0-.26.05-.51.14-.67.21-.35.56-.52.99-.52.1,0,.19.01.29.03.02,0,.03.01.05.01v2.24ZM27.86,9.83c-.89,0-1.52.37-1.83.98l.44.22c.25-.43.74-.67,1.35-.67.95,0,1.61.51,1.61,1.59v1.82c0,.31-.25.56-.56.56h-.38v-2.53c-.17-.09-.36-.16-.57-.19-.11-.02-.21-.03-.33-.03-.25,0-.49.04-.7.12-.08.03-.16.06-.23.1l-.06.03h0c-.4.26-.67.73-.67,1.38v.04c0,.5.15.85.4,1.09h-.93c-.43,0-.78-.35-.78-.78v-5.05l-.59.24v4.8c0,.43-.2.78-.63.78-.26,0-.43-.3-.59-.57l-1.73-3.46-.24-.48s-.28.17-.58.59c-.21.3-.4.71-.44.97-.05.33-.16.78.34,1.73l.7,1.21h-2.38c-.72-.01-.96-.53-.96-1.2,0-.45.13-.85.35-1.22l-.33-.23c-.3.47-.47,1.01-.47,1.59,0,.88.45,1.54,1.46,1.54h3.2l-.99-1.69s-.24-.5-.33-.78c-.06-.19-.11-.41-.1-.63.02-.56.37-.95.37-.95l1.38,2.71c.42.81.6,1.33,1.34,1.33.37,0,.71-.2.93-.5.25.3.61.5,1.04.5h3.68c.53,0,.97-.43.97-.97v-1.9c0-1.42-.89-2.12-2.16-2.12"/>
        </g>
      </g>
    </g>
  </g>
</svg>